<svg width="146" height="146" viewBox="0 0 146 146" fill="none" xmlns="http://www.w3.org/2000/svg">
<path d="M72.9173 18.2289L75.8899 12.9292C74.0439 11.8934 71.7907 11.8934 69.9447 12.9292L72.9173 18.2289ZM81.4098 22.9928L78.4372 28.2924C79.3231 28.7893 80.3191 29.0562 81.3344 29.0688L81.4098 22.9928ZM91.1468 23.1134L96.3713 20.0102C95.2897 18.1899 93.3392 17.0636 91.2221 17.0374L91.1468 23.1134ZM96.1198 31.4854L90.8952 34.5886C91.4141 35.4618 92.1433 36.1911 93.0165 36.7098L96.1198 31.4854ZM104.492 36.4583L110.568 36.383C110.542 34.266 109.415 32.3152 107.595 31.2339L104.492 36.4583ZM104.612 46.1952L98.5364 46.2704C98.5486 47.286 98.8159 48.2822 99.3124 49.168L104.612 46.1952ZM109.376 54.6878L114.676 57.6607C115.712 55.8141 115.712 53.5615 114.676 51.7149L109.376 54.6878ZM104.612 63.1803L99.3124 60.2076C98.8159 61.0936 98.5486 62.0896 98.5364 63.105L104.612 63.1803ZM104.492 72.9173L107.595 78.1418C109.415 77.0602 110.542 75.1097 110.568 72.9926L104.492 72.9173ZM96.1198 77.8903L93.0165 72.6657C92.1433 73.1846 91.4141 73.9138 90.8952 74.787L96.1198 77.8903ZM91.1468 86.2625L91.2221 92.3384C93.3392 92.3122 95.2897 91.1856 96.3713 89.3651L91.1468 86.2625ZM81.4098 86.3828L81.3344 80.3069C80.3191 80.3191 79.3231 80.5864 78.4372 81.0829L81.4098 86.3828ZM72.9173 91.1468L69.9447 96.4467C71.7907 97.4821 74.0439 97.4821 75.8899 96.4467L72.9173 91.1468ZM64.4248 86.3828L67.3974 81.0829C66.5115 80.5864 65.5155 80.3191 64.5001 80.3069L64.4248 86.3828ZM54.6878 86.2625L49.4634 89.3651C50.5447 91.1856 52.4955 92.3122 54.6125 92.3384L54.6878 86.2625ZM49.7149 77.8903L54.9393 74.787C54.4206 73.9138 53.6914 73.1846 52.8181 72.6657L49.7149 77.8903ZM41.3429 72.9173L35.2669 72.9926C35.2931 75.1097 36.4194 77.0602 38.2397 78.1418L41.3429 72.9173ZM41.2223 63.1803L47.2983 63.105C47.2857 62.0896 47.0188 61.0936 46.5219 60.2076L41.2223 63.1803ZM36.4583 54.6878L31.1587 51.7149C30.1229 53.5615 30.1229 55.8141 31.1587 57.6607L36.4583 54.6878ZM41.2223 46.1952L46.5219 49.168C47.0188 48.2822 47.2857 47.286 47.2983 46.2704L41.2223 46.1952ZM41.3429 36.4583L38.2397 31.2339C36.4194 32.3152 35.2931 34.266 35.2669 36.3831L41.3429 36.4583ZM49.7149 31.4854L52.8181 36.7098C53.6914 36.1911 54.4206 35.4619 54.9393 34.5886L49.7149 31.4854ZM54.6878 23.1134L54.6126 17.0374C52.4955 17.0636 50.5447 18.1899 49.4634 20.0102L54.6878 23.1134ZM64.4248 22.9928L64.5001 29.0688C65.5155 29.0562 66.5115 28.7893 67.3974 28.2924L64.4248 22.9928ZM51.6496 127.606H45.5731C45.5731 129.772 46.7262 131.774 48.5996 132.861C50.4731 133.948 52.7837 133.956 54.6644 132.881L51.6496 127.606ZM72.9173 115.453L75.9318 110.177C74.0639 109.109 71.7707 109.109 69.9027 110.177L72.9173 115.453ZM94.185 127.606L91.1705 132.881C93.0511 133.956 95.3614 133.948 97.2348 132.861C99.1082 131.774 100.262 129.772 100.262 127.606H94.185ZM69.9447 23.5285L78.4372 28.2924L84.383 17.6932L75.8899 12.9292L69.9447 23.5285ZM81.3344 29.0688L91.0714 29.1894L91.2221 17.0374L81.4851 16.9168L81.3344 29.0688ZM85.9222 26.2166L90.8952 34.5886L101.344 28.3823L96.3713 20.0102L85.9222 26.2166ZM93.0165 36.7098L101.389 41.6827L107.595 31.2339L99.223 26.2611L93.0165 36.7098ZM98.4155 36.5336L98.5364 46.2704L110.688 46.1199L110.568 36.383L98.4155 36.5336ZM99.3124 49.168L104.076 57.6607L114.676 51.7149L109.912 43.2223L99.3124 49.168ZM104.076 51.7149L99.3124 60.2076L109.912 66.1535L114.676 57.6607L104.076 51.7149ZM98.5364 63.105L98.4155 72.8419L110.568 72.9926L110.688 63.2557L98.5364 63.105ZM91.0714 80.186L81.3344 80.3069L81.4851 92.4587L91.2221 92.3384L91.0714 80.186ZM64.5001 80.3069L54.7631 80.186L54.6125 92.3384L64.3494 92.4587L64.5001 80.3069ZM47.4189 72.8419L47.2983 63.105L35.1463 63.2557L35.2669 72.9926L47.4189 72.8419ZM46.5219 60.2076L41.758 51.7149L31.1587 57.6607L35.9227 66.1535L46.5219 60.2076ZM41.758 57.6607L46.5219 49.168L35.9227 43.2223L31.1587 51.7149L41.758 57.6607ZM47.2983 46.2704L47.4189 36.5336L35.2669 36.3831L35.1463 46.1199L47.2983 46.2704ZM44.4461 41.6827L52.8181 36.7098L46.6118 26.2611L38.2397 31.2339L44.4461 41.6827ZM54.9393 34.5886L59.9122 26.2166L49.4634 20.0102L44.4906 28.3823L54.9393 34.5886ZM54.763 29.1894L64.5001 29.0688L64.3494 16.9168L54.6126 17.0374L54.763 29.1894ZM67.3974 28.2924L75.8899 23.5285L69.9447 12.9292L61.4516 17.6932L67.3974 28.2924ZM101.389 67.6927L93.0165 72.6657L99.223 83.1142L107.595 78.1418L101.389 67.6927ZM52.8181 72.6657L44.4461 67.6927L38.2397 78.1418L46.6118 83.1142L52.8181 72.6657ZM78.4372 81.0829L69.9447 85.8468L75.8899 96.4467L84.383 91.6827L78.4372 81.0829ZM75.8899 85.8468L67.3974 81.0829L61.4516 91.6827L69.9447 96.4467L75.8899 85.8468ZM54.6644 132.881L75.9318 120.728L69.9027 110.177L48.6348 122.33L54.6644 132.881ZM69.9027 120.728L91.1705 132.881L97.1996 122.33L75.9318 110.177L69.9027 120.728ZM100.262 127.606V81.1473H88.1085V127.606H100.262ZM90.8952 74.787L88.9604 78.044L99.4096 84.2505L101.344 80.9935L90.8952 74.787ZM88.9604 78.044L85.9222 83.1592L96.3713 89.3651L99.4096 84.2505L88.9604 78.044ZM45.5731 81.1473V127.606H57.7261V81.1473H45.5731ZM59.9122 83.1592L56.874 78.044L46.4252 84.2505L49.4634 89.3651L59.9122 83.1592ZM56.874 78.044L54.9393 74.787L44.4906 80.9935L46.4252 84.2505L56.874 78.044ZM78.9938 54.6878C78.9938 58.0437 76.2733 60.7643 72.9173 60.7643V72.9173C82.9854 72.9173 91.1468 64.7559 91.1468 54.6878H78.9938ZM72.9173 60.7643C69.5612 60.7643 66.8408 58.0437 66.8408 54.6878H54.6878C54.6878 64.7559 62.8492 72.9173 72.9173 72.9173V60.7643ZM66.8408 54.6878C66.8408 51.3319 69.5612 48.6113 72.9173 48.6113V36.4583C62.8492 36.4583 54.6878 44.62 54.6878 54.6878H66.8408ZM72.9173 48.6113C76.2733 48.6113 78.9938 51.3319 78.9938 54.6878H91.1468C91.1468 44.62 82.9854 36.4583 72.9173 36.4583V48.6113Z" fill="#FFC001"/>
</svg>
