<svg width="146" height="147" viewBox="0 0 146 147" fill="none" xmlns="http://www.w3.org/2000/svg">
<path d="M24.3066 116.29V38.5112C24.3066 31.7049 24.3066 28.3017 25.6313 25.7021C26.7964 23.4153 28.6555 21.5561 30.9423 20.391C33.5419 19.0664 36.9451 19.0664 43.7514 19.0664H102.086C108.892 19.0664 112.295 19.0664 114.895 20.391C117.182 21.5561 119.041 23.4153 120.206 25.7021C121.53 28.3017 121.531 31.7049 121.531 38.5112V104.137H36.4596C29.7477 104.137 24.3066 109.578 24.3066 116.29ZM24.3066 116.29C24.3066 123.002 29.7477 128.443 36.4596 128.443H121.531M54.6891 43.3724H91.148M54.6891 67.6783H91.148M115.454 104.137V128.443" stroke="#FFC001" stroke-width="12.153" stroke-linecap="round" stroke-linejoin="round"/>
</svg>
