<svg width="147" height="146" viewBox="0 0 147 146" fill="none" xmlns="http://www.w3.org/2000/svg">
<path d="M19.0654 72.9189H128.442M43.3714 72.9189V85.0719M104.136 72.9189V85.0719M49.4479 42.5364H48.2326C38.0231 42.5364 32.9184 42.5364 29.0189 44.5233C25.5888 46.271 22.8 49.0598 21.0523 52.4899C19.0654 56.3894 19.0654 61.4939 19.0654 71.7036V98.4402C19.0654 108.65 19.0654 113.754 21.0523 117.654C22.8 121.084 25.5888 123.873 29.0189 125.62C32.9184 127.607 38.0231 127.607 48.2326 127.607H99.2751C109.485 127.607 114.589 127.607 118.489 125.62C121.919 123.873 124.708 121.084 126.455 117.654C128.442 113.754 128.442 108.65 128.442 98.4402V71.7036C128.442 61.4939 128.442 56.3894 126.455 52.4899C124.708 49.0598 121.919 46.271 118.489 44.5233C114.589 42.5364 109.485 42.5364 99.2751 42.5364H98.0598M49.4479 42.5364V36.4599C49.4479 30.7974 49.4479 27.9661 50.373 25.7327C51.6064 22.7549 53.9723 20.389 56.9501 19.1556C59.1835 18.2305 62.0147 18.2305 67.6774 18.2305H79.8303C85.493 18.2305 88.3241 18.2305 90.5578 19.1556C93.5353 20.389 95.9015 22.7549 97.135 25.7327C98.0598 27.9661 98.0598 30.7974 98.0598 36.4599V42.5364M49.4479 42.5364H98.0598" stroke="#FFC001" stroke-width="12.153" stroke-linecap="round" stroke-linejoin="round"/>
</svg>
