<svg width="147" height="146" viewBox="0 0 147 146" fill="none" xmlns="http://www.w3.org/2000/svg">
<path d="M73.5898 97.2246C83.658 97.2246 91.8193 89.0632 91.8193 78.9951C91.8193 68.927 83.658 60.7656 73.5898 60.7656C63.5217 60.7656 55.3604 68.927 55.3604 78.9951C55.3604 89.0632 63.5217 97.2246 73.5898 97.2246Z" stroke="#FFC001" stroke-width="12.153" stroke-linecap="round" stroke-linejoin="round"/>
<path d="M18.9014 102.086V55.9044C18.9014 49.0981 18.9014 45.6949 20.226 43.0953C21.3911 40.8085 23.2503 38.9493 25.537 37.7842C28.1367 36.4596 31.5399 36.4596 38.3461 36.4596H44.7547C45.5017 36.4596 45.8752 36.4596 46.2198 36.4201C48.0178 36.2142 49.6305 35.2175 50.6188 33.7014C50.8082 33.4109 50.9753 33.0767 51.3093 32.4086C51.9775 31.0723 52.3116 30.4042 52.6904 29.823C54.667 26.7908 57.8923 24.7975 61.4885 24.3856C62.1775 24.3066 62.9243 24.3066 64.4185 24.3066H82.761C84.2553 24.3066 85.0021 24.3066 85.6911 24.3856C89.2872 24.7975 92.5126 26.7908 94.4893 29.823C94.8678 30.4041 95.2021 31.0725 95.8705 32.4086C96.2041 33.0768 96.3712 33.4109 96.5608 33.7014C97.5494 35.2175 99.1615 36.2142 100.96 36.4201C101.305 36.4596 101.678 36.4596 102.425 36.4596H108.833C115.64 36.4596 119.043 36.4596 121.643 37.7842C123.929 38.9493 125.789 40.8085 126.954 43.0953C128.278 45.6949 128.278 49.0981 128.278 55.9044V102.086C128.278 108.892 128.278 112.295 126.954 114.895C125.789 117.182 123.929 119.041 121.643 120.206C119.043 121.53 115.64 121.531 108.833 121.531H38.3461C31.5399 121.531 28.1367 121.53 25.537 120.206C23.2503 119.041 21.3911 117.182 20.226 114.895C18.9014 112.295 18.9014 108.892 18.9014 102.086Z" stroke="#FFC001" stroke-width="12.153" stroke-linecap="round" stroke-linejoin="round"/>
</svg>
