<svg width="66" height="66" viewBox="0 0 66 66" fill="none" xmlns="http://www.w3.org/2000/svg">
<path d="M10.9049 21.8089L16.3574 54.5237H49.0722L54.5247 21.8089M10.9049 21.8089L15.5838 25.552C18.6261 27.9857 20.1473 29.2027 21.6806 29.3917C23.0239 29.5571 24.3807 29.2169 25.4872 28.4375C26.7501 27.5479 27.5175 25.7573 29.0521 22.1763L32.7148 13.6302M10.9049 21.8089C12.4106 21.8089 13.6312 20.5883 13.6312 19.0827C13.6312 17.577 12.4106 16.3564 10.9049 16.3564C9.3993 16.3564 8.17871 17.577 8.17871 19.0827C8.17871 20.5883 9.3993 21.8089 10.9049 21.8089ZM54.5247 21.8089L49.8459 25.552C46.8035 27.9857 45.2825 29.2027 43.749 29.3917C42.4058 29.5571 41.0489 29.2169 39.9423 28.4375C38.6796 27.5479 37.9121 25.7573 36.3775 22.1763L32.7148 13.6302M54.5247 21.8089C56.0304 21.8089 57.2509 20.5883 57.2509 19.0827C57.2509 17.577 56.0304 16.3564 54.5247 16.3564C53.019 16.3564 51.7985 17.577 51.7985 19.0827C51.7985 20.5883 53.019 21.8089 54.5247 21.8089ZM32.7148 13.6302C34.2205 13.6302 35.4411 12.4096 35.4411 10.904C35.4411 9.39832 34.2205 8.17773 32.7148 8.17773C31.2091 8.17773 29.9886 9.39832 29.9886 10.904C29.9886 12.4096 31.2091 13.6302 32.7148 13.6302ZM32.7148 10.904H32.7421M54.5247 19.0827H54.552M10.9049 19.0827H10.9322" stroke="#FE015E" stroke-width="5.45247" stroke-linecap="round" stroke-linejoin="round"/>
</svg>
