<svg width="23" height="23" viewBox="0 0 23 23" fill="none" xmlns="http://www.w3.org/2000/svg">
<path fill-rule="evenodd" clip-rule="evenodd" d="M11.0953 0C8.08184 0 7.7046 0.0125745 6.52109 0.0665711C5.33981 0.120568 4.53281 0.308446 3.82715 0.582867C3.08746 0.860987 2.41656 1.2974 1.8618 1.86251C1.29758 2.41663 0.860893 3.08705 0.582135 3.8271C0.30919 4.53275 0.120569 5.34048 0.066572 6.52175C0.0133144 7.7045 0 8.08099 0 11.0952C0 14.1094 0.0125747 14.4859 0.066572 15.6694C0.120569 16.8506 0.30845 17.6576 0.582875 18.3633C0.860997 19.103 1.29741 19.7738 1.86254 20.3286C2.41668 20.8928 3.0871 21.3295 3.82715 21.6082C4.53281 21.8819 5.33981 22.0698 6.52109 22.1238C7.7046 22.1778 8.08184 22.1904 11.0953 22.1904C14.1088 22.1904 14.4861 22.1778 15.6696 22.1238C16.8508 22.0698 17.6578 21.8819 18.3635 21.6075C19.1032 21.3294 19.7741 20.893 20.3289 20.3279C20.8931 19.7737 21.3298 19.1033 21.6085 18.3633C21.8822 17.6576 22.0701 16.8506 22.1241 15.6694C22.1781 14.4859 22.1907 14.1086 22.1907 11.0952C22.1907 8.08173 22.1781 7.7045 22.1241 6.52101C22.0701 5.33974 21.8822 4.53275 21.6078 3.8271C21.3292 3.08673 20.8925 2.41603 20.3281 1.86177C19.774 1.29756 19.1036 0.860882 18.3635 0.582127C17.6578 0.309186 16.8501 0.120568 15.6688 0.0665711C14.4861 0.0133142 14.1096 0 11.0953 0ZM11.0953 1.99935C14.0578 1.99935 14.4091 2.01045 15.5793 2.0637C16.6607 2.11326 17.2481 2.29301 17.6394 2.44612C18.1571 2.64657 18.527 2.88771 18.9153 3.2753C19.3037 3.66363 19.5441 4.03347 19.7445 4.55125C19.8969 4.94254 20.0774 5.52984 20.1269 6.61125C20.1802 7.78142 20.1913 8.13277 20.1913 11.0952C20.1913 14.0576 20.1802 14.409 20.1269 15.5791C20.0774 16.6605 19.8976 17.2478 19.7445 17.6391C19.5669 18.1211 19.2836 18.5571 18.9153 18.9151C18.5574 19.2834 18.1213 19.5668 17.6394 19.7443C17.2481 19.8966 16.6607 20.0771 15.5793 20.1267C14.4091 20.1799 14.0585 20.191 11.0953 20.191C8.13214 20.191 7.78152 20.1799 6.61134 20.1267C5.52991 20.0771 4.9426 19.8974 4.5513 19.7443C4.06936 19.5667 3.63335 19.2833 3.27534 18.9151C2.90711 18.557 2.62377 18.121 2.44615 17.6391C2.29377 17.2478 2.11329 16.6605 2.06373 15.5791C2.01047 14.409 1.99938 14.0576 1.99938 11.0952C1.99938 8.13277 2.01047 7.78142 2.06373 6.61125C2.11329 5.52984 2.29303 4.94254 2.44615 4.55125C2.64661 4.03347 2.88774 3.66363 3.27534 3.2753C3.63331 2.90697 4.06933 2.62362 4.5513 2.44612C4.9426 2.29375 5.52991 2.11326 6.61134 2.0637C7.78152 2.01045 8.13288 1.99935 11.0953 1.99935V1.99935Z" fill="black"/>
<path fill-rule="evenodd" clip-rule="evenodd" d="M11.0951 14.7971C10.6089 14.7971 10.1275 14.7013 9.67834 14.5153C9.22917 14.3292 8.82105 14.0565 8.47728 13.7128C8.1335 13.369 7.86081 12.9609 7.67476 12.5117C7.48871 12.0625 7.39295 11.5811 7.39295 11.095C7.39295 10.6088 7.48871 10.1274 7.67476 9.67825C7.86081 9.22909 8.1335 8.82097 8.47728 8.4772C8.82105 8.13343 9.22917 7.86074 9.67834 7.67469C10.1275 7.48864 10.6089 7.39288 11.0951 7.39288C12.077 7.39288 13.0186 7.78292 13.7129 8.4772C14.4072 9.17148 14.7972 10.1131 14.7972 11.095C14.7972 12.0768 14.4072 13.0185 13.7129 13.7128C13.0186 14.407 12.077 14.7971 11.0951 14.7971V14.7971ZM11.0951 5.39205C9.58256 5.39205 8.13198 5.99289 7.06246 7.0624C5.99294 8.1319 5.39209 9.58247 5.39209 11.095C5.39209 12.6075 5.99294 14.058 7.06246 15.1276C8.13198 16.1971 9.58256 16.7979 11.0951 16.7979C12.6076 16.7979 14.0582 16.1971 15.1277 15.1276C16.1972 14.058 16.7981 12.6075 16.7981 11.095C16.7981 9.58247 16.1972 8.1319 15.1277 7.0624C14.0582 5.99289 12.6076 5.39205 11.0951 5.39205V5.39205ZM18.4572 5.2885C18.4572 5.64602 18.3152 5.98891 18.0624 6.24172C17.8095 6.49453 17.4667 6.63656 17.1091 6.63656C16.7516 6.63656 16.4087 6.49453 16.1559 6.24172C15.9031 5.98891 15.761 5.64602 15.761 5.2885C15.761 4.93097 15.9031 4.58808 16.1559 4.33527C16.4087 4.08246 16.7516 3.94043 17.1091 3.94043C17.4667 3.94043 17.8095 4.08246 18.0624 4.33527C18.3152 4.58808 18.4572 4.93097 18.4572 5.2885" fill="black"/>
</svg>
