<svg width="147" height="147" viewBox="0 0 147 147" fill="none" xmlns="http://www.w3.org/2000/svg">
<path d="M31.2187 19.0664V55.5254M31.2187 19.0664L19.0657 31.2194M31.2187 19.0664L43.3717 31.2194M128.443 98.0608V44.5877C128.443 37.7814 128.443 34.3782 127.118 31.7785C125.953 29.4918 124.094 27.6326 121.807 26.4675C119.208 25.1429 115.804 25.1429 108.998 25.1429H67.6777M19.0657 98.0608V79.8313M134.519 98.0608V102.922C134.519 109.728 134.519 113.132 133.194 115.731C132.03 118.018 130.17 119.877 127.884 121.042C125.284 122.367 121.881 122.367 115.074 122.367H32.434C25.6278 122.367 22.2246 122.367 19.6249 121.042C17.3381 119.877 15.479 118.018 14.3139 115.731C12.9893 113.132 12.9893 109.728 12.9893 102.922V98.0608H51.4976C52.9838 98.0608 53.7269 98.0608 54.4263 98.2285C55.0463 98.3774 55.639 98.6229 56.1827 98.9565C56.7959 99.332 57.3214 99.8576 58.3723 100.908L58.7536 101.29C59.8045 102.34 60.33 102.866 60.9432 103.242C61.4869 103.575 62.0794 103.821 62.6998 103.97C63.3992 104.137 64.1424 104.137 65.6281 104.137H81.8803C83.366 104.137 84.1091 104.137 84.8085 103.97C85.4289 103.821 86.0214 103.575 86.5652 103.242C87.1784 102.866 87.704 102.34 88.7546 101.29L89.1362 100.908C90.1868 99.8576 90.7124 99.332 91.3256 98.9565C91.8694 98.6229 92.4619 98.3774 93.0823 98.2285C93.7817 98.0608 94.5248 98.0608 96.0105 98.0608H134.519Z" stroke="#FFC001" stroke-width="12.153" stroke-linecap="round" stroke-linejoin="round"/>
</svg>
