<svg width="147" height="147" viewBox="0 0 147 147" fill="none" xmlns="http://www.w3.org/2000/svg">
<path d="M36.0563 37.2972C38.5779 39.524 40.1681 42.7811 40.1681 46.4097C40.1681 53.1216 34.727 58.5626 28.0151 58.5626C24.3866 58.5626 21.1294 56.9724 18.9026 54.4509M36.0563 37.2972C36.774 37.2949 37.5355 37.2949 38.3452 37.2949H108.832C109.642 37.2949 110.404 37.2949 111.121 37.2972M36.0563 37.2972C30.7406 37.3136 27.8265 37.4525 25.536 38.6195C23.2493 39.7846 21.3901 41.6438 20.225 43.9306C19.058 46.221 18.9191 49.1351 18.9026 54.4509M18.9026 54.4509C18.9004 55.1686 18.9004 55.9301 18.9004 56.7397V90.7681C18.9004 91.5774 18.9004 92.3394 18.9026 93.0571M111.121 37.2972C108.6 39.524 107.01 42.7811 107.01 46.4097C107.01 53.1216 112.45 58.5626 119.162 58.5626C122.791 58.5626 126.048 56.9724 128.275 54.4509M111.121 37.2972C116.437 37.3136 119.351 37.4525 121.642 38.6195C123.928 39.7846 125.788 41.6438 126.953 43.9306C128.12 46.221 128.258 49.1351 128.275 54.4509M18.9026 93.0571C21.1294 90.5353 24.3866 88.9451 28.0151 88.9451C34.727 88.9451 40.1681 94.386 40.1681 101.098C40.1681 104.726 38.5779 107.984 36.0563 110.21M18.9026 93.0571C18.9191 98.3728 19.058 101.286 20.225 103.577C21.3901 105.864 23.2493 107.723 25.536 108.888C27.8265 110.055 30.7406 110.194 36.0563 110.21M36.0563 110.21C36.774 110.213 37.5355 110.213 38.3452 110.213H108.832C109.642 110.213 110.404 110.213 111.121 110.21M111.121 110.21C108.6 107.984 107.01 104.726 107.01 101.098C107.01 94.386 112.45 88.9451 119.162 88.9451C122.792 88.9451 126.05 90.5365 128.277 93.0595M111.121 110.21C116.437 110.194 119.351 110.055 121.642 108.888C123.928 107.723 125.788 105.864 126.953 103.577C128.119 101.287 128.261 98.3734 128.277 93.0595M128.277 93.0595C128.28 92.3413 128.277 91.5787 128.277 90.7681V56.7397C128.277 55.9301 128.277 55.1686 128.275 54.4509M85.7418 73.7539C85.7418 80.466 80.3009 85.9069 73.5888 85.9069C66.8767 85.9069 61.4358 80.466 61.4358 73.7539C61.4358 67.0418 66.8767 61.6009 73.5888 61.6009C80.3009 61.6009 85.7418 67.0418 85.7418 73.7539Z" stroke="#FFC001" stroke-width="12.153" stroke-linecap="round" stroke-linejoin="round"/>
</svg>
