<svg width="290" height="90" viewBox="0 0 290 90" fill="none" xmlns="http://www.w3.org/2000/svg">
<path d="M22.7227 51.9733C22.7715 51.8513 22.7715 51.7171 22.7837 51.5951C22.8935 50.4115 23.2839 49.3256 24.0404 48.3982C24.6383 47.6539 25.3948 47.1293 26.3344 46.8974C27.4081 46.6412 28.4209 46.8486 29.3482 47.4465C29.4092 47.4831 29.458 47.5441 29.5434 47.5563C35.2538 38.3562 40.952 29.1439 46.6624 19.9316C46.6746 19.9316 46.6868 19.9316 46.699 19.9438C46.699 19.9926 46.699 20.0293 46.699 20.0781C46.699 21.286 46.699 22.494 46.699 23.7142C46.699 23.824 46.6746 23.9216 46.6136 24.0192C44.2953 27.7285 41.977 31.4501 39.6708 35.1594C36.84 39.6984 34.0092 44.2496 31.1662 48.7887C31.0808 48.9229 30.9588 49.0449 30.9344 49.1913C30.9222 49.3256 31.0564 49.4476 31.1296 49.5818C31.3615 50.0821 31.5079 50.6067 31.5933 51.1558C31.6665 51.6073 31.6909 52.0587 31.6665 52.5102C31.6665 52.6566 31.6665 52.6566 31.8007 52.6566C31.9838 52.6566 32.1668 52.6566 32.3498 52.6566C32.423 52.6566 32.4596 52.6322 32.4596 52.5468C32.4596 52.5102 32.4596 52.4614 32.4596 52.4248C32.4596 51.2168 32.4596 50.0089 32.4596 48.7887C32.4596 48.6789 32.484 48.5813 32.545 48.4836C33.0575 47.6661 33.5578 46.8486 34.0702 46.0433C34.0946 46.0067 34.1069 45.9579 34.1801 45.9213C34.1801 45.9945 34.1801 46.0555 34.1801 46.1165C34.1801 48.2274 34.1801 50.3261 34.1801 52.437C34.1801 52.6688 34.1557 52.6566 34.3875 52.6566C34.5339 52.6566 34.6681 52.6566 34.8146 52.6566C34.961 52.6566 34.961 52.6566 34.961 52.5102C34.961 52.4736 34.961 52.4248 34.961 52.3882C34.961 49.8746 34.961 47.3489 34.961 44.8353C34.961 44.7011 34.9976 44.5913 35.0586 44.4815C35.5589 43.6762 36.0591 42.8709 36.5594 42.0655C36.5838 42.0289 36.596 41.9801 36.6692 41.9557C36.6692 42.0289 36.6692 42.0899 36.6692 42.151C36.6692 45.5796 36.6692 48.9961 36.6692 52.4248C36.6692 52.6932 36.6448 52.6566 36.9133 52.6688C37.1085 52.6688 37.2915 52.6688 37.4867 52.6688C37.5721 52.6688 37.6087 52.6444 37.6087 52.559C37.6087 52.5102 37.6087 52.4492 37.6087 52.4004C37.6087 48.4958 37.6087 44.5913 37.6087 40.6745C37.6087 40.5281 37.6453 40.4061 37.7186 40.2719C38.2798 39.3812 38.8289 38.4904 39.378 37.5997C39.4024 37.5631 39.4268 37.5265 39.4512 37.4899C39.5 37.5509 39.4756 37.6119 39.4756 37.6607C39.4756 39.1981 39.4756 40.7234 39.4756 42.2608C39.4756 45.6406 39.4756 49.0083 39.4756 52.3882C39.4756 52.4248 39.4756 52.4614 39.4756 52.498C39.4756 52.6688 39.4756 52.6688 39.6464 52.6688C39.9881 52.6688 40.3419 52.6688 40.6836 52.6688C40.8178 52.6688 40.8178 52.6688 40.8178 52.5346C40.8178 52.4858 40.8178 52.437 40.8178 52.3882C40.8178 48.4348 40.8178 44.4815 40.8178 40.5281C40.8178 40.2597 40.7934 40.2963 41.0496 40.2963C41.5865 40.2963 42.1112 40.2963 42.6481 40.2963C42.8067 40.2963 42.8067 40.2963 42.8067 40.4549C42.8067 41.1016 42.8067 41.7605 42.8067 42.4072C42.8067 45.7505 42.8067 49.1059 42.8067 52.4492C42.8067 52.6932 42.7823 52.6688 43.0263 52.6688C43.5266 52.6688 44.0268 52.6688 44.5271 52.6688C44.7101 52.6688 44.7101 52.6688 44.7101 52.4858C44.7101 50.5945 44.7101 48.7033 44.7101 46.812C44.7101 43.5542 44.7101 40.2963 44.7101 37.0384C44.7101 37.0018 44.7101 36.9652 44.7101 36.9286C44.7101 36.7578 44.7101 36.7578 44.5393 36.7578C43.0751 36.7578 41.5987 36.7578 40.1345 36.7578C40.0613 36.7578 39.9881 36.7578 39.9271 36.7578C39.9027 36.6968 39.9393 36.6602 39.9637 36.6236C40.8178 35.2448 41.6841 33.8538 42.5382 32.475C42.587 32.4018 42.6236 32.353 42.7335 32.353C43.2215 32.3652 43.6974 32.3652 44.1855 32.3652C44.2099 32.3652 44.2343 32.3652 44.2709 32.4018C43.8926 33.0485 43.5144 33.7074 43.1361 34.3541C43.1727 34.4151 43.2215 34.4029 43.2581 34.4029C43.6974 34.4029 44.1245 34.4029 44.5637 34.4029C44.7223 34.4029 44.7223 34.4029 44.7223 34.232C44.7223 32.5604 44.7223 30.8888 44.7223 29.2171C44.7223 29.0707 44.7589 28.9487 44.8322 28.8267C45.4178 27.8872 46.0035 26.9476 46.577 26.0203C46.6136 25.9715 46.638 25.9105 46.7112 25.8495C46.7112 25.9349 46.7112 26.0081 46.7112 26.0691C46.7112 35.623 46.7112 45.1648 46.7112 54.7187C46.7112 54.9872 46.7478 54.9628 46.4794 54.9628C41.4401 54.9628 36.413 54.9628 31.3737 54.9628C31.3371 54.9628 31.2883 54.9628 31.2517 54.9628C31.1296 54.9505 31.0686 54.9994 31.0198 55.097C30.8246 55.4874 30.5806 55.8413 30.2877 56.1707C29.702 56.8296 28.9943 57.3055 28.1158 57.5129C27.0665 57.7569 26.0903 57.5739 25.1874 57.0126C24.3089 56.4636 23.711 55.6704 23.2961 54.7309C23.0277 54.1208 22.8691 53.4741 22.8081 52.803C22.7959 52.681 22.7959 52.559 22.7471 52.437C22.7227 52.254 22.7227 52.1198 22.7227 51.9733ZM27.2251 55.1336C27.4081 55.1336 27.5789 55.1214 27.762 55.0726C28.3843 54.9017 28.8479 54.5113 29.1774 53.9622C29.6654 53.1691 29.7752 52.315 29.58 51.4121C29.4458 50.802 29.1774 50.2651 28.7137 49.838C28.0792 49.2646 27.3471 49.0815 26.5296 49.3622C26.0293 49.533 25.6511 49.8746 25.346 50.3139C24.919 50.9484 24.7603 51.6439 24.7969 52.4004C24.8336 53.1325 25.0776 53.7914 25.5657 54.3405C26.0049 54.8407 26.5418 55.1214 27.2251 55.1336Z" fill="#1FAAC8"/>
<path d="M50.3965 25.826C50.4697 25.8626 50.4819 25.9114 50.5185 25.9602C51.1164 26.912 51.7021 27.8637 52.2999 28.8155C52.361 28.9131 52.3854 29.0229 52.3854 29.1327C52.3854 30.8043 52.3854 32.476 52.3854 34.1476C52.3854 34.3794 52.3732 34.3672 52.5928 34.3672C52.9954 34.3672 53.3981 34.3672 53.7886 34.3672C53.8496 34.3672 53.9106 34.3794 53.9838 34.3428C53.5933 33.6839 53.2151 33.025 52.8368 32.3661C52.8856 32.3295 52.9222 32.3417 52.9588 32.3417C53.4225 32.3417 53.8862 32.3417 54.3498 32.3295C54.4474 32.3295 54.4963 32.3539 54.5573 32.4394C55.4236 33.8426 56.2899 35.2335 57.1562 36.6367C57.1684 36.6611 57.1806 36.6856 57.205 36.7222C57.144 36.7588 57.083 36.7466 57.0342 36.7466C55.5578 36.7466 54.0936 36.7466 52.6172 36.7466C52.361 36.7466 52.3976 36.7222 52.3976 36.9784C52.3976 42.1153 52.3976 47.2644 52.3976 52.4014C52.3976 52.682 52.3732 52.6454 52.6538 52.6454C53.1541 52.6454 53.6543 52.6454 54.1546 52.6454C54.3132 52.6454 54.3132 52.6454 54.3132 52.4868C54.3132 52.3281 54.3132 52.1817 54.3132 52.0231C54.3132 48.1918 54.3132 44.3482 54.3132 40.5169C54.3132 40.2607 54.2888 40.2851 54.5451 40.2851C55.0697 40.2851 55.5944 40.2851 56.1191 40.2851C56.2899 40.2851 56.2899 40.2851 56.2899 40.4681C56.2899 41.7249 56.2899 42.9816 56.2899 44.2384C56.2899 46.9594 56.2899 49.6926 56.2899 52.4136C56.2899 52.6576 56.2655 52.6454 56.5217 52.6454C56.8512 52.6454 57.1806 52.6454 57.5101 52.6454C57.6321 52.6454 57.6321 52.6454 57.6443 52.5112C57.6443 52.4624 57.6443 52.4136 57.6443 52.3647C57.6443 47.4719 57.6443 42.579 57.6443 37.6861C57.6443 37.6129 57.6443 37.5519 57.6443 37.4787C57.6565 37.4787 57.6687 37.4787 57.6809 37.4665C57.7175 37.5153 57.7419 37.5641 57.7785 37.6129C58.3398 38.5158 58.9011 39.4187 59.4624 40.3217C59.5234 40.4193 59.5356 40.5169 59.5356 40.6267C59.5356 44.5435 59.5356 48.448 59.5356 52.3647C59.5356 52.6698 59.4868 52.6332 59.8162 52.6332C59.9992 52.6332 60.17 52.6332 60.3531 52.6332C60.4385 52.6332 60.4751 52.6088 60.4629 52.5234C60.4629 52.4746 60.4629 52.4136 60.4629 52.3647C60.4629 48.9605 60.4629 45.5562 60.4629 42.1519C60.4629 42.0909 60.4629 42.0177 60.4629 41.9567C60.5239 41.9445 60.5361 42.0055 60.5605 42.0299C61.0852 42.8596 61.5976 43.7015 62.1223 44.5313C62.1833 44.6167 62.1833 44.7143 62.1833 44.7997C62.1833 47.3254 62.1833 49.8512 62.1833 52.3647C62.1833 52.6698 62.1345 52.621 62.4518 52.621C62.5738 52.621 62.6958 52.621 62.8056 52.621C62.9642 52.621 62.9642 52.621 62.9642 52.4624C62.9642 52.4258 62.9642 52.3891 62.9642 52.3525C62.9642 50.2661 62.9642 48.1918 62.9642 46.1053C62.9642 46.0443 62.9642 45.9833 62.9642 45.9222C62.9764 45.9222 62.9886 45.9222 63.0008 45.91C63.0374 45.9588 63.0619 46.0077 63.0985 46.0565C63.5865 46.8496 64.0868 47.6427 64.5871 48.4358C64.6481 48.5456 64.6847 48.6432 64.6847 48.7652C64.6847 49.961 64.6847 51.169 64.6847 52.3647C64.6847 52.4014 64.6847 52.4502 64.6847 52.4868C64.6725 52.5722 64.7091 52.621 64.8067 52.6088C65.0019 52.6088 65.1849 52.6088 65.3802 52.6088C65.49 52.6088 65.5022 52.5966 65.49 52.4746C65.4412 51.7791 65.5388 51.0958 65.7096 50.4247C65.8194 50.0098 65.9659 49.6194 66.1977 49.2533C66.2465 49.1679 66.2221 49.1191 66.1855 49.0459C65.429 47.8257 64.6725 46.6055 63.9038 45.3854C61.2926 41.188 58.6692 37.0028 56.0581 32.8054C54.2278 29.877 52.3976 26.9364 50.5673 23.9958C50.5063 23.886 50.4697 23.7883 50.4697 23.6663C50.4697 22.4706 50.4697 21.2748 50.4697 20.0912C50.4697 20.0302 50.4697 19.9814 50.4697 19.9204C50.4819 19.9204 50.4941 19.9082 50.5063 19.9082C56.2167 29.1083 61.9149 38.3206 67.6253 47.5207C67.6985 47.5085 67.7473 47.4597 67.8083 47.4231C68.4306 47.0082 69.1139 46.7764 69.8582 46.7642C70.7977 46.7398 71.6397 47.0448 72.3718 47.6305C73.2137 48.2894 73.7627 49.1557 74.1044 50.1684C74.3484 50.9005 74.4216 51.6571 74.3972 52.4258C74.385 53.0602 74.2752 53.6703 74.0678 54.2682C73.7139 55.281 73.1405 56.1351 72.2741 56.7818C71.603 57.282 70.8343 57.5627 69.9924 57.5749C69.1139 57.5871 68.333 57.3064 67.6253 56.7818C67.0152 56.3303 66.5393 55.7446 66.1855 55.0735C66.1123 54.9393 66.0391 54.9027 65.8927 54.9027C60.8289 54.9027 55.7774 54.9027 50.7137 54.9027C50.4209 54.9027 50.4575 54.9393 50.4575 54.6587C50.4575 45.1047 50.4575 35.563 50.4575 26.0091C50.3965 25.9603 50.3965 25.8992 50.3965 25.826ZM72.2986 52.1695C72.2986 51.9865 72.2863 51.8035 72.2619 51.6204C72.1277 50.8639 71.8105 50.2172 71.2126 49.717C70.4561 49.0947 69.419 49.0581 68.6258 49.6316C68.2842 49.8756 68.0157 50.1928 67.8205 50.5711C67.4545 51.2666 67.3447 52.0109 67.4789 52.7796C67.5887 53.4507 67.8693 54.0364 68.3818 54.5122C68.9309 55.0247 69.5654 55.2322 70.3097 55.0735C70.8831 54.9515 71.3224 54.6343 71.6641 54.1706C72.1033 53.5849 72.2986 52.9138 72.2986 52.1695Z" fill="#1FAAC8"/>
<path d="M48.5537 9C48.6147 9.17082 48.6757 9.34165 48.7367 9.50027C49.2248 10.8425 49.7129 12.1846 50.1887 13.539C50.2253 13.6366 50.2741 13.7343 50.3229 13.8319C53.2758 18.6149 56.2286 23.3858 59.1814 28.1689C61.9024 32.5615 64.6111 36.9663 67.3321 41.3589C68.2228 42.8109 69.1258 44.2629 70.0165 45.7149C70.0409 45.7638 70.0897 45.8004 70.0897 45.8736C70.0287 45.898 69.9677 45.8858 69.9189 45.8858C69.2844 45.8858 68.6499 45.8858 68.0276 45.8858C67.8934 45.8858 67.8202 45.8492 67.7592 45.7393C66.3194 43.421 64.8796 41.1149 63.4276 38.8088C61.2435 35.3069 59.0594 31.805 56.8753 28.3031C54.4837 24.4596 52.08 20.6282 49.6885 16.7847C49.6519 16.7237 49.603 16.6627 49.5298 16.6017C49.5298 16.6749 49.5298 16.7359 49.5298 16.8091C49.5298 25.9604 49.5298 35.1239 49.5298 44.2751C49.5298 44.629 49.5298 44.9828 49.5298 45.3367C49.5298 45.4587 49.5298 45.4709 49.3956 45.4709C48.8221 45.4709 48.2487 45.4709 47.6752 45.4709C47.541 45.4709 47.541 45.4709 47.541 45.3245C47.541 45.2757 47.541 45.2147 47.541 45.1659C47.541 35.7217 47.541 26.2654 47.541 16.8213C47.541 16.7603 47.541 16.6871 47.541 16.6139C47.4555 16.6383 47.4433 16.7115 47.4067 16.7603C46.0279 18.9566 44.6614 21.1651 43.2826 23.3614C39.8539 28.8522 36.4252 34.3429 33.0087 39.8215C31.7764 41.7982 30.544 43.7749 29.3116 45.7515C29.2384 45.8614 29.1774 45.898 29.0432 45.898C28.4087 45.8858 27.762 45.898 27.1275 45.898C27.0787 45.898 27.0177 45.898 26.9567 45.898C26.9445 45.8126 27.0055 45.776 27.0299 45.7149C28.3599 43.5674 29.6777 41.4199 31.0076 39.2724C33.3992 35.4045 35.7907 31.5366 38.1822 27.6564C40.7934 23.4346 43.3924 19.2128 46.0035 14.991C46.2476 14.6006 46.4916 14.1979 46.7356 13.8075C46.7845 13.7221 46.8211 13.6366 46.8577 13.5512C47.3823 12.0992 47.907 10.6472 48.4317 9.19523C48.4805 9.13422 48.4927 9.06101 48.5537 9Z" fill="#1FAAC8"/>
<path d="M64.8073 72.2305C64.7341 71.9742 64.6731 71.7424 64.6487 71.5106C64.5145 70.2538 64.8195 69.1434 65.7346 68.2405C66.2837 67.7036 66.9548 67.423 67.7357 67.423C68.6997 67.423 69.6636 67.423 70.6397 67.423C70.6641 67.423 70.7007 67.423 70.7252 67.423C70.7984 67.423 70.8228 67.4596 70.8228 67.5206C70.8228 67.545 70.8228 67.5816 70.8228 67.606C70.8228 68.7286 70.835 69.8633 70.8228 70.9859C70.8106 72.0108 70.4689 72.9138 69.7368 73.6459C69.1633 74.2193 68.4556 74.5 67.6381 74.5C63.819 74.5 59.9998 74.5 56.1807 74.5C55.9001 74.5 55.9367 74.5366 55.9367 74.2559C55.9367 71.718 55.9367 69.18 55.9367 66.6299C55.9367 66.3858 55.9611 66.4102 55.717 66.4102C55.5462 66.4102 55.3876 66.4102 55.2168 66.4102C55.046 66.4102 55.046 66.4102 55.046 66.5933C55.046 67.5328 55.046 68.4601 55.046 69.3997C55.046 69.7047 55.046 69.7047 54.7409 69.7047C53.9844 69.7047 53.2279 69.7047 52.4714 69.7047C52.4348 69.7047 52.386 69.7047 52.3494 69.7047C52.2884 69.7047 52.2518 69.7291 52.2518 69.8023C52.2518 69.8389 52.2518 69.8877 52.2518 69.9243C52.2518 70.6198 52.2518 71.3031 52.2518 71.9986C52.2518 72.0352 52.2518 72.084 52.2518 72.1206C52.2518 72.1939 52.2762 72.2183 52.3494 72.2183C52.386 72.2183 52.4348 72.2183 52.4714 72.2183C53.2645 72.2183 54.0454 72.2183 54.8385 72.2183C54.8751 72.2183 54.9239 72.2183 54.9605 72.2183C55.0216 72.2183 55.046 72.2427 55.046 72.3037C55.046 72.3403 55.046 72.3769 55.046 72.4135C55.046 73.048 55.046 73.6947 55.046 74.3292C55.046 74.3536 55.046 74.3902 55.046 74.4146C55.046 74.4878 55.0216 74.5122 54.9483 74.5122C54.9117 74.5122 54.8751 74.5122 54.8385 74.5122C53.4231 74.5122 51.9955 74.5122 50.5801 74.5122C50.3727 74.5122 50.3849 74.5244 50.3849 74.3169C50.3849 72.084 50.3849 69.8389 50.3849 67.606C50.3849 67.5816 50.3849 67.545 50.3849 67.5206C50.3849 67.4474 50.4093 67.423 50.4825 67.423C50.5191 67.423 50.5679 67.423 50.6045 67.423C51.3976 67.423 52.1786 67.423 52.9717 67.423C53.0083 67.423 53.0571 67.423 53.0937 67.423C53.1547 67.423 53.1791 67.4108 53.1791 67.3376C53.1791 67.0569 53.1791 66.7763 53.1791 66.4957C53.1791 66.4346 53.1425 66.4102 53.0937 66.4102C53.0571 66.4102 53.0083 66.4102 52.9717 66.4102C52.1786 66.4102 51.3976 66.4102 50.6045 66.4102C50.5679 66.4102 50.5191 66.4102 50.4825 66.4102C50.4093 66.4102 50.3849 66.3858 50.3849 66.3126C50.3849 66.154 50.3849 66.0076 50.3849 65.849C50.3849 65.3243 50.3849 64.7996 50.3849 64.2749C50.3849 64.1285 50.3849 64.1285 50.5313 64.1285C50.5679 64.1285 50.6045 64.1285 50.6411 64.1285C56.2783 64.1285 61.9277 64.1285 67.5649 64.1285C67.8455 64.1285 67.8089 64.0919 67.8089 64.3726C67.8089 64.9826 67.8089 65.5927 67.8089 66.2028C67.8089 66.2394 67.8089 66.2882 67.8089 66.3248C67.8089 66.3858 67.7845 66.4102 67.7235 66.4102C67.6747 66.4102 67.6137 66.4102 67.5649 66.4102C64.3803 66.4102 61.2078 66.4102 58.0232 66.4102C57.7669 66.4102 57.7913 66.3858 57.7913 66.6421C57.7913 68.4235 57.7913 70.205 57.7913 71.9864C57.7913 72.2183 57.7669 72.2061 57.9988 72.2061C58.2672 72.2061 58.5234 72.2061 58.7919 72.2061C58.9383 72.2061 58.9383 72.2061 58.9383 72.0596C58.9383 71.4984 58.9383 70.9249 58.9383 70.3636C58.9383 70.327 58.9383 70.2782 58.9383 70.2416C58.9383 70.1684 58.9749 70.1318 59.0481 70.144C59.1823 70.144 59.3166 70.144 59.463 70.144C59.8046 70.144 60.1463 70.144 60.4879 70.144C60.6343 70.144 60.6343 70.144 60.6343 70.2904C60.6343 70.8639 60.6343 71.4373 60.6343 72.0108C60.6343 72.0474 60.6343 72.0962 60.6343 72.1328C60.6343 72.1939 60.6587 72.2183 60.7197 72.2183C61.0736 72.2183 61.4274 72.2183 61.7813 72.2183C61.8423 72.2183 61.8667 72.1817 61.8667 72.1328C61.8667 72.0962 61.8667 72.0474 61.8667 72.0108C61.8667 71.4496 61.8667 70.8883 61.8667 70.327C61.8667 70.144 61.8667 70.144 62.0497 70.144C62.489 70.144 62.9161 70.144 63.3553 70.144C63.5749 70.144 63.5505 70.1318 63.5505 70.3514C63.5505 70.9005 63.5505 71.4495 63.5505 71.9986C63.5505 72.0352 63.5505 72.0718 63.5505 72.1084C63.5505 72.1939 63.5749 72.2305 63.6604 72.2305C64.0386 72.2183 64.4169 72.2305 64.8073 72.2305ZM68.8949 70.4124C68.8949 70.205 68.8949 70.0097 68.8949 69.8023C68.8949 69.6437 68.8949 69.6437 68.7363 69.6437C68.4068 69.6437 68.0652 69.6437 67.7357 69.6437C67.5771 69.6437 67.4429 69.6803 67.3087 69.7535C66.5644 70.1562 66.3569 71.1567 66.8694 71.8156C67.2721 72.3281 67.9676 72.4013 68.4434 71.962C68.7241 71.7058 68.8705 71.3885 68.8827 71.0103C68.9071 70.8273 68.8949 70.6198 68.8949 70.4124Z" fill="#1FAAC8"/>
<path d="M32.2996 72.2311C32.6779 72.2311 33.0684 72.2311 33.4466 72.2311C33.5198 72.2311 33.5442 72.1945 33.5442 72.1335C33.5442 72.0114 33.5442 71.8894 33.5442 71.7796C33.5442 71.2915 33.5442 70.8035 33.5442 70.3154C33.5442 70.1568 33.5442 70.1568 33.7028 70.1568C34.1665 70.1568 34.618 70.1568 35.0816 70.1568C35.2281 70.1568 35.2281 70.1568 35.2281 70.3032C35.2281 70.8767 35.2281 71.4502 35.2281 72.0236C35.2281 72.0602 35.2281 72.1091 35.2281 72.1457C35.2281 72.2067 35.2525 72.2311 35.3135 72.2311C35.6673 72.2311 36.0212 72.2311 36.375 72.2311C36.4482 72.2311 36.4726 72.1945 36.4726 72.1335C36.4726 72.0969 36.4726 72.048 36.4726 72.0114C36.4726 71.4502 36.4726 70.8889 36.4726 70.3276C36.4726 70.1568 36.4726 70.1568 36.6313 70.1568C37.0827 70.1568 37.5342 70.1568 37.9856 70.1568C38.1443 70.1568 38.1443 70.1568 38.1443 70.3276C38.1443 70.8889 38.1443 71.4624 38.1443 72.0236C38.1443 72.0602 38.1443 72.1091 38.1443 72.1457C38.1443 72.2067 38.1687 72.2311 38.2297 72.2311C38.2541 72.2311 38.2785 72.2311 38.3029 72.2311C38.5713 72.2311 38.8398 72.2311 39.1082 72.2311C39.279 72.2311 39.279 72.2311 39.279 72.048C39.279 72.0358 39.279 72.0114 39.279 71.9992C39.279 70.2178 39.279 68.4485 39.279 66.6671C39.279 66.6549 39.279 66.6305 39.279 66.6183C39.279 66.4475 39.279 66.4475 39.096 66.4475C37.6074 66.4475 36.131 66.4475 34.6424 66.4475C32.9341 66.4475 31.2137 66.4475 29.5055 66.4475C29.4567 66.4475 29.4078 66.4475 29.359 66.4475C29.2858 66.4475 29.2614 66.4231 29.2614 66.3498C29.2614 66.3132 29.2614 66.2644 29.2614 66.2278C29.2614 65.6177 29.2614 64.9955 29.2614 64.3854C29.2614 64.1413 29.237 64.1657 29.4811 64.1657C29.7129 64.1657 29.9447 64.1657 30.1766 64.1657C35.6063 64.1657 41.0361 64.1657 46.4658 64.1657C46.7221 64.1657 46.6977 64.1291 46.6977 64.3976C46.6977 65.0199 46.6977 65.6421 46.6977 66.2644C46.6977 66.4719 46.7221 66.4597 46.5024 66.4597C45.7215 66.4597 44.9406 66.4597 44.1597 66.4597C44.1231 66.4597 44.0865 66.4597 44.0499 66.4597C43.8913 66.4597 43.8913 66.4597 43.8913 66.6183C43.8913 66.8501 43.8913 67.082 43.8913 67.3138C43.8913 67.4602 43.8913 67.4602 44.0377 67.4602C44.6722 67.4602 45.3067 67.4602 45.929 67.4602C46.112 67.4602 46.295 67.4602 46.478 67.4602C46.6855 67.4602 46.6733 67.448 46.6733 67.6554C46.6733 69.8883 46.6733 72.1213 46.6733 74.342C46.6733 74.3786 46.6733 74.4152 46.6733 74.4518C46.6733 74.525 46.6489 74.5494 46.5756 74.5494C46.539 74.5494 46.5024 74.5494 46.4658 74.5494C45.0504 74.5494 43.6228 74.5494 42.2074 74.5494C42 74.5494 42.0122 74.5738 42.0122 74.3664C42.0122 73.7319 42.0122 73.0852 42.0122 72.4507C42.0122 72.4263 42.0122 72.3897 42.0122 72.3653C42.0122 72.2921 42.0366 72.2677 42.1098 72.2677C42.1464 72.2677 42.1952 72.2677 42.2318 72.2677C43.0128 72.2677 43.7937 72.2677 44.5746 72.2677C44.6112 72.2677 44.66 72.2677 44.6966 72.2677C44.7698 72.2677 44.8064 72.2433 44.8064 72.1701C44.8064 72.1457 44.8064 72.1091 44.8064 72.0846C44.8064 71.3769 44.8064 70.6693 44.8064 69.9493C44.8064 69.9127 44.8064 69.8761 44.8064 69.8395C44.8064 69.7785 44.782 69.7541 44.721 69.7541C44.6844 69.7541 44.6356 69.7541 44.599 69.7541C43.8181 69.7541 43.0494 69.7541 42.2684 69.7541C42.2318 69.7541 42.1952 69.7541 42.1586 69.7541C42.0122 69.7541 42 69.7541 42 69.5955C42 69.144 42 68.6926 42 68.2411C42 67.7042 42 67.1796 42 66.6427C42 66.4719 42 66.4719 41.817 66.4719C41.6096 66.4719 41.4143 66.4719 41.2069 66.4719C41.1337 66.4719 41.0971 66.4963 41.0971 66.5817C41.0971 66.6305 41.0971 66.6793 41.0971 66.7281C41.0971 69.2661 41.0971 71.804 41.0971 74.3298C41.0971 74.6104 41.1093 74.5616 40.853 74.5616C37.0217 74.5616 33.1782 74.5616 29.3468 74.5494C28.3341 74.5494 27.541 74.0857 26.9431 73.2804C26.4672 72.6337 26.2354 71.9016 26.2232 71.1085C26.211 69.9493 26.2232 68.778 26.2232 67.6188C26.2232 67.4602 26.2232 67.4602 26.3818 67.4602C27.3824 67.4602 28.3829 67.448 29.3834 67.4602C30.262 67.4724 30.9697 67.8629 31.5309 68.5095C32.1044 69.1806 32.3851 69.9615 32.4217 70.8401C32.4339 71.2793 32.3851 71.7186 32.263 72.1457C32.2996 72.1457 32.2752 72.1823 32.2996 72.2311ZM28.1877 70.4374C28.1877 70.6326 28.1877 70.8157 28.1877 71.0109C28.1877 71.2793 28.2731 71.5112 28.4073 71.7308C28.8832 72.4507 29.8471 72.4385 30.2864 71.7064C30.7012 71.0109 30.4572 70.169 29.7617 69.7785C29.6397 69.7053 29.5177 69.6687 29.3712 69.6687C29.0174 69.6687 28.6513 69.6687 28.2975 69.6687C28.1999 69.6687 28.1755 69.6931 28.1755 69.7907C28.1999 69.9982 28.1877 70.2178 28.1877 70.4374Z" fill="#1FAAC8"/>
<path d="M48.5407 78.0455C48.4065 77.7283 48.2967 77.4476 48.1747 77.167C47.9794 76.6789 47.772 76.1908 47.5768 75.715C47.5402 75.6174 47.5158 75.5075 47.5158 75.3977C47.5158 66.8443 47.5158 58.2787 47.5158 49.7253C47.5158 49.5057 47.5036 49.5301 47.711 49.5301C48.2723 49.5301 48.8457 49.5301 49.407 49.5301C49.5778 49.5301 49.5779 49.5301 49.5779 49.7009C49.5779 49.7375 49.5779 49.7741 49.5779 49.8107C49.5779 58.3275 49.5779 66.8321 49.5779 75.3489C49.5779 75.5075 49.5534 75.6418 49.4924 75.776C49.1996 76.4715 48.919 77.167 48.6383 77.8625C48.6017 77.9113 48.5773 77.9601 48.5407 78.0455Z" fill="#1FAAC8"/>
<path d="M46.6997 59.5029C46.6997 60.6377 46.6997 61.7846 46.6997 62.9194C46.6997 62.956 46.6997 63.0048 46.6997 63.0414C46.6997 63.1756 46.6997 63.1756 46.5533 63.1756C46.1873 63.1756 45.809 63.1756 45.4429 63.1756C43.5029 63.1756 41.5506 63.1756 39.6105 63.1756C39.3665 63.1756 39.3909 63.2 39.3909 62.956C39.3909 61.3332 39.3909 59.7103 39.3909 58.0875C39.3909 57.8435 39.3909 57.8679 39.1835 57.8679C38.1585 57.8679 37.1458 57.8679 36.1208 57.8679C36.0842 57.8679 36.0354 57.8679 35.9988 57.8679C35.9134 57.8801 35.8768 57.8435 35.889 57.7581C35.889 57.6239 35.889 57.4896 35.889 57.3432C35.889 56.8796 35.889 56.4281 35.889 55.9644C35.889 55.7692 35.8768 55.7814 36.072 55.7814C37.6949 55.7814 39.3299 55.7814 40.9527 55.7814C41.0503 55.7814 41.1601 55.7814 41.2578 55.7814C41.3432 55.7814 41.3798 55.8058 41.3798 55.8912C41.3798 55.94 41.3798 55.9888 41.3798 56.0376C41.3798 57.575 41.3798 59.1003 41.3798 60.6377C41.3798 60.6743 41.3798 60.7231 41.3798 60.7597C41.3798 60.8939 41.3798 60.8939 41.5262 60.8939C42.5389 60.8939 43.5517 60.8939 44.5644 60.8939C44.723 60.8939 44.723 60.8939 44.723 60.7109C44.723 59.3321 44.723 57.9411 44.723 56.5623C44.723 56.3427 44.723 56.1352 44.723 55.9156C44.723 55.7814 44.723 55.7814 44.8451 55.7814C45.4307 55.7814 46.0164 55.7814 46.6021 55.7814C46.6875 55.7814 46.7241 55.8058 46.7119 55.8912C46.7119 56.0498 46.7119 56.1963 46.7119 56.3549C46.6997 57.4164 46.6997 58.4658 46.6997 59.5029Z" fill="#1FAAC8"/>
<path d="M50.3975 59.4767C50.3975 58.3176 50.3975 57.1462 50.3975 55.9871C50.3975 55.7674 50.3731 55.7918 50.6049 55.7918C51.1296 55.7918 51.6542 55.7918 52.1789 55.7918C52.3985 55.7918 52.3741 55.7796 52.3741 55.9993C52.3741 57.5611 52.3741 59.1107 52.3741 60.6725C52.3741 60.9287 52.3497 60.9043 52.606 60.9043C53.5699 60.9043 54.5338 60.9043 55.51 60.9043C55.5466 60.9043 55.5954 60.9043 55.632 60.9043C55.7052 60.9043 55.7296 60.8677 55.7296 60.8067C55.7296 60.7579 55.7296 60.7091 55.7296 60.6603C55.7296 59.1229 55.7296 57.5977 55.7296 56.0603C55.7296 56.0237 55.7296 55.987 55.7296 55.9504C55.7296 55.804 55.7296 55.7918 55.8882 55.7918C57.0718 55.7918 58.2676 55.7918 59.4511 55.7918C59.988 55.7918 60.5249 55.7918 61.0618 55.7918C61.2204 55.7918 61.2204 55.7918 61.2204 55.9504C61.2204 56.5361 61.2204 57.134 61.2204 57.7197C61.2204 57.8783 61.2204 57.8783 61.0618 57.8783C60.0246 57.8783 58.9875 57.8783 57.9503 57.8783C57.9015 57.8783 57.8527 57.8783 57.8039 57.8783C57.7307 57.8783 57.7063 57.9027 57.7063 57.9759C57.7063 58.0247 57.7063 58.0735 57.7063 58.1224C57.7063 59.733 57.7063 61.3558 57.7063 62.9664C57.7063 63.1983 57.7307 63.1739 57.4989 63.1739C55.2049 63.1739 52.911 63.1739 50.6049 63.1739C50.5927 63.1739 50.5805 63.1739 50.5683 63.1739C50.3731 63.1739 50.3975 63.1739 50.3975 63.003C50.3975 61.8317 50.3975 60.6481 50.3975 59.4767Z" fill="#1FAAC8"/>
<path d="M66.4906 63.1785C65.1118 63.1785 63.733 63.1785 62.3542 63.1785C62.1346 63.1785 62.159 63.1907 62.159 62.9955C62.159 62.361 62.159 61.7143 62.159 61.0798C62.159 60.8846 62.1468 60.8968 62.342 60.8968C64.4285 60.8968 66.5028 60.8968 68.5893 60.8968C68.8577 60.8968 68.8333 60.9212 68.8333 60.6649C68.8333 59.9084 68.8333 59.1641 68.8333 58.4076C68.8333 58.371 68.8333 58.3222 68.8333 58.2856C68.8211 58.2002 68.8699 58.1758 68.9432 58.1758C69.2238 58.1758 69.5044 58.1758 69.7851 58.1758C70.0901 58.1758 70.3952 58.1758 70.7002 58.1758C70.7978 58.1758 70.8222 58.2002 70.8222 58.2978C70.8222 58.4198 70.8222 58.554 70.8222 58.6761C70.8222 60.1037 70.8222 61.5313 70.8222 62.9467C70.8222 62.9955 70.8222 63.0443 70.8222 63.0931C70.8222 63.1541 70.7978 63.1907 70.7246 63.1907C70.6758 63.1907 70.627 63.1907 70.5782 63.1907C69.2238 63.1785 67.8572 63.1785 66.4906 63.1785Z" fill="#1FAAC8"/>
<path d="M30.5943 63.1907C29.2399 63.1907 27.8855 63.1907 26.5311 63.1907C26.4945 63.1907 26.4579 63.1907 26.4213 63.1907C26.2627 63.1907 26.2627 63.1907 26.2627 63.0321C26.2627 61.458 26.2627 59.8962 26.2627 58.3222C26.2627 58.1758 26.2627 58.1758 26.4091 58.1758C26.9582 58.1758 27.5195 58.1758 28.0686 58.1758C28.2394 58.1758 28.2394 58.1758 28.2394 58.3466C28.2394 59.1153 28.2394 59.884 28.2394 60.6527C28.2394 60.6893 28.2394 60.7381 28.2394 60.7747C28.2394 60.909 28.2394 60.909 28.3858 60.909C28.6664 60.909 28.9471 60.909 29.2277 60.909C31.0458 60.909 32.8516 60.909 34.6697 60.909C34.7063 60.909 34.7551 60.909 34.7917 60.909C34.9259 60.909 34.9259 60.909 34.9259 61.031C34.9259 61.7021 34.9259 62.3732 34.9259 63.0565C34.9259 63.1785 34.9259 63.1785 34.7795 63.1785C34.0474 63.1785 33.3275 63.1785 32.5954 63.1785C31.9243 63.1907 31.2654 63.1907 30.5943 63.1907Z" fill="#1FAAC8"/>
<path d="M31.5928 58.0298C31.5928 57.3587 31.5928 56.6876 31.5928 56.0043C31.5928 55.9555 31.5928 55.9067 31.5928 55.8579C31.5928 55.8091 31.6172 55.7969 31.6538 55.7969C31.6782 55.7969 31.7148 55.7969 31.7392 55.7969C32.2883 55.7969 32.8495 55.7969 33.3986 55.7969C33.5572 55.7969 33.5573 55.7969 33.5573 55.9555C33.5573 56.6144 33.5573 57.2855 33.5573 57.9444C33.5573 57.981 33.5573 58.0298 33.5573 58.0664C33.5573 58.1396 33.5817 58.1762 33.6671 58.1762C33.8989 58.1762 34.1185 58.1762 34.3504 58.1762C34.4968 58.1762 34.631 58.1762 34.7774 58.1762C34.9116 58.1762 34.9238 58.1762 34.9238 58.3104C34.9238 58.7009 34.9238 59.1035 34.9238 59.494C34.9238 59.7014 34.9238 59.9089 34.9238 60.1163C34.9238 60.2749 34.9238 60.2749 34.7652 60.2749C33.9599 60.2749 33.1546 60.2749 32.3493 60.2749C32.1419 60.2749 31.9466 60.2749 31.7392 60.2749C31.5928 60.2749 31.5928 60.2749 31.5928 60.1285C31.5928 59.5184 31.5928 58.9083 31.5928 58.2982C31.5928 58.2128 31.5928 58.1152 31.5928 58.0298Z" fill="#1FAAC8"/>
<path d="M65.4911 58.0376C65.4911 58.7087 65.4911 59.3798 65.4911 60.0631C65.4911 60.0997 65.4911 60.1485 65.4911 60.1851C65.4911 60.2461 65.4667 60.2705 65.4057 60.2705C65.3691 60.2705 65.3324 60.2705 65.2958 60.2705C64.3197 60.2705 63.3436 60.2705 62.3674 60.2705C62.343 60.2705 62.3064 60.2705 62.282 60.2705C62.1966 60.2827 62.16 60.2461 62.1722 60.1607C62.1722 60.0021 62.1722 59.8434 62.1722 59.6726C62.1722 59.2212 62.1722 58.7819 62.1722 58.3304C62.1722 58.1718 62.1722 58.1718 62.343 58.1718C62.6847 58.1718 63.0385 58.1718 63.3802 58.1718C63.5266 58.1718 63.5266 58.1718 63.5266 58.0254C63.5266 57.3665 63.5266 56.7076 63.5266 56.0365C63.5266 55.9999 63.5266 55.9511 63.5266 55.9145C63.5144 55.8291 63.5632 55.8047 63.6364 55.8047C63.8316 55.8047 64.0147 55.8047 64.2099 55.8047C64.5881 55.8047 64.9786 55.8047 65.3569 55.8047C65.5033 55.8047 65.5033 55.8047 65.5033 55.9511C65.4911 56.6344 65.4911 57.3299 65.4911 58.0376Z" fill="#1FAAC8"/>
<path d="M47.3691 47.5094C47.3691 47.1433 47.4668 46.8261 47.6986 46.5698C48.1989 46.0086 49.0652 46.0696 49.48 46.7041C49.8095 47.1921 49.7729 47.8754 49.419 48.3513C48.9798 48.937 48.089 48.9492 47.6376 48.3391C47.4546 48.0951 47.3691 47.8022 47.3691 47.5094Z" fill="#1FAAC8"/>
<path d="M44.1852 57.4686C44.173 57.7858 44.0632 58.1031 43.8314 58.3715C43.3921 58.8474 42.721 58.8474 42.2818 58.3837C41.8181 57.8956 41.7937 57.0415 42.2452 56.529C42.721 55.98 43.502 56.0044 43.929 56.6023C44.0998 56.8341 44.1974 57.1391 44.1852 57.4686Z" fill="#1FAAC8"/>
<path d="M59.2918 60.9297C58.8404 60.9297 58.5841 60.7955 58.3767 60.5637C57.9496 60.0878 57.913 59.3313 58.2913 58.8066C58.7672 58.16 59.6579 58.1844 60.0849 58.8677C60.39 59.3557 60.3656 60.0146 60.0239 60.4783C59.8043 60.7711 59.5237 60.9297 59.2918 60.9297Z" fill="#1FAAC8"/>
<path d="M37.2912 67.2142C37.5596 67.202 37.7793 67.2996 37.9745 67.4582C38.609 67.9951 38.5846 69.0933 37.9135 69.5935C37.5352 69.8742 37.0594 69.8742 36.6811 69.5935C35.9856 69.0811 35.9978 67.9341 36.6811 67.4216C36.8641 67.2752 37.0716 67.202 37.2912 67.2142Z" fill="#1FAAC8"/>
<path d="M62.7082 67.2012C62.9766 67.2012 63.2084 67.2988 63.4037 67.4696C63.9893 68.0065 63.9771 69.0192 63.367 69.5317C63.001 69.8489 62.4885 69.8611 62.0981 69.5805C61.4026 69.068 61.3904 67.9089 62.0859 67.3964C62.2811 67.2622 62.4763 67.2012 62.7082 67.2012Z" fill="#1FAAC8"/>
<path d="M69.6998 63.9941C70.0415 63.9941 70.3221 64.1528 70.5295 64.409C70.9322 64.9093 70.9322 65.6536 70.5295 66.1538C70.1147 66.6907 69.3948 66.7273 68.9189 66.2393C68.3942 65.6902 68.4308 64.7384 69.0165 64.2382C69.2117 64.0796 69.4436 63.9941 69.6998 63.9941Z" fill="#1FAAC8"/>
<path d="M36.4131 63.1914C36.0715 63.1914 35.8152 63.0572 35.62 62.8375C35.1197 62.3007 35.1564 61.3855 35.6932 60.8853C36.1081 60.507 36.6938 60.507 37.0964 60.8853C37.7187 61.4465 37.6577 62.5325 36.9866 62.9961C36.8036 63.1304 36.5962 63.2036 36.4131 63.1914Z" fill="#1FAAC8"/>
<path d="M60.926 68.499C60.926 68.8773 60.804 69.2067 60.5355 69.4874C60.1085 69.9144 59.474 69.9022 59.0469 69.4752C58.5344 68.9505 58.5344 68.0354 59.0591 67.5229C59.4984 67.0958 60.1695 67.108 60.5843 67.5717C60.804 67.8279 60.926 68.133 60.926 68.499Z" fill="#1FAAC8"/>
<path d="M39.061 59.8052C39.061 60.0737 38.9146 60.4275 38.5729 60.7081C38.1947 61.001 37.6944 61.0132 37.3162 60.7203C36.6573 60.2323 36.6329 59.1219 37.2552 58.5972C37.731 58.1946 38.3899 58.2678 38.7804 58.7681C38.9634 59.0243 39.061 59.3049 39.061 59.8052Z" fill="#1FAAC8"/>
<path d="M55.1679 57.2707C55.1557 57.8564 55.0092 58.2224 54.6798 58.4909C54.3015 58.7959 53.7891 58.7959 53.4108 58.5031C52.7641 58.015 52.7397 56.9169 53.362 56.3922C53.8501 55.9895 54.5212 56.0627 54.8994 56.5874C55.0825 56.8192 55.1679 57.1121 55.1679 57.2707Z" fill="#1FAAC8"/>
<path d="M35.5093 68.5189C35.5093 68.885 35.3873 69.2144 35.1311 69.4707C34.704 69.9099 34.0451 69.9099 33.6181 69.4707C33.1056 68.946 33.1178 68.0309 33.6425 67.5184C34.0573 67.1157 34.6674 67.1157 35.0945 67.5062C35.3751 67.7624 35.5093 68.1041 35.5093 68.5189Z" fill="#1FAAC8"/>
<path d="M28.5297 65.2281C28.5175 65.6674 28.4199 65.9724 28.188 66.2165C27.7244 66.7411 26.9801 66.7045 26.5408 66.1554C26.1503 65.6552 26.1625 64.8865 26.5774 64.3984C27.0289 63.8493 27.8098 63.8737 28.249 64.435C28.4443 64.6912 28.5419 64.9963 28.5297 65.2281Z" fill="#1FAAC8"/>
<path d="M61.8181 61.8858C61.8181 62.2763 61.6961 62.6057 61.4154 62.8864C61.0006 63.2768 60.4027 63.289 59.9756 62.8986C59.4144 62.3861 59.4144 61.3977 59.9756 60.8853C60.4637 60.4338 61.1958 60.5314 61.5863 61.1049C61.7449 61.3245 61.8181 61.593 61.8181 61.8858Z" fill="#1FAAC8"/>
<path d="M30.9103 59.2251C30.9103 59.518 30.9103 59.823 30.9103 60.1159C30.9103 60.2623 30.9103 60.2745 30.7638 60.2745C30.1904 60.2745 29.6169 60.2745 29.0434 60.2745C28.9214 60.2745 28.9092 60.2745 28.9092 60.1403C28.9092 59.5302 28.9092 58.9079 28.9092 58.2978C28.9092 58.1758 28.9092 58.1758 29.0434 58.1758C29.6169 58.1758 30.1904 58.1758 30.7638 58.1758C30.8981 58.1758 30.8981 58.1758 30.8981 58.31C30.9225 58.615 30.9103 58.9201 30.9103 59.2251Z" fill="#1FAAC8"/>
<path d="M66.1743 59.2251C66.1743 58.9201 66.1743 58.6028 66.1743 58.2978C66.1743 58.2002 66.2109 58.1758 66.2963 58.1758C66.8698 58.1758 67.4555 58.1758 68.029 58.1758C68.1266 58.1758 68.151 58.2124 68.151 58.2978C68.151 58.9079 68.151 59.5302 68.151 60.1403C68.151 60.2623 68.151 60.2745 68.0168 60.2745C67.4433 60.2745 66.8698 60.2745 66.2963 60.2745C66.1743 60.2745 66.1743 60.2745 66.1621 60.1403C66.1743 59.823 66.1743 59.5302 66.1743 59.2251Z" fill="#1FAAC8"/>
<path d="M95.9207 46.3872C95.3716 46.6312 92.431 46.6312 92.0283 46.4482C92.0771 46.2774 92.2357 46.3262 92.3456 46.314C92.9556 46.2285 93.1387 46.0699 93.2485 45.4598C93.3949 44.6911 93.5047 43.9102 93.6267 43.1293C94.0294 40.4205 94.4321 37.724 94.8469 35.0152C94.8835 34.7833 94.8713 34.4539 95.152 34.4173C95.4204 34.3807 95.5058 34.7101 95.6034 34.9176C96.8968 37.5897 98.1902 40.2741 99.4836 42.9463C99.5812 43.1537 99.6422 43.3977 99.8496 43.5686C100.057 43.3977 100.106 43.1659 100.203 42.9585C101.46 40.3351 102.705 37.6995 103.949 35.0762C104.035 34.8932 104.12 34.7223 104.218 34.5515C104.279 34.4539 104.364 34.3685 104.486 34.3929C104.596 34.4173 104.669 34.5271 104.682 34.6369C104.767 35.1494 104.865 35.6741 104.938 36.1865C105.353 39.0051 105.755 41.8115 106.17 44.6301C106.195 44.8009 106.231 44.9718 106.268 45.1426C106.451 46.0089 107.085 46.4238 107.952 46.2652C108.318 46.1919 108.598 45.9967 108.781 45.6795C108.915 45.4354 109.038 45.167 109.147 44.9108C110.282 42.263 111.417 39.603 112.564 36.9552C112.649 36.76 112.735 36.5526 112.844 36.3696C113.003 36.1255 113.198 36.1377 113.357 36.3818C113.479 36.5648 113.552 36.7722 113.638 36.9674C114.687 39.42 115.736 41.8725 116.786 44.3251C116.92 44.6301 117.054 44.923 117.188 45.2158C117.493 45.8381 117.896 46.3262 118.677 46.3018C118.726 46.3018 118.787 46.3628 118.982 46.4848C117.664 46.6312 116.481 46.5458 115.114 46.5214C115.504 46.2163 115.529 45.9845 115.395 45.6795C115.102 45.0206 114.833 44.3495 114.589 43.6662C114.467 43.3245 114.296 43.1781 113.93 43.1903C113.101 43.2147 112.271 43.2147 111.429 43.1903C111.087 43.1781 110.917 43.3001 110.807 43.6174C110.624 44.1298 110.404 44.6301 110.197 45.1426C110.136 45.289 110.099 45.4354 110.062 45.5819C109.965 46.1065 110.026 46.2041 110.538 46.2773C110.648 46.2896 110.758 46.3018 110.856 46.3262C110.868 46.3262 110.88 46.3506 110.904 46.375C110.917 46.5824 110.758 46.558 110.636 46.558C108.647 46.497 106.646 46.6434 104.657 46.4604C104.523 46.4482 104.389 46.4482 104.267 46.4116C104.145 46.375 104.084 46.2773 104.193 46.1675C104.45 45.9235 104.364 45.6551 104.328 45.3744C104.047 43.2513 103.766 41.1282 103.474 38.9929C103.461 38.8831 103.449 38.7733 103.339 38.6879C103.132 38.8343 103.083 39.0783 102.985 39.2858C101.961 41.4089 100.948 43.5442 99.9228 45.6795C99.7764 45.9845 99.6788 46.3384 99.2883 46.5824C97.8119 44.081 96.6772 41.4455 95.4326 38.8465C95.2496 38.9319 95.2618 39.0661 95.2496 39.1882C94.9933 41.1648 94.7371 43.1415 94.4809 45.1182C94.4565 45.2646 94.4565 45.4232 94.4565 45.5819C94.4443 45.9113 94.6029 46.1187 94.9323 46.1797C95.2252 46.2651 95.5058 46.3018 95.9207 46.3872ZM114.089 42.4704C113.638 41.2624 113.223 40.1277 112.698 38.8831C112.198 40.1521 111.758 41.2869 111.295 42.4704C112.247 42.4704 113.113 42.4704 114.089 42.4704Z" fill="#222121"/>
<path d="M178.417 46.4256C178.027 46.6331 175.721 46.6697 174.83 46.4622C175.16 46.2426 175.123 45.9986 175.001 45.6935C174.708 45.0102 174.44 44.3147 174.171 43.6192C174.061 43.3386 173.915 43.2044 173.598 43.2166C172.719 43.241 171.841 43.2288 170.974 43.2166C170.73 43.2166 170.56 43.2898 170.462 43.5338C170.218 44.1683 169.962 44.7906 169.718 45.4251C169.681 45.5105 169.669 45.5959 169.644 45.6813C169.571 46.1206 169.669 46.2426 170.084 46.3158C170.23 46.3402 170.389 46.2914 170.511 46.389C170.535 46.6209 170.364 46.5964 170.254 46.5964C169.205 46.5964 168.156 46.6086 167.106 46.5964C166.326 46.5842 165.667 46.2792 165.13 45.7179C164.507 45.0712 163.995 44.3269 163.47 43.607C163.092 43.0946 162.738 42.5699 162.372 42.0574C162.226 41.85 162.055 41.7158 161.774 41.7402C161.359 41.7646 160.847 41.5571 160.554 41.789C160.249 42.033 160.457 42.5699 160.444 42.9725C160.432 43.7779 160.396 44.5954 160.518 45.4007C160.627 46.1206 160.701 46.1938 161.408 46.3036C161.616 46.3402 161.848 46.2548 162.043 46.4378C162.006 46.4866 161.97 46.5842 161.933 46.5842C160.444 46.5964 158.956 46.5964 157.467 46.6086C157.37 46.6086 157.308 46.5476 157.296 46.45C157.418 46.2792 157.614 46.3524 157.772 46.328C158.272 46.2304 158.394 46.1328 158.468 45.6081C158.529 45.1688 158.577 44.7418 158.577 44.3025C158.59 41.6914 158.59 39.0924 158.59 36.4812C158.59 36.4568 158.59 36.4324 158.59 36.4202C158.565 35.2855 158.455 35.1634 157.321 35.0536C157.211 35.0414 157.101 35.0536 157.064 34.9072C157.162 34.6998 157.357 34.7852 157.516 34.773C159.029 34.773 160.542 34.773 162.043 34.773C162.482 34.773 162.909 34.8218 163.348 34.9072C165.374 35.3221 166.033 37.1523 165.447 38.7751C165.24 39.3608 164.886 39.8611 164.446 40.3004C164.239 40.52 164.007 40.7274 163.775 40.9349C163.617 41.0691 163.629 41.1789 163.751 41.3131C164.874 42.6919 165.886 44.1561 167.167 45.3885C168.156 46.3402 168.192 46.2426 168.705 45.0712C169.888 42.3503 171.048 39.6049 172.231 36.8717C172.341 36.6277 172.378 36.2494 172.719 36.2494C173.061 36.2494 173.098 36.6398 173.195 36.8839C174.293 39.434 175.379 41.9964 176.477 44.5466C176.624 44.8882 176.795 45.2177 176.965 45.5471C177.222 46.023 177.588 46.328 178.161 46.3402C178.247 46.3402 178.32 46.3768 178.405 46.4134C178.393 46.3768 178.405 46.4134 178.417 46.4256ZM160.42 38.1773C160.42 38.8728 160.42 39.5805 160.42 40.276C160.42 40.3004 160.42 40.3248 160.42 40.337C160.383 40.6542 160.518 40.8128 160.847 40.8738C161.152 40.9349 161.457 40.9349 161.762 40.9471C162.775 41.0203 163.275 40.459 163.556 39.7147C163.873 38.8728 163.885 38.0064 163.605 37.1401C163.214 35.9322 162.079 35.2611 160.835 35.4807C160.554 35.5295 160.42 35.6271 160.432 35.9444C160.432 36.6887 160.42 37.433 160.42 38.1773ZM172.304 38.8606C171.816 40.1295 171.316 41.2643 170.913 42.4845C171.865 42.4845 172.731 42.4845 173.598 42.4845C173.647 42.3747 173.622 42.3014 173.598 42.216C173.171 41.1423 172.756 40.0685 172.304 38.8606Z" fill="#222121"/>
<path d="M255.106 46.4377C255.179 46.2425 255.362 46.3279 255.496 46.2913C255.984 46.1937 256.082 46.1327 256.155 45.6202C256.204 45.3152 256.216 45.0101 256.216 44.7051C256.228 42.4478 256.228 40.1905 256.228 37.9454C256.228 36.9814 256.118 36.8594 255.167 36.7496C255.081 36.7374 254.984 36.7618 254.923 36.6642C254.898 36.5178 254.996 36.4811 255.106 36.4811C256.424 36.4811 257.729 36.4811 259.047 36.4811C259.144 36.4811 259.206 36.53 259.23 36.6398C259.132 36.7984 258.961 36.7374 258.815 36.7618C258.266 36.8838 258.144 36.957 258.12 37.5427C258.083 38.531 258.095 39.5072 258.071 40.4955C258.059 40.8372 258.278 40.8128 258.51 40.8128C259.535 40.8128 260.572 40.8128 261.597 40.8128C262.097 40.8128 262.61 40.8006 263.11 40.8128C263.354 40.8128 263.464 40.7273 263.452 40.4711C263.44 39.5072 263.452 38.5432 263.427 37.5793C263.415 37.0546 263.244 36.8838 262.744 36.774C262.634 36.7496 262.524 36.7496 262.415 36.7374C262.305 36.7252 262.195 36.7496 262.122 36.6276C262.415 36.4445 262.415 36.4567 263.537 36.4689C264.013 36.4811 264.501 36.4689 264.977 36.4811C265.465 36.4933 265.953 36.4079 266.478 36.5178C266.356 36.7984 266.148 36.713 266.002 36.7496C265.489 36.8716 265.392 36.957 265.331 37.4939C265.306 37.6647 265.306 37.8477 265.306 38.0186C265.306 40.2271 265.306 42.4356 265.306 44.6563C265.306 44.9125 265.319 45.181 265.355 45.4372C265.441 46.0961 265.55 46.1815 266.221 46.2669C266.405 46.2913 266.624 46.2059 266.844 46.4621C266.319 46.6452 265.831 46.5354 265.355 46.5476C264.831 46.5598 264.306 46.5476 263.781 46.5476C263.293 46.5476 262.793 46.6086 262.219 46.5232C262.402 46.2303 262.61 46.3035 262.781 46.2791C263.098 46.2303 263.293 46.0717 263.33 45.73C263.354 45.5104 263.403 45.2908 263.403 45.0834C263.415 44.0706 263.403 43.0701 263.439 42.0573C263.452 41.7035 263.317 41.6059 262.988 41.6181C261.499 41.6303 260.011 41.6303 258.522 41.6181C258.181 41.6181 258.046 41.7035 258.059 42.0695C258.095 43.1799 258.022 44.3024 258.144 45.4128C258.217 46.1083 258.315 46.2059 259.035 46.2913C259.206 46.3157 259.389 46.2547 259.535 46.3767C259.559 46.5232 259.462 46.572 259.352 46.572C257.998 46.572 256.643 46.572 255.277 46.572C255.203 46.5842 255.142 46.5354 255.106 46.4377Z" fill="#222121"/>
<path d="M178.82 46.4485C178.942 46.2289 179.137 46.3143 179.296 46.2899C179.65 46.2289 179.845 46.0337 179.87 45.6798C179.906 45.2039 179.955 44.7159 179.955 44.24C179.967 42.1779 179.967 40.128 179.955 38.0659C179.955 37.1142 179.931 36.8336 178.796 36.7482C178.735 36.7482 178.674 36.6994 178.625 36.6871C178.625 36.4797 178.784 36.4919 178.906 36.4919C181.053 36.5895 183.201 36.3577 185.336 36.5895C185.836 36.6383 186.336 36.736 186.812 36.9068C189.204 37.6999 190.107 39.7742 189.936 41.8119C189.692 44.5084 187.935 46.2533 185.202 46.6071C184.372 46.717 183.542 46.7292 182.713 46.6559C181.639 46.5583 180.565 46.5461 179.491 46.5827C179.259 46.5827 179.003 46.6681 178.82 46.4485ZM184.043 45.9971C184.335 45.9726 184.592 45.9604 184.86 45.9238C186.495 45.7164 187.63 44.6305 187.874 43.0198C187.984 42.3243 188.008 41.6288 187.91 40.9333C187.691 39.4569 186.959 38.3832 185.604 37.7365C184.616 37.2606 183.554 37.1386 182.481 37.2118C181.846 37.2484 181.834 37.285 181.834 37.9195C181.834 40.0426 181.834 42.1535 181.846 44.2766C181.846 44.4718 181.858 44.6671 181.871 44.8623C181.919 45.4724 182.066 45.6554 182.664 45.8384C183.115 45.9971 183.591 45.9971 184.043 45.9971Z" fill="#222121"/>
<path d="M139.434 46.4577C139.532 46.2258 139.739 46.3234 139.885 46.299C140.239 46.238 140.447 46.0672 140.471 45.7011C140.496 45.2863 140.557 44.8714 140.557 44.4566C140.569 42.3091 140.569 40.1738 140.569 38.0263C140.569 36.9769 140.483 36.8915 139.446 36.7573C139.361 36.7451 139.275 36.7329 139.227 36.6475C139.275 36.4889 139.41 36.4767 139.544 36.4889C141.667 36.5865 143.79 36.3546 145.901 36.5987C146.267 36.6353 146.645 36.6963 146.999 36.7817C149.061 37.3064 150.294 38.6974 150.538 40.8327C150.757 42.7483 149.891 44.8958 148.036 45.872C146.718 46.5675 145.303 46.7749 143.839 46.6773C142.545 46.5919 141.264 46.5309 139.971 46.5797C139.788 46.5797 139.568 46.6651 139.434 46.4577ZM142.423 41.1743C142.436 41.1743 142.436 41.1743 142.448 41.1743C142.448 42.3579 142.423 43.5292 142.46 44.7128C142.484 45.5303 142.741 45.7866 143.546 45.9208C144.266 46.0428 144.986 46.0306 145.693 45.8842C147.121 45.5913 148.097 44.7738 148.427 43.3096C148.561 42.6873 148.622 42.0528 148.573 41.4183C148.439 39.7223 147.719 38.4045 146.108 37.6846C145.108 37.2332 144.046 37.1233 142.972 37.221C142.448 37.2698 142.436 37.2942 142.423 37.831C142.411 38.9414 142.423 40.064 142.423 41.1743Z" fill="#222121"/>
<path d="M216.476 62.1898C215.646 62.263 214.816 62.2264 213.901 62.1776C214.023 61.9213 214.072 61.7139 213.962 61.4821C213.633 60.7256 213.315 59.9446 213.023 59.1759C212.925 58.9075 212.791 58.7977 212.498 58.8099C211.729 58.8343 210.96 58.8343 210.204 58.8099C209.874 58.7977 209.74 58.9319 209.655 59.2247C209.472 59.8104 209.228 60.3717 209.033 60.9574C208.764 61.7505 208.776 61.7993 209.447 62.1409C209.447 62.1898 209.423 62.2264 209.374 62.2264C208.435 62.2264 207.495 62.2386 206.556 62.2264C205.836 62.2142 205.274 61.8603 204.811 61.3112C204.115 60.4937 203.444 59.6518 202.834 58.7733C202.59 58.4316 202.322 58.273 201.907 58.3096C201.602 58.334 201.297 58.3218 200.992 58.2974C200.76 58.2852 200.687 58.395 200.687 58.6147C200.699 59.4932 200.662 60.3717 200.76 61.238C200.833 61.8481 200.894 61.9091 201.528 61.9945C201.638 62.0067 201.748 61.9823 201.821 62.0921C201.748 62.141 201.846 62.0799 201.821 62.1532C201.821 62.1654 201.809 62.1898 201.797 62.202C201.76 62.2142 201.712 62.2264 201.675 62.2386C200.723 62.2386 199.759 62.2386 198.795 62.2386C198.808 62.1531 198.808 62.0799 198.82 62.0799C199.381 62.0433 199.515 61.6529 199.552 61.1892C199.564 60.933 199.588 60.6645 199.588 60.4083C199.588 58.4438 199.588 56.4672 199.601 54.5027C199.601 54.3685 199.601 54.2342 199.588 54.1122C199.54 53.4167 199.479 53.3435 198.795 53.2337C198.71 53.2215 198.624 53.2093 198.563 53.1361C198.624 53.0629 198.698 53.0385 198.795 53.0385C200.04 53.0507 201.284 53.0629 202.541 53.0629C202.846 53.0629 203.151 53.1239 203.444 53.2215C204.591 53.5754 205.226 54.6735 204.945 55.8449C204.774 56.5526 204.408 57.126 203.883 57.6263C203.761 57.7483 203.627 57.8582 203.456 58.0046C204.457 59.2247 205.348 60.4815 206.482 61.5187C207.276 62.2386 207.715 62.1287 208.154 61.1282C208.532 60.2619 208.85 59.3834 209.191 58.5048C209.85 56.8088 210.497 55.125 211.168 53.4289C211.253 53.2093 211.278 52.9531 211.546 52.8066C211.79 53.0141 211.863 53.3191 211.973 53.5876C212.888 55.8083 213.791 58.0412 214.694 60.2619C214.804 60.5303 214.914 60.7866 215.036 61.0428C215.304 61.6041 215.67 62.0433 216.366 62.0433C216.402 62.0067 216.463 62.0433 216.476 62.1898ZM200.662 55.6008C200.662 56.1743 200.674 56.7356 200.662 57.3091C200.662 57.6019 200.772 57.7361 201.065 57.7971C201.48 57.8704 201.882 57.8948 202.309 57.8948C202.956 57.8948 203.395 57.5653 203.627 56.9918C203.92 56.2597 203.92 55.491 203.664 54.7467C203.408 53.978 202.846 53.5754 202.065 53.4655C201.748 53.4167 201.406 53.4533 201.077 53.4533C200.784 53.4533 200.65 53.5998 200.65 53.9048C200.674 54.4539 200.662 55.0274 200.662 55.6008ZM212.656 58.273C212.205 57.065 211.815 55.9181 211.217 54.8077C210.814 55.9547 210.424 57.0894 210.009 58.273C210.899 58.273 211.729 58.273 212.656 58.273Z" fill="#222121"/>
<path d="M202.234 39.4549C202.234 39.8453 202.222 40.2358 202.234 40.6141C202.271 41.9928 202.32 43.3716 202.356 44.7504C202.356 44.8114 202.356 44.8846 202.369 44.9457C202.442 46.0438 202.515 46.1292 203.601 46.3123C203.662 46.3245 203.699 46.3733 203.747 46.4099C203.723 46.4953 203.699 46.5563 203.625 46.5563C202.466 46.5685 201.307 46.5685 200.148 46.5807C200.062 46.5807 199.977 46.5563 199.94 46.4343C200.05 46.2146 200.282 46.3245 200.453 46.2878C200.929 46.1902 201.039 46.1048 201.112 45.6168C201.148 45.3849 201.148 45.1409 201.148 44.8969C201.197 42.2735 201.234 39.6379 201.283 37.0145C201.283 36.7705 201.173 36.4167 201.478 36.3191C201.758 36.2214 201.929 36.5387 202.112 36.7095C204.309 38.9058 206.505 41.1143 208.701 43.3228C208.884 43.5059 209.067 43.6767 209.226 43.8353C209.397 43.7865 209.372 43.6889 209.372 43.6035C209.336 41.8464 209.299 40.1016 209.25 38.3445C209.25 38.2591 209.25 38.1737 209.238 38.0761C209.177 36.9291 209.153 36.9047 208.018 36.7461C207.945 36.7339 207.908 36.7095 207.884 36.6363C208.25 36.4655 210.91 36.4289 211.544 36.5997C211.495 36.8071 211.312 36.7461 211.19 36.7705C210.641 36.8803 210.532 37.0023 210.471 37.5392C210.446 37.7589 210.446 37.9785 210.434 38.1981C210.385 40.7361 210.336 43.274 210.287 45.812C210.287 45.9462 210.287 46.0804 210.275 46.2024C210.251 46.3855 210.312 46.6295 210.068 46.7027C209.86 46.7637 209.69 46.6295 209.543 46.4953C209.421 46.3977 209.311 46.2878 209.202 46.178C206.981 44.0671 204.736 41.9684 202.649 39.7233C202.552 39.6135 202.466 39.4793 202.381 39.3573C202.332 39.3939 202.283 39.4305 202.234 39.4549Z" fill="#222121"/>
<path d="M141.203 62.1882C140.178 62.1882 139.165 62.1882 138.164 62.1882C138.14 62.0174 138.25 62.0052 138.323 62.0052C138.714 61.993 138.848 61.749 138.872 61.4073C138.909 60.968 138.958 60.5288 138.958 60.1017C138.97 58.2593 138.97 56.429 138.97 54.5866C138.97 54.5255 138.97 54.4523 138.97 54.3913C138.933 53.3664 138.921 53.3542 137.957 53.1345C137.981 53.0735 138.006 53.0247 138.091 53.0247C139.385 53.0369 140.678 53.0369 141.959 53.0491C142.313 53.0491 142.655 53.1345 142.984 53.2688C144.021 53.6836 144.534 54.6598 144.314 55.7457C144.192 56.3436 143.924 56.8561 143.521 57.3075C143.314 57.5272 143.082 57.7224 142.813 57.9786C143.826 59.211 144.729 60.4678 145.876 61.5293C146.23 61.8588 146.669 62.054 147.23 61.9808C147.169 61.3585 147.267 60.7728 147.304 60.1749C147.511 60.1993 147.511 60.3214 147.523 60.419C147.657 61.2487 148.072 61.6879 148.902 61.8466C149.268 61.9076 149.646 61.9198 150.012 61.871C151.245 61.7001 151.843 60.3702 151.123 59.333C150.952 59.0768 150.72 58.8693 150.476 58.6863C149.976 58.2959 149.463 57.9176 148.963 57.5272C148.548 57.1977 148.158 56.8561 147.865 56.4168C146.998 55.1234 147.487 53.5982 148.951 53.0491C149.939 52.6831 150.927 52.8539 151.928 53.0491C152.099 53.0857 152.123 53.1956 152.111 53.3298C152.074 53.7568 152.05 54.1961 152.013 54.6232C151.806 54.6354 151.83 54.4889 151.818 54.4035C151.708 53.7934 151.294 53.525 150.744 53.403C150.269 53.3054 149.793 53.281 149.317 53.4396C148.365 53.7568 148.036 54.6964 148.609 55.5383C148.853 55.8921 149.183 56.1484 149.512 56.3802C149.939 56.6852 150.378 56.9781 150.793 57.2831C151.232 57.6126 151.635 57.9786 151.952 58.4423C152.965 59.9553 152.184 61.8954 150.403 62.2858C149.768 62.42 149.122 62.4811 148.512 62.3468C147.755 62.1882 147.011 62.237 146.266 62.2492C145.363 62.2736 144.644 61.9564 144.094 61.2487C143.448 60.419 142.789 59.6137 142.154 58.7595C141.923 58.4423 141.679 58.2837 141.288 58.3203C140.898 58.3569 140.397 58.1494 140.141 58.3813C139.848 58.6497 140.056 59.1622 140.044 59.577C140.019 60.0529 140.031 60.541 140.056 61.0168C140.092 61.81 140.166 61.8832 140.959 62.0052C141.068 62.0052 141.154 62.0052 141.203 62.1882ZM140.056 55.5871C140.056 56.1362 140.056 56.6852 140.056 57.2221C140.056 57.2465 140.056 57.2709 140.056 57.2831C140.031 57.5638 140.129 57.7224 140.434 57.7712C140.824 57.8322 141.215 57.881 141.605 57.8688C142.35 57.8444 142.801 57.5394 143.045 56.8439C143.301 56.1118 143.289 55.3797 143.021 54.6598C142.74 53.9155 142.167 53.5128 141.386 53.4274C141.081 53.3908 140.776 53.4274 140.471 53.4274C140.178 53.4274 140.044 53.5616 140.044 53.8666C140.068 54.4523 140.056 55.0258 140.056 55.5871Z" fill="#222121"/>
<path d="M218.379 46.4369C218.428 46.266 218.586 46.327 218.708 46.3026C219.416 46.1928 219.489 46.1196 219.575 45.3997C219.611 45.0337 219.66 44.6554 219.66 44.2893C219.672 41.666 219.66 39.0426 219.672 36.407C219.672 36.346 219.672 36.2728 219.672 36.2118C219.623 35.2601 219.465 35.1015 218.501 35.016C218.391 35.0038 218.293 34.9794 218.184 34.955C218.171 34.955 218.171 34.9184 218.159 34.894C218.171 34.6988 218.33 34.7476 218.452 34.7476C220.16 34.7476 221.868 34.7476 223.577 34.7598C224.089 34.7598 224.577 34.8818 225.041 35.0771C226.09 35.5285 226.639 36.3582 226.664 37.4808C226.7 39.4697 225.309 41.2755 222.784 41.2877C222.625 41.2877 222.43 41.3243 222.332 41.1169C222.369 40.9827 222.479 40.9583 222.588 40.9461C223.796 40.7753 224.541 40.1042 224.773 38.945C224.919 38.2251 224.846 37.5052 224.516 36.8341C224.065 35.8824 223.162 35.3577 222.125 35.4187C221.661 35.4431 221.612 35.4797 221.612 35.9678C221.6 36.6023 221.612 37.2368 221.612 37.8712C221.624 40.1286 221.637 42.3737 221.649 44.631C221.649 44.7652 221.661 44.8994 221.661 45.0215C221.71 46.0952 221.807 46.1928 222.893 46.2904C223.04 46.3026 223.211 46.2538 223.333 46.4613C223.284 46.4857 223.235 46.5589 223.186 46.5589C221.661 46.5711 220.124 46.5711 218.598 46.5711C218.476 46.5833 218.403 46.5345 218.379 46.4369Z" fill="#222121"/>
<path d="M219.024 53.0855C218.28 53.3539 218.255 53.3662 218.487 54.1959C219.024 56.1603 219.585 58.1126 220.134 60.0649C220.147 60.1259 220.195 60.1747 220.244 60.2723C220.378 60.1381 220.415 59.9795 220.476 59.8331C221.257 57.8198 222.038 55.7943 222.819 53.781C222.916 53.5248 222.965 53.2319 223.221 53.0367C223.502 53.2197 223.539 53.5126 223.636 53.7688C224.368 55.7577 225.088 57.7466 225.808 59.7476C225.869 59.9307 225.918 60.1259 226.04 60.2723C226.199 60.1747 226.211 60.0161 226.26 59.8697C226.821 58.076 227.382 56.2824 227.931 54.4887C227.968 54.3667 228.004 54.2325 228.041 54.1105C228.212 53.415 228.139 53.3051 227.431 53.1221C227.76 52.9635 229.31 52.9391 230.054 53.0855C229.713 53.2441 229.322 53.2075 229.127 53.537C228.956 53.8176 228.834 54.1227 228.724 54.4277C228.029 56.4776 227.333 58.5275 226.638 60.5652C226.467 61.0776 226.26 61.5901 226.064 62.1026C226.028 62.2002 225.979 62.31 225.857 62.3344C225.698 62.3588 225.625 62.2246 225.576 62.1026C225.491 61.9073 225.406 61.6999 225.332 61.4925C224.637 59.6134 223.941 57.7222 223.246 55.8431C223.173 55.6479 223.136 55.4282 222.929 55.1964C222.855 55.3794 222.782 55.5137 222.721 55.6601C221.952 57.6367 221.196 59.6134 220.415 61.5901C220.305 61.8585 220.269 62.31 219.951 62.31C219.573 62.2978 219.573 61.8341 219.488 61.5413C218.756 59.2108 218.036 56.868 217.316 54.5375C216.962 53.3906 216.962 53.3906 215.9 53.0977C216.291 52.9757 218.548 52.9635 219.024 53.0855Z" fill="#222121"/>
<path d="M236.863 46.4255C236.436 46.6451 233.911 46.6573 233.252 46.4133C233.593 46.2668 233.581 46.0472 233.471 45.7788C233.166 45.0467 232.873 44.3268 232.593 43.5825C232.495 43.314 232.337 43.2042 232.056 43.2164C231.177 43.2286 230.311 43.2286 229.433 43.2164C229.164 43.2164 228.981 43.2774 228.883 43.5581C228.676 44.1315 228.42 44.6928 228.2 45.2663C227.907 46.0594 227.993 46.1936 228.81 46.3279C228.871 46.3401 228.92 46.3889 228.969 46.4133C228.944 46.5719 228.835 46.5841 228.725 46.5841C227.724 46.5841 226.712 46.5841 225.711 46.5841C225.601 46.5841 225.467 46.5963 225.455 46.4499C225.443 46.3034 225.589 46.3034 225.687 46.3034C226.443 46.3156 226.797 45.8276 227.065 45.1931C228.225 42.4599 229.408 39.7267 230.58 37.0057C230.714 36.7007 230.726 36.2126 231.153 36.2248C231.519 36.237 231.556 36.7007 231.678 36.9813C232.764 39.5071 233.85 42.045 234.923 44.5708C235.021 44.7904 235.119 45.0101 235.216 45.2297C235.521 45.852 235.924 46.3401 236.705 46.3156C236.741 46.3156 236.778 46.3523 236.815 46.3767C236.839 46.3889 236.851 46.4133 236.863 46.4255ZM230.811 39.019C230.238 40.1538 229.75 41.2641 229.347 42.4599C230.287 42.4599 231.153 42.4599 232.117 42.4599C231.665 41.2885 231.238 40.1538 230.811 39.019Z" fill="#222121"/>
<path d="M254.727 46.4377C254.166 46.6451 251.738 46.6329 251.079 46.4133C251.457 46.2303 251.384 45.9862 251.262 45.7056C250.969 45.0223 250.689 44.3268 250.445 43.6313C250.335 43.3141 250.152 43.192 249.81 43.2043C248.98 43.2165 248.151 43.2165 247.309 43.2043C246.979 43.192 246.784 43.2775 246.662 43.6191C246.442 44.2414 246.162 44.8271 245.954 45.4494C245.747 46.0961 245.832 46.2059 246.503 46.3035C246.601 46.3157 246.723 46.2913 246.76 46.4377C246.394 46.6329 243.612 46.6329 243.233 46.4377C243.319 46.2547 243.49 46.3157 243.636 46.3035C244.149 46.2669 244.49 45.9862 244.71 45.547C244.82 45.3273 244.917 45.1077 245.003 44.8881C246.15 42.2159 247.297 39.5437 248.444 36.8716C248.553 36.6275 248.59 36.2371 248.919 36.2249C249.31 36.2127 249.334 36.6275 249.444 36.896C250.518 39.3851 251.579 41.8865 252.641 44.3756C252.763 44.6563 252.897 44.9369 253.019 45.2053C253.324 45.8642 253.751 46.3401 254.557 46.3279C254.618 46.3279 254.654 46.3767 254.727 46.4377ZM248.639 39.0313C248.59 39.0191 248.553 39.0191 248.505 39.0069C248.053 40.1538 247.614 41.2886 247.15 42.4721C248.114 42.4721 248.993 42.4721 249.944 42.4721C249.505 41.2886 249.078 40.166 248.639 39.0313Z" fill="#222121"/>
<path d="M191.448 36.6122C191.631 36.4048 191.888 36.4902 192.107 36.4902C193.462 36.4902 194.816 36.5146 196.183 36.5268C196.878 36.5268 197.574 36.539 198.379 36.3926C198.196 37.1003 198.33 37.7836 198.074 38.4669C197.976 38.3937 197.927 38.3815 197.915 38.3449C197.708 37.4663 197.647 37.3931 196.756 37.3199C196.195 37.2711 195.621 37.2833 195.048 37.2589C194.779 37.2467 194.633 37.3077 194.645 37.6127C194.657 38.5767 194.657 39.5406 194.645 40.5046C194.645 40.7242 194.731 40.8218 194.95 40.8218C195.719 40.8096 196.488 40.7974 197.244 40.7852C197.537 40.7852 197.769 40.6022 198.001 40.4313C198.123 40.9072 197.988 42.3348 197.793 42.6765C197.622 42.5788 197.671 42.408 197.647 42.2738C197.598 41.8467 197.317 41.6515 196.939 41.6271C196.268 41.5905 195.585 41.5905 194.901 41.5661C194.706 41.5661 194.633 41.6515 194.633 41.8467C194.645 42.8473 194.621 43.86 194.657 44.8606C194.682 45.4462 194.926 45.6903 195.499 45.7757C196.134 45.8733 196.768 45.8611 197.403 45.7757C197.879 45.7147 198.196 45.4462 198.33 44.9704C198.367 44.8118 198.342 44.6165 198.611 44.4823C198.72 45.1778 198.623 45.7879 198.428 46.398C198.354 46.6298 198.11 46.6054 197.915 46.6054C197.329 46.6054 196.732 46.6054 196.146 46.5932C194.828 46.5688 193.523 46.52 192.205 46.581C192.034 46.5932 191.814 46.6786 191.668 46.459C191.753 46.2272 191.961 46.3126 192.119 46.2882C192.473 46.2394 192.668 46.0441 192.717 45.7025C192.754 45.4462 192.766 45.1778 192.766 44.9216C192.778 42.6277 192.79 40.3215 192.778 38.0276C192.778 36.9295 192.742 36.905 191.656 36.7586C191.582 36.7464 191.497 36.722 191.448 36.6122Z" fill="#222121"/>
<path d="M235.351 38.4678C235.315 37.6991 235.51 37.089 235.644 36.4911C235.681 36.3325 235.827 36.3203 235.961 36.3691C236.596 36.5765 237.267 36.5277 237.914 36.5277C239.597 36.5399 241.281 36.5277 242.977 36.5277C243.258 36.5277 243.551 36.5277 243.831 36.5033C244.783 36.4423 244.795 36.4423 244.746 37.4306C244.734 37.7845 244.82 38.1627 244.576 38.5776C244.515 38.48 244.454 38.4312 244.454 38.3702C244.429 37.6869 243.953 37.4794 243.404 37.4184C242.733 37.3574 242.05 37.3696 241.367 37.333C241.123 37.3208 241.074 37.455 241.074 37.6503C241.074 38.0651 241.074 38.48 241.074 38.8948C241.074 40.7739 241.086 42.6652 241.098 44.5442C241.098 44.8737 241.098 45.2031 241.135 45.5326C241.196 46.0694 241.342 46.1914 241.867 46.2891C242.074 46.3257 242.306 46.2647 242.501 46.3745C242.514 46.3867 242.526 46.4111 242.538 46.4355C242.514 46.6307 242.355 46.5819 242.233 46.5941C240.769 46.6795 238.426 46.6063 238.097 46.4599C238.133 46.2647 238.292 46.3379 238.414 46.3135C239.012 46.2159 239.097 46.1304 239.146 45.5082C239.183 45.0933 239.207 44.6784 239.207 44.2636C239.219 42.1405 239.219 40.0174 239.219 37.8943C239.219 37.3452 239.207 37.3452 238.682 37.3574C238.109 37.3696 237.547 37.4062 236.974 37.394C236.315 37.3818 235.815 37.577 235.595 38.2481C235.571 38.2847 235.51 38.3213 235.351 38.4678Z" fill="#222121"/>
<path d="M124.913 38.7007C124.705 38.6031 124.754 38.3956 124.705 38.237C124.608 37.8588 124.4 37.5659 124.083 37.3341C123.387 36.8216 122.094 36.8826 121.435 37.4439C120.849 37.9442 120.813 38.7739 121.35 39.3718C121.691 39.75 122.131 39.9941 122.57 40.2381C123.18 40.5797 123.79 40.9214 124.315 41.3973C124.949 41.9829 125.34 42.6906 125.352 43.5814C125.388 45.0578 124.486 46.2657 123.046 46.5952C121.984 46.8392 120.91 46.7904 119.861 46.5464C119.227 46.4 119.153 46.2901 119.178 45.6435C119.19 45.1432 119.239 44.6429 119.275 44.1304C119.288 44.0206 119.312 43.923 119.434 43.8376C119.641 44.0328 119.605 44.2891 119.641 44.4965C119.788 45.2164 120.227 45.6679 120.886 45.8875C121.472 46.0949 122.082 46.1315 122.692 45.9119C123.814 45.5092 124.168 44.1304 123.387 43.2153C123.082 42.8615 122.692 42.6174 122.301 42.3856C121.642 41.9951 120.971 41.6291 120.41 41.0922C119.873 40.5675 119.544 39.9575 119.495 39.1887C119.446 38.2248 119.824 37.4927 120.605 36.9436C121.081 36.6142 121.618 36.419 122.179 36.3457C123.033 36.2359 123.888 36.2847 124.73 36.4556C124.9 36.4922 125.096 36.5288 125.083 36.7606C125.071 37.3463 125.047 37.9442 125.022 38.5299C125.035 38.6031 124.961 38.6519 124.913 38.7007Z" fill="#222121"/>
<path d="M112.126 62.2895C111.723 62.1797 111.479 61.9113 111.247 61.6672C110.039 60.4593 108.831 59.2513 107.635 58.0311C106.781 57.1526 105.951 56.2497 105.097 55.3589C104.963 55.2247 104.829 55.1027 104.682 54.9563C104.536 55.1271 104.597 55.2857 104.597 55.4199C104.634 57.1526 104.67 58.873 104.731 60.6057C104.768 61.7526 104.804 61.8014 105.854 62.0699C105.561 62.2407 103.804 62.2773 103.06 62.1431C103.035 62.0943 103.047 62.0455 103.108 62.0333C103.889 61.8502 103.926 61.8136 103.938 60.9839C103.95 58.5558 103.938 56.1276 103.95 53.6873C103.95 53.4067 103.792 52.9796 104.146 52.8698C104.414 52.7844 104.597 53.1626 104.792 53.3579C106.915 55.5786 109.026 57.7993 111.137 60.02C111.247 60.1298 111.332 60.2518 111.418 60.3616C111.65 60.2274 111.564 60.0566 111.564 59.9224C111.528 58.0189 111.479 56.1154 111.442 54.212C111.442 54.1266 111.442 54.0411 111.43 53.9435C111.381 53.4067 111.296 53.309 110.771 53.2114C110.625 53.187 110.466 53.2236 110.32 53.126C110.674 52.9796 112.528 52.9552 113.077 53.0894C112.992 53.2236 112.845 53.1748 112.736 53.1992C112.431 53.2602 112.296 53.4677 112.26 53.7483C112.235 53.9679 112.235 54.1876 112.235 54.4072C112.223 56.7499 112.223 59.0927 112.211 61.4354C112.199 61.7038 112.235 61.9723 112.126 62.2895Z" fill="#222121"/>
<path d="M127.025 36.6519C127.074 36.481 127.208 36.4932 127.342 36.4932C128.575 36.4078 131.015 36.4932 131.357 36.6275C131.235 36.8349 131.003 36.7495 130.832 36.7983C130.393 36.9203 130.295 37.0057 130.234 37.4572C130.21 37.6768 130.21 37.8964 130.21 38.1161C130.222 40.1903 130.234 42.2646 130.234 44.3511C130.234 45.0466 130.246 45.7421 130.1 46.4376C129.966 47.0721 129.697 47.6334 129.282 48.1215C128.611 48.8902 127.806 49.4759 126.879 49.9029C126.732 49.9761 126.586 50.0981 126.415 49.9395C126.439 49.7199 126.647 49.6955 126.781 49.5979C127.586 49.061 128.074 48.3045 128.221 47.3528C128.294 46.8525 128.355 46.3522 128.355 45.8519C128.355 43.2042 128.355 40.5564 128.355 37.9208C128.355 37.8598 128.355 37.7866 128.355 37.7256C128.331 37.0667 128.172 36.8959 127.513 36.7861C127.367 36.7617 127.208 36.8105 127.074 36.7129C127.05 36.6885 127.037 36.6641 127.025 36.6519Z" fill="#222121"/>
<path d="M91.9805 53.0731C92.6394 52.9633 94.7015 52.9877 95.0919 53.0975C94.9821 53.2317 94.8113 53.1829 94.6771 53.2317C94.4696 53.305 94.3476 53.4392 94.3232 53.6588C94.311 53.8052 94.2622 53.9638 94.2622 54.1103C94.25 55.8551 94.1646 57.6122 94.3232 59.357C94.372 59.9061 94.5306 60.4308 94.8723 60.8822C95.58 61.8095 96.5683 62.017 97.6299 61.7973C98.6914 61.5777 99.3259 60.8578 99.5455 59.7963C99.6309 59.3448 99.692 58.8933 99.692 58.4297C99.692 57.0997 99.692 55.7575 99.6798 54.4275C99.6676 53.366 99.6553 53.366 98.6792 53.1097C99.0941 52.9755 100.961 52.9755 101.4 53.1097C100.631 53.366 100.595 53.4026 100.595 54.2689C100.595 55.4769 100.595 56.6726 100.595 57.8806C100.595 58.5151 100.534 59.1496 100.387 59.7719C100.046 61.2361 99.0819 62.0658 97.6421 62.322C96.8856 62.4562 96.1169 62.4318 95.3726 62.2C94.006 61.7729 93.3349 60.7724 93.1274 59.4058C93.0054 58.6005 93.042 57.7952 93.042 56.9777C93.042 56.0625 93.0542 55.1352 93.0298 54.2201C93.0054 53.3538 92.9688 53.3294 92.1269 53.1707C92.1025 53.1585 92.0659 53.1219 91.9805 53.0731Z" fill="#222121"/>
<path d="M189.802 53.0497C191.095 53.0619 192.389 52.9276 193.67 53.0497C193.877 53.0741 194.097 53.1595 194.292 53.2449C195.549 53.7818 195.89 54.9775 195.11 56.0879C194.902 56.3929 194.621 56.637 194.341 56.942C194.573 57.1616 194.89 57.2349 195.158 57.4057C196.647 58.3452 196.903 60.1999 195.695 61.3712C195.122 61.9325 194.414 62.2009 193.621 62.2254C192.425 62.262 191.217 62.1277 190.021 62.2376C190.034 62.1521 190.021 62.0911 190.034 62.0911C190.546 62.0301 190.705 61.7007 190.729 61.237C190.741 60.9808 190.766 60.7123 190.778 60.4561C190.778 58.4428 190.778 56.4295 190.79 54.4285C190.79 54.3796 190.79 54.343 190.79 54.2942C190.754 53.3425 190.692 53.2571 189.802 53.0497ZM191.876 59.2115C191.888 59.2115 191.913 59.2115 191.925 59.2115C191.925 59.7972 191.925 60.3951 191.925 60.9808C191.925 61.3956 192.157 61.6153 192.535 61.7129C193.035 61.8349 193.523 61.8593 194.024 61.7495C194.609 61.6153 194.987 61.2492 195.171 60.6879C195.524 59.602 195 58.2232 193.999 57.6741C193.401 57.3447 192.742 57.3447 192.084 57.3691C191.864 57.3813 191.876 57.5521 191.876 57.6985C191.876 58.211 191.876 58.7113 191.876 59.2115ZM191.876 55.1484C191.876 55.612 191.888 56.0635 191.876 56.5272C191.864 56.8078 191.998 56.9298 192.267 56.942C192.596 56.9542 192.925 56.9542 193.255 56.942C193.694 56.9298 193.987 56.7102 194.207 56.3319C194.621 55.5876 194.56 54.8555 194.146 54.1478C193.755 53.4889 193.108 53.3303 192.389 53.4035C191.913 53.4523 191.913 53.4523 191.9 53.9038C191.864 54.3186 191.876 54.7335 191.876 55.1484Z" fill="#222121"/>
<path d="M137.275 36.5528C137.116 36.687 137.092 36.7358 137.055 36.7358C136.055 36.8578 136.079 36.992 136.067 37.9194C136.018 40.3475 135.994 42.7757 136.091 45.2038C136.128 46.1555 136.201 46.2287 137.153 46.302C137.275 46.3142 137.421 46.2653 137.543 46.4362C137.202 46.7168 136.811 46.546 136.47 46.5704C136.079 46.5948 135.689 46.5582 135.286 46.546C134.92 46.546 134.542 46.5826 134.176 46.5582C133.81 46.546 133.419 46.6802 133.053 46.4484C133.212 46.2043 133.444 46.3142 133.615 46.2653C133.907 46.1921 134.078 46.0335 134.115 45.7407C134.151 45.4844 134.164 45.216 134.164 44.9598C134.176 42.617 134.176 40.2743 134.176 37.9438C134.176 36.9432 134.151 36.931 133.139 36.7236C133.102 36.7114 133.078 36.6748 133.041 36.6504C133.334 36.4674 133.334 36.4674 134.383 36.4918C134.847 36.504 135.298 36.4918 135.762 36.4918C136.226 36.5162 136.689 36.443 137.275 36.5528Z" fill="#222121"/>
<path d="M176.868 62.1512C176.026 62.2244 175.196 62.2366 174.318 62.1634C174.403 61.9071 174.476 61.7363 174.379 61.5045C174.037 60.7236 173.732 59.9305 173.427 59.1374C173.342 58.9055 173.22 58.7957 172.951 58.7957C172.146 58.8079 171.328 58.8079 170.523 58.7957C170.279 58.7957 170.169 58.8933 170.096 59.1007C169.864 59.784 169.596 60.4551 169.376 61.1384C169.169 61.7729 169.193 61.7851 169.803 62.0292C169.827 62.0414 169.84 62.1024 169.864 62.1634C168.973 62.1634 168.083 62.1634 167.204 62.1634C167.204 62.0292 167.253 61.9925 167.326 61.9925C168.046 62.017 168.375 61.5533 168.607 60.9676C169.132 59.6498 169.644 58.3198 170.157 57.0021C170.633 55.7819 171.109 54.5617 171.585 53.3415C171.658 53.1463 171.694 52.9145 171.926 52.7559C172.207 52.9511 172.268 53.2805 172.378 53.5734C173.183 55.5378 173.976 57.5023 174.769 59.4668C174.916 59.8329 175.062 60.1989 175.221 60.5527C175.696 61.6875 175.782 61.7607 176.868 62.1512ZM173.073 58.2832C172.622 57.0631 172.182 55.9161 171.755 54.7691C171.719 54.7691 171.67 54.7813 171.633 54.7813C171.231 55.9283 170.828 57.0875 170.413 58.271C171.316 58.2832 172.134 58.2832 173.073 58.2832Z" fill="#222121"/>
<path d="M245.197 52.748C245.466 53.0775 245.563 53.4191 245.697 53.7364C246.588 55.8961 247.454 58.068 248.345 60.2277C248.455 60.4961 248.565 60.7524 248.687 61.0086C248.955 61.5699 249.309 62.0091 250.017 62.0213C250.053 62.0213 250.09 62.058 250.127 62.0824C250.139 62.0946 250.139 62.119 250.151 62.2044C249.309 62.2776 248.479 62.241 247.576 62.1922C247.698 61.9359 247.747 61.7285 247.65 61.4967C247.32 60.7402 247.015 59.9593 246.71 59.1905C246.613 58.9343 246.478 58.8123 246.185 58.8245C245.417 58.8489 244.648 58.8489 243.892 58.8245C243.562 58.8123 243.428 58.9465 243.342 59.2394C243.147 59.8372 242.903 60.4229 242.696 61.0208C242.452 61.7529 242.476 61.8261 243.233 62.1922C242.244 62.1922 241.366 62.1922 240.463 62.1922C240.475 61.9725 240.646 62.0091 240.756 62.0091C241.195 61.9969 241.488 61.7651 241.683 61.3869C241.817 61.1062 241.951 60.8378 242.061 60.5449C242.976 58.19 243.892 55.8229 244.819 53.4557C244.88 53.2117 244.916 52.9433 245.197 52.748ZM246.32 58.2754C245.88 57.0797 245.453 55.9205 245.026 54.7735C244.99 54.7735 244.941 54.7613 244.904 54.7613C244.502 55.9205 244.087 57.0797 243.672 58.2754C244.575 58.2754 245.405 58.2754 246.32 58.2754Z" fill="#222121"/>
<path d="M261.767 52.7559C262.048 52.9755 262.109 53.2805 262.218 53.549C263.158 55.8307 264.085 58.1246 265.013 60.4063C265.122 60.6748 265.244 60.931 265.379 61.175C265.623 61.6509 265.977 61.9803 266.55 61.9925C266.635 61.9925 266.733 62.0048 266.733 62.1878C265.94 62.261 265.147 62.2244 264.366 62.1756C264.256 62.1634 264.146 62.0902 264.256 61.9682C264.415 61.7851 264.281 61.6387 264.232 61.4801C263.927 60.7114 263.609 59.9427 263.304 59.1618C263.207 58.9055 263.073 58.7957 262.78 58.7957C262.011 58.8201 261.242 58.8079 260.486 58.7957C260.205 58.7957 260.047 58.8567 259.949 59.1374C259.729 59.784 259.473 60.4063 259.266 61.053C259.034 61.7607 259.07 61.8095 259.729 62.1024C259.388 62.2122 257.667 62.2366 257.069 62.1512C257.069 61.9437 257.24 61.9926 257.35 61.9803C257.801 61.9681 258.094 61.7241 258.277 61.3459C258.436 61.0164 258.595 60.6748 258.729 60.3209C259.62 58.0148 260.51 55.7209 261.413 53.4147C261.474 53.1951 261.523 52.9267 261.767 52.7559ZM261.621 54.7569C261.584 54.7569 261.535 54.7691 261.499 54.7691C261.096 55.9283 260.693 57.0753 260.278 58.2466C261.194 58.2466 262.035 58.2466 262.926 58.2466C262.475 57.0631 262.048 55.9161 261.621 54.7569Z" fill="#222121"/>
<path d="M126.487 53.0513C127.402 53.0513 128.256 53.0513 129.11 53.0513C129.184 53.1611 129.086 53.1611 129.037 53.1733C128.976 53.1977 128.903 53.1855 128.842 53.1977C128.513 53.2465 128.281 53.4295 128.122 53.7102C127.963 54.003 127.829 54.2958 127.695 54.6009C126.694 56.907 125.706 59.2131 124.693 61.507C124.559 61.7999 124.523 62.3246 124.144 62.3002C123.803 62.2758 123.766 61.7633 123.632 61.4582C122.656 59.1399 121.704 56.8216 120.74 54.5033C120.691 54.3813 120.63 54.2592 120.594 54.1372C120.398 53.5637 120.045 53.2099 119.41 53.1855C119.325 53.1855 119.239 53.1733 119.166 53.0391C120.264 53.0391 121.338 53.0391 122.534 53.0391C121.655 53.3807 121.594 53.1855 121.936 54.1006C122.68 56.0773 123.461 58.054 124.23 60.0306C124.291 60.1893 124.315 60.3601 124.474 60.4821C124.681 60.1893 124.779 59.8598 124.913 59.5304C125.609 57.8343 126.328 56.1383 126.926 54.4057C126.975 54.2592 127.036 54.125 127.085 53.9786C127.292 53.3441 127.268 53.3075 126.621 53.1611C126.597 53.1611 126.572 53.1245 126.487 53.0513Z" fill="#222121"/>
<path d="M135.454 52.9375C135.393 53.4744 135.332 53.9624 135.271 54.4017C135.161 54.4627 135.125 54.4505 135.113 54.4017C134.929 53.6818 134.844 53.6086 134.1 53.5598C133.6 53.5232 133.099 53.5354 132.587 53.5232C132.318 53.511 132.184 53.5842 132.196 53.8892C132.209 54.8288 132.209 55.7683 132.196 56.7078C132.196 56.9397 132.27 57.0861 132.526 57.0739C133.185 57.0617 133.844 57.1105 134.49 57.0129C134.722 56.9763 134.966 56.9641 135.235 56.781C135.174 57.3301 135.125 57.867 135.064 58.4283C134.832 58.4039 134.905 58.2452 134.881 58.1476C134.807 57.8304 134.612 57.6474 134.295 57.6352C133.709 57.6108 133.111 57.5863 132.526 57.5619C132.27 57.5497 132.196 57.6962 132.196 57.928C132.209 58.8675 132.184 59.8071 132.209 60.7466C132.233 61.4665 132.453 61.6617 133.172 61.6983C133.563 61.7105 133.966 61.7105 134.356 61.6983C135.064 61.6739 135.296 61.4909 135.54 60.7954C135.564 60.7344 135.588 60.6734 135.662 60.5392C135.82 61.1126 135.686 61.5885 135.527 62.04C135.466 62.2352 135.259 62.2352 135.076 62.2352C134.441 62.2352 133.807 62.2352 133.172 62.223C132.343 62.1986 131.513 62.162 130.683 62.223C130.537 62.2352 130.403 62.2108 130.293 62.2108C130.244 62.1132 130.244 62.0644 130.305 62.0522C130.952 61.8569 130.964 61.8447 131.013 61.1614C131.135 59.4288 131.062 57.7084 131.074 55.9757C131.074 55.3168 131.074 54.6579 131.037 54.0112C130.988 53.328 130.964 53.3279 130.256 53.2059C130.171 53.1937 130.085 53.2059 130.024 53.0473C131.818 52.9497 133.6 53.1083 135.454 52.9375Z" fill="#222121"/>
<path d="M163.154 53.5489C162.312 53.5733 161.507 53.5367 160.701 53.6099C160.189 53.6588 159.981 54.037 159.713 54.4153C159.652 53.8906 159.823 53.4269 159.945 52.9511C159.969 52.8412 160.103 52.8534 160.225 52.8778C162.385 53.1707 164.545 52.9633 166.717 53.0121C166.997 53.0121 167.278 52.9511 167.595 52.9144C167.681 53.4635 167.656 54.0004 167.571 54.5373C167.339 54.5007 167.4 54.342 167.376 54.2322C167.302 53.9394 167.107 53.7808 166.851 53.7076C166.082 53.5001 165.289 53.5733 164.496 53.5611C164.362 53.5611 164.301 53.6343 164.301 53.7686C164.301 53.8174 164.301 53.854 164.301 53.9028C164.325 56.2821 164.24 58.6737 164.362 61.053C164.398 61.8827 164.423 61.8827 165.277 62.0047C165.338 62.0169 165.399 62.0291 165.436 62.1023C165.143 62.261 163.337 62.3098 162.361 62.1877C162.336 62.1389 162.349 62.0901 162.385 62.0779C162.934 62.0291 163.081 61.6753 163.105 61.175C163.154 60.3209 163.154 59.4668 163.154 58.6126C163.154 56.941 163.154 55.2816 163.154 53.5489Z" fill="#222121"/>
<path d="M255.629 62.2269C254.579 62.2269 253.554 62.1781 252.554 62.2391C252.517 62.1171 252.529 62.0439 252.603 62.0195C253.237 61.8243 253.286 61.7755 253.31 61.1288C253.335 60.3479 253.322 59.5548 253.322 58.7617C253.322 58.3834 253.2 58.0296 252.993 57.7123C252.249 56.5288 251.504 55.3452 250.748 54.1738C250.418 53.6613 250.004 53.2709 249.394 53.0513C250.223 53.0513 251.053 53.0513 251.956 53.0513C251.7 53.2587 251.541 53.4539 251.748 53.7712C252.529 55.0279 253.274 56.2969 254.03 57.5537C254.25 57.4805 254.286 57.3219 254.36 57.1876C254.958 56.1749 255.568 55.1622 256.153 54.1372C256.471 53.5881 256.446 53.4539 255.982 53.0391C256.824 53.0391 257.618 53.0391 258.398 53.0391C257.544 53.1855 257.129 53.8444 256.69 54.4789C256.019 55.455 255.409 56.4677 254.811 57.4683C254.579 57.8587 254.457 58.2492 254.469 58.7129C254.494 59.4816 254.494 60.2381 254.494 61.0068C254.494 61.6413 254.616 62.0317 255.385 61.9951C255.47 61.9951 255.568 62.0073 255.629 62.2269Z" fill="#222121"/>
<path d="M182.237 53.0244C182.237 53.5857 182.237 54.0738 182.237 54.5374C181.993 54.5985 182.005 54.4398 181.98 54.3178C181.895 53.7931 181.553 53.5369 181.065 53.4027C180.528 53.2563 179.991 53.2197 179.455 53.4149C178.564 53.7321 178.247 54.6107 178.747 55.4282C178.93 55.7332 179.186 55.965 179.479 56.1725C179.906 56.4775 180.333 56.7826 180.76 57.0876C181.248 57.4292 181.7 57.8075 182.054 58.2834C183.2 59.8208 182.432 61.8707 180.553 62.2611C179.686 62.4441 178.808 62.4197 177.954 62.2001C177.429 62.0659 177.368 61.9683 177.38 61.4192C177.38 60.9921 177.368 60.5529 177.514 60.1258C177.685 60.199 177.661 60.3089 177.661 60.4187C177.734 61.1752 178.21 61.59 178.893 61.7731C179.381 61.9073 179.894 61.9195 180.394 61.7975C181.48 61.5412 181.944 60.2967 181.334 59.3449C181.138 59.0399 180.882 58.8202 180.602 58.6006C180.065 58.1858 179.528 57.7709 178.991 57.356C178.613 57.051 178.271 56.7215 178.003 56.3067C177.197 55.0377 177.685 53.5613 179.076 53.0244C179.662 52.8048 180.26 52.7316 180.882 52.8048C181.334 52.8658 181.785 52.9512 182.237 53.0244Z" fill="#222121"/>
<path d="M235.875 65.3C235.912 65.0194 236.046 64.9584 236.143 64.8852C237.034 64.2629 237.437 63.3722 237.547 62.3228C237.62 61.6517 237.669 60.9684 237.669 60.2973C237.656 58.4183 237.669 56.5392 237.669 54.648C237.669 54.5381 237.669 54.4283 237.669 54.3185C237.644 53.3668 237.583 53.3058 236.668 53.1227C236.985 52.9763 238.852 52.9397 239.633 53.0617C239.584 53.2448 239.426 53.1715 239.328 53.1959C238.999 53.2814 238.864 53.4888 238.852 53.806C238.84 54.1965 238.828 54.5991 238.828 54.9896C238.803 57.1737 238.877 59.37 238.755 61.5541C238.657 63.4454 237.461 64.4581 235.875 65.3Z" fill="#222121"/>
<path d="M234.448 62.1749C233.326 62.1749 232.313 62.1749 231.215 62.1749C232.02 61.7356 232.032 61.7356 232.045 60.7839C232.069 58.6364 232.069 56.4889 232.069 54.3414C232.069 54.317 232.069 54.2926 232.069 54.2804C232.032 53.3652 232.032 53.3652 231.215 53.0846C231.618 52.987 233.484 52.9626 234.082 53.0602C234.009 53.2066 233.875 53.17 233.765 53.1944C233.423 53.2554 233.289 53.4872 233.265 53.7923C233.24 53.9631 233.24 54.1461 233.24 54.317C233.24 56.3547 233.24 58.3923 233.253 60.43C233.253 60.7107 233.277 61.0035 233.314 61.2841C233.399 61.882 233.423 61.8942 234.046 61.9796C234.155 61.9918 234.265 61.9918 234.448 62.1749Z" fill="#222121"/>
<path d="M115.273 53.0391C116.213 53.0391 117.153 53.0391 118.116 53.0391C118.055 53.2221 117.933 53.1733 117.836 53.1977C117.482 53.2709 117.323 53.4905 117.323 53.8444C117.323 54.4301 117.311 55.0279 117.311 55.6136C117.311 57.2731 117.311 58.9447 117.323 60.6041C117.323 60.7749 117.323 60.958 117.336 61.1288C117.384 61.8243 117.445 61.8853 118.141 61.9829C118.238 61.9951 118.373 61.9585 118.397 62.1171C118.019 62.2269 116.03 62.2636 115.347 62.1659C115.359 62.1293 115.359 62.0561 115.371 62.0561C115.884 62.0073 116.079 61.7023 116.079 61.2264C116.079 60.9824 116.128 60.7505 116.128 60.5065C116.14 58.4444 116.14 56.3945 116.14 54.3324C116.14 54.2836 116.14 54.247 116.14 54.1982C116.091 53.3929 116.042 53.3319 115.273 53.0391Z" fill="#222121"/>
<path d="M155.088 53.0977C155.478 52.9757 157.296 52.9635 157.931 53.0733C157.87 53.2319 157.711 53.1831 157.614 53.2075C157.321 53.293 157.174 53.476 157.15 53.7688C157.138 53.9396 157.138 54.1227 157.138 54.2935C157.138 56.3922 157.138 58.4909 157.15 60.5896C157.15 60.7482 157.162 60.8946 157.162 61.0532C157.187 61.7243 157.321 62.0416 158.016 61.9928C158.102 61.9806 158.187 62.005 158.26 62.188C157.748 62.2734 157.235 62.2002 156.735 62.2002C156.21 62.2002 155.698 62.2002 155.173 62.2002C155.173 62.1392 155.185 62.066 155.185 62.066C155.771 62.005 155.905 61.6145 155.918 61.1143C155.93 60.6506 155.954 60.1991 155.954 59.7355C155.954 58.0028 155.954 56.2824 155.954 54.5497C155.954 54.4643 155.954 54.3789 155.954 54.2813C155.93 53.415 155.881 53.354 155.088 53.0977Z" fill="#222121"/>
</svg>
