<svg width="148" height="209" viewBox="0 0 148 209" fill="none" xmlns="http://www.w3.org/2000/svg">
<path d="M124.241 -0.000850801L124.241 208.481" stroke="#FE015E" stroke-width="1.56264" stroke-miterlimit="10"/>
<path d="M102.12 16.001L102.361 204.482" stroke="#FE015E" stroke-width="1.56264" stroke-miterlimit="10"/>
<path d="M88.7264 204.437L109.953 204.438" stroke="#FFC001" stroke-width="1.91924" stroke-miterlimit="10"/>
<path d="M70.935 193.748L109.953 193.748" stroke="#FFC001" stroke-width="1.91924" stroke-miterlimit="10"/>
<path d="M51.2436 183.078L109.953 183.078" stroke="#FFC001" stroke-width="1.91924" stroke-miterlimit="10"/>
<path d="M30.6694 172.406L109.953 172.406" stroke="#FFC001" stroke-width="1.91924" stroke-miterlimit="10"/>
<path d="M13.7034 161.736L109.953 161.736" stroke="#FFC001" stroke-width="1.91924" stroke-miterlimit="10"/>
<path d="M-6.47423e-06 151.045L109.953 151.045" stroke="#FFC001" stroke-width="1.91924" stroke-miterlimit="10"/>
<path d="M-6.47423e-06 140.375L109.953 140.375" stroke="#FFC001" stroke-width="1.91924" stroke-miterlimit="10"/>
<path d="M13.7034 129.703L109.953 129.703" stroke="#FFC001" stroke-width="1.91924" stroke-miterlimit="10"/>
<path d="M30.6694 119.012L109.953 119.012" stroke="#FFC001" stroke-width="1.91924" stroke-miterlimit="10"/>
<path d="M51.2436 108.342L109.953 108.342" stroke="#FFC001" stroke-width="1.91924" stroke-miterlimit="10"/>
<path d="M70.935 97.6699L109.953 97.6699" stroke="#FFC001" stroke-width="1.91924" stroke-miterlimit="10"/>
<path d="M88.7264 87L109.953 87" stroke="#FFC001" stroke-width="1.91924" stroke-miterlimit="10"/>
</svg>
