<svg width="271" height="65" viewBox="0 0 271 65" fill="none" xmlns="http://www.w3.org/2000/svg">
<path d="M-0.000839867 0V25.1741L20.5322 12.5792L-0.000839867 0Z" fill="#6337AE"/>
<path d="M41.7531 0V25.1741L62.2861 12.5792L41.7531 0Z" fill="#6337AE"/>
<path d="M83.4904 0V25.1741L104.023 12.5792L83.4904 0Z" fill="#6337AE"/>
<path d="M125.229 0V25.1741L145.777 12.5792L125.229 0Z" fill="#6337AE"/>
<path d="M166.983 0V25.1741L187.516 12.5792L166.983 0Z" fill="#6337AE"/>
<path d="M82.9992 39V64.1741L103.532 51.5792L82.9992 39Z" fill="#6337AE"/>
<path d="M124.753 39V64.1741L145.286 51.5792L124.753 39Z" fill="#6337AE"/>
<path d="M166.49 39V64.1741L187.023 51.5792L166.49 39Z" fill="#6337AE"/>
<path d="M208.229 39V64.1741L228.777 51.5792L208.229 39Z" fill="#6337AE"/>
<path d="M249.983 39V64.1741L270.516 51.5792L249.983 39Z" fill="#6337AE"/>
</svg>
