<svg width="295" height="319" viewBox="0 0 295 319" fill="none" xmlns="http://www.w3.org/2000/svg">
<g filter="url(#filter0_d_1417_6470)">
<path d="M151.474 304.949C226.295 304.949 286.949 244.295 286.949 169.474C286.949 94.6539 226.295 34 151.474 34C76.6539 34 16 94.6539 16 169.474C16 244.295 76.6539 304.949 151.474 304.949Z" fill="#FFC001"/>
</g>
<path d="M172.797 252.93C218.853 242.272 247.549 196.296 236.89 150.24C226.232 104.184 180.256 75.4886 134.2 86.1468C88.1443 96.8051 59.4488 142.781 70.1071 188.837C80.7653 234.893 126.741 263.588 172.797 252.93Z" stroke="#FE015E" stroke-width="1.95067" stroke-miterlimit="10"/>
<path d="M176.74 237.333C214.192 224.496 234.147 183.727 221.309 146.275C208.472 108.822 167.703 88.8672 130.251 101.705C92.798 114.542 72.8434 155.311 85.6809 192.763C98.5185 230.216 139.287 250.171 176.74 237.333Z" stroke="#FE015E" stroke-width="1.95067" stroke-miterlimit="10"/>
<path d="M183.266 218.964C210.598 202.515 219.421 167.024 202.972 139.692C186.524 112.361 151.033 103.538 123.701 119.987C96.3689 136.435 87.5462 171.926 103.995 199.258C120.443 226.59 155.935 235.413 183.266 218.964Z" stroke="#FE015E" stroke-width="1.95067" stroke-miterlimit="10"/>
<path d="M187.79 196.854C202.893 177.935 199.799 150.356 180.88 135.253C161.962 120.15 134.382 123.244 119.279 142.163C104.177 161.081 107.27 188.661 126.189 203.764C145.108 218.866 172.687 215.773 187.79 196.854Z" stroke="#FE015E" stroke-width="1.95067" stroke-miterlimit="10"/>
<path d="M181.009 180.982C187.392 165.738 180.209 148.206 164.965 141.823C149.721 135.44 132.189 142.623 125.806 157.867C119.423 173.111 126.607 190.643 141.85 197.026C157.094 203.409 174.626 196.226 181.009 180.982Z" stroke="#FE015E" stroke-width="1.95067" stroke-miterlimit="10"/>
<path d="M166.479 32.4485C170.423 31.8028 173.096 28.0827 172.45 24.1394C171.804 20.1961 168.084 17.523 164.141 18.1687C160.198 18.8144 157.524 22.5345 158.17 26.4778C158.816 30.4211 162.536 33.0942 166.479 32.4485Z" fill="#FE015E"/>
<path d="M166.484 61.6926C170.427 61.0469 173.101 57.3268 172.455 53.3835C171.809 49.4403 168.089 46.7671 164.146 47.4128C160.203 48.0586 157.529 51.7787 158.175 55.7219C158.821 59.6652 162.541 62.3384 166.484 61.6926Z" fill="#FE015E"/>
<path d="M165.309 91.0325C169.31 91.0325 172.544 87.7822 172.544 83.7975C172.544 79.8128 169.294 76.5625 165.309 76.5625C161.325 76.5625 158.074 79.8128 158.074 83.7975C158.074 87.7822 161.309 91.0325 165.309 91.0325Z" fill="#FE015E"/>
<path d="M165.309 120.253C169.31 120.253 172.544 117.003 172.544 113.018C172.544 109.033 169.294 105.783 165.309 105.783C161.325 105.783 158.074 109.033 158.074 113.018C158.074 117.003 161.309 120.253 165.309 120.253Z" fill="#FE015E"/>
<path d="M166.478 149.361C170.422 148.715 173.095 144.995 172.449 141.051C171.803 137.108 168.083 134.435 164.14 135.081C160.197 135.727 157.523 139.447 158.169 143.39C158.815 147.333 162.535 150.006 166.478 149.361Z" fill="#FE015E"/>
<path d="M144.479 15.4485C148.423 14.8028 151.096 11.0827 150.45 7.13939C149.804 3.19613 146.084 0.522951 142.141 1.16868C138.198 1.81442 135.524 5.53454 136.17 9.47781C136.816 13.4211 140.536 16.0942 144.479 15.4485Z" fill="#FE015E"/>
<path d="M144.484 44.6926C148.427 44.0469 151.101 40.3268 150.455 36.3835C149.809 32.4403 146.089 29.7671 142.146 30.4128C138.203 31.0586 135.529 34.7787 136.175 38.7219C136.821 42.6652 140.541 45.3384 144.484 44.6926Z" fill="#FE015E"/>
<path d="M143.309 74.0325C147.31 74.0325 150.544 70.7822 150.544 66.7975C150.544 62.8128 147.294 59.5625 143.309 59.5625C139.325 59.5625 136.074 62.8128 136.074 66.7975C136.074 70.7822 139.309 74.0325 143.309 74.0325Z" fill="#FE015E"/>
<path d="M143.309 103.253C147.31 103.253 150.544 100.003 150.544 96.0182C150.544 92.0335 147.294 88.7832 143.309 88.7832C139.325 88.7832 136.074 92.0335 136.074 96.0182C136.074 100.003 139.309 103.253 143.309 103.253Z" fill="#FE015E"/>
<path d="M144.478 132.361C148.422 131.715 151.095 127.995 150.449 124.051C149.803 120.108 146.083 117.435 142.14 118.081C138.197 118.727 135.523 122.447 136.169 126.39C136.815 130.333 140.535 133.006 144.478 132.361Z" fill="#FE015E"/>
<defs>
<filter id="filter0_d_1417_6470" x="0.39461" y="24.2466" width="294.356" height="294.357" filterUnits="userSpaceOnUse" color-interpolation-filters="sRGB">
<feFlood flood-opacity="0" result="BackgroundImageFix"/>
<feColorMatrix in="SourceAlpha" type="matrix" values="0 0 0 0 0 0 0 0 0 0 0 0 0 0 0 0 0 0 127 0" result="hardAlpha"/>
<feOffset dx="-3.90135" dy="1.95067"/>
<feGaussianBlur stdDeviation="5.85202"/>
<feColorMatrix type="matrix" values="0 0 0 0 0.807843 0 0 0 0 0.807843 0 0 0 0 0.807843 0 0 0 0.75 0"/>
<feBlend mode="normal" in2="BackgroundImageFix" result="effect1_dropShadow_1417_6470"/>
<feBlend mode="normal" in="SourceGraphic" in2="effect1_dropShadow_1417_6470" result="shape"/>
</filter>
</defs>
</svg>
