<svg width="236" height="240" viewBox="0 0 236 240" fill="none" xmlns="http://www.w3.org/2000/svg">
<g filter="url(#filter0_d_1417_6473)">
<path d="M121.056 228.994C180.993 228.994 229.581 180.405 229.581 120.468C229.581 60.5317 180.993 11.9434 121.056 11.9434C61.1196 11.9434 12.5312 60.5317 12.5312 120.468C12.5312 180.405 61.1196 228.994 121.056 228.994Z" fill="#FFC001"/>
</g>
<path d="M141.668 35.5026C134.355 35.5026 134.355 27.6113 127.042 27.6113C119.728 27.6113 119.728 35.5026 112.415 35.5026C105.102 35.5026 105.102 27.6113 97.7889 27.6113C90.4758 27.6113 90.4758 35.5026 83.1626 35.5026C75.8495 35.5026 75.8495 27.6113 68.5364 27.6113C61.2233 27.6113 61.2232 35.5026 53.9101 35.5026C46.597 35.5026 46.597 27.6113 39.2838 27.6113C31.9707 27.6113 31.9707 35.5026 24.6419 35.5026C17.3132 35.5026 17.3288 27.6113 10 27.6113" stroke="#FE015E" stroke-width="1.56264" stroke-miterlimit="10"/>
<path d="M141.668 22.1901C134.355 22.1901 134.355 14.2988 127.042 14.2988C119.728 14.2988 119.728 22.1901 112.415 22.1901C105.102 22.1901 105.102 14.2988 97.7889 14.2988C90.4758 14.2988 90.4758 22.1901 83.1626 22.1901C75.8495 22.1901 75.8495 14.2988 68.5364 14.2988C61.2233 14.2988 61.2232 22.1901 53.9101 22.1901C46.597 22.1901 46.597 14.2988 39.2838 14.2988C31.9707 14.2988 31.9707 22.1901 24.6419 22.1901C17.3132 22.1901 17.3288 14.2988 10 14.2988" stroke="#FE015E" stroke-width="1.56264" stroke-miterlimit="10"/>
<path d="M141.668 8.89132C134.355 8.89132 134.355 1 127.042 1C119.728 1 119.728 8.89132 112.415 8.89132C105.102 8.89132 105.102 1 97.7889 1C90.4758 1 90.4758 8.89132 83.1626 8.89132C75.8495 8.89132 75.8495 1 68.5364 1C61.2233 1 61.2232 8.89132 53.9101 8.89132C46.597 8.89132 46.597 1 39.2838 1C31.9707 1 31.9707 8.89132 24.6419 8.89132C17.3132 8.89132 17.3288 1 10 1" stroke="#FE015E" stroke-width="1.56264" stroke-miterlimit="10"/>
<path d="M121.056 189.02C158.925 189.02 189.624 158.321 189.624 120.451C189.624 82.582 158.925 51.8828 121.056 51.8828C83.1865 51.8828 52.4873 82.582 52.4873 120.451C52.4873 158.321 83.1865 189.02 121.056 189.02Z" stroke="#673AB4" stroke-width="1.56264" stroke-miterlimit="10"/>
<path d="M174.757 140.717C185.963 111.047 170.994 77.9102 141.324 66.7046C111.653 55.4989 78.5167 70.4677 67.3111 100.138C56.1054 129.809 71.0742 162.945 100.745 174.151C130.415 185.357 163.552 170.388 174.757 140.717Z" stroke="#673AB4" stroke-width="1.56264" stroke-miterlimit="10"/>
<path d="M164.32 136.775C173.349 112.869 161.288 86.1703 137.382 77.1418C113.476 68.1132 86.7775 80.1738 77.749 104.08C68.7204 127.986 80.781 154.684 104.687 163.713C128.593 172.741 155.292 160.681 164.32 136.775Z" stroke="#673AB4" stroke-width="1.56264" stroke-miterlimit="10"/>
<path d="M153.882 132.833C160.733 114.691 151.581 94.4304 133.439 87.579C115.298 80.7276 95.0373 89.8799 88.1859 108.021C81.3345 126.163 90.4868 146.423 108.628 153.275C126.77 160.126 147.03 150.974 153.882 132.833Z" stroke="#673AB4" stroke-width="1.56264" stroke-miterlimit="10"/>
<path d="M143.46 128.896C148.137 116.511 141.889 102.68 129.504 98.0023C117.119 93.3249 103.287 99.573 98.6098 111.958C93.9324 124.343 100.181 138.175 112.565 142.852C124.95 147.529 138.782 141.281 143.46 128.896Z" stroke="#673AB4" stroke-width="1.56264" stroke-miterlimit="10"/>
<path d="M19.235 100.122C23.2308 100.122 26.47 96.8831 26.47 92.8874C26.47 88.8916 23.2308 85.6523 19.235 85.6523C15.2392 85.6523 12 88.8916 12 92.8874C12 96.8831 15.2392 100.122 19.235 100.122Z" fill="#683AB7"/>
<path d="M19.235 129.343C23.2308 129.343 26.47 126.104 26.47 122.108C26.47 118.112 23.2308 114.873 19.235 114.873C15.2392 114.873 12 118.112 12 122.108C12 126.104 15.2392 129.343 19.235 129.343Z" fill="#683AB7"/>
<path d="M19.235 158.566C23.2308 158.566 26.47 155.326 26.47 151.331C26.47 147.335 23.2308 144.096 19.235 144.096C15.2392 144.096 12 147.335 12 151.331C12 155.326 15.2392 158.566 19.235 158.566Z" fill="#683AB7"/>
<path d="M19.235 187.802C23.2353 187.802 26.47 184.552 26.47 180.567C26.47 176.582 23.2353 173.332 19.235 173.332C15.2346 173.332 12 176.582 12 180.567C12 184.552 15.2346 187.802 19.235 187.802Z" fill="#683AB7"/>
<path d="M19.235 217.023C23.2353 217.023 26.47 213.772 26.47 209.788C26.47 205.803 23.2353 202.553 19.235 202.553C15.2346 202.553 12 205.803 12 209.788C12 213.772 15.2346 217.023 19.235 217.023Z" fill="#683AB7"/>
<defs>
<filter id="filter0_d_1417_6473" x="0.030159" y="4.13018" width="235.801" height="235.802" filterUnits="userSpaceOnUse" color-interpolation-filters="sRGB">
<feFlood flood-opacity="0" result="BackgroundImageFix"/>
<feColorMatrix in="SourceAlpha" type="matrix" values="0 0 0 0 0 0 0 0 0 0 0 0 0 0 0 0 0 0 127 0" result="hardAlpha"/>
<feOffset dx="-3.12527" dy="1.56264"/>
<feGaussianBlur stdDeviation="4.68791"/>
<feColorMatrix type="matrix" values="0 0 0 0 0.807843 0 0 0 0 0.807843 0 0 0 0 0.807843 0 0 0 0.75 0"/>
<feBlend mode="normal" in2="BackgroundImageFix" result="effect1_dropShadow_1417_6473"/>
<feBlend mode="normal" in="SourceGraphic" in2="effect1_dropShadow_1417_6473" result="shape"/>
</filter>
</defs>
</svg>
