<svg width="96" height="357" viewBox="0 0 96 357" fill="none" xmlns="http://www.w3.org/2000/svg">
<path d="M94.4801 0C94.4801 19.805 73.1094 19.805 73.1094 39.61C73.1094 59.4151 94.4801 59.415 94.4801 79.2201C94.4801 99.0251 73.1094 99.0251 73.1094 118.83C73.1094 138.635 94.4801 138.635 94.4801 158.44C94.4801 178.245 73.1094 178.245 73.1094 198.05C73.1094 217.855 94.4801 217.855 94.4801 237.66C94.4801 257.465 73.1094 257.465 73.1094 277.27C73.1094 297.075 94.4801 297.075 94.4801 316.923C94.4801 336.77 73.1094 336.728 73.1094 356.575" stroke="#FFC001" stroke-width="2" stroke-miterlimit="10"/>
<path d="M58.4254 0C58.4254 19.805 37.0547 19.805 37.0547 39.61C37.0547 59.4151 58.4254 59.415 58.4254 79.2201C58.4254 99.0251 37.0547 99.0251 37.0547 118.83C37.0547 138.635 58.4254 138.635 58.4254 158.44C58.4254 178.245 37.0547 178.245 37.0547 198.05C37.0547 217.855 58.4254 217.855 58.4254 237.66C58.4254 257.465 37.0547 257.465 37.0547 277.27C37.0547 297.075 58.4254 297.075 58.4254 316.923C58.4254 336.77 37.0547 336.728 37.0547 356.575" stroke="#FFC001" stroke-width="2" stroke-miterlimit="10"/>
<path d="M22.3707 0C22.3707 19.805 1 19.805 1 39.61C1 59.4151 22.3707 59.415 22.3707 79.2201C22.3707 99.0251 1 99.0251 1 118.83C1 138.635 22.3707 138.635 22.3707 158.44C22.3707 178.245 1 178.245 1 198.05C1 217.855 22.3707 217.855 22.3707 237.66C22.3707 257.465 1 257.465 1 277.27C1 297.075 22.3707 297.075 22.3707 316.923C22.3707 336.77 1 336.728 1 356.575" stroke="#FFC001" stroke-width="2" stroke-miterlimit="10"/>
</svg>
