<svg width="134" height="164" viewBox="0 0 134 164" fill="none" xmlns="http://www.w3.org/2000/svg">
<path d="M4.5955 9.19095C7.13352 9.19095 9.19088 7.13345 9.19088 4.59544C9.19088 2.05743 7.13352 0 4.5955 0C2.05749 0 0 2.05743 0 4.59544C0 7.13345 2.05749 9.19095 4.5955 9.19095Z" fill="#6538B2"/>
<path d="M4.5955 39.9585C7.13352 39.9585 9.19088 37.9011 9.19088 35.3631C9.19088 32.8251 7.13352 30.7676 4.5955 30.7676C2.05749 30.7676 0 32.8251 0 35.3631C0 37.9011 2.05749 39.9585 4.5955 39.9585Z" fill="#6538B2"/>
<path d="M9.19088 66.1111C9.19088 63.5627 7.12302 61.5156 4.5955 61.5156C2.06799 61.5156 0 63.5836 0 66.1111C0 68.6386 2.06799 70.7066 4.5955 70.7066C7.12302 70.7066 9.19088 68.6386 9.19088 66.1111Z" fill="#6538B2"/>
<path d="M9.19088 96.8826C9.19088 94.3341 7.12302 92.2871 4.5955 92.2871C2.06799 92.2871 0 94.355 0 96.8826C0 99.4101 2.06799 101.478 4.5955 101.478C7.12302 101.478 9.19088 99.4101 9.19088 96.8826Z" fill="#6538B2"/>
<path d="M4.5955 132.246C7.13352 132.246 9.19088 130.188 9.19088 127.65C9.19088 125.112 7.13352 123.055 4.5955 123.055C2.05749 123.055 0 125.112 0 127.65C0 130.188 2.05749 132.246 4.5955 132.246Z" fill="#6538B2"/>
<path d="M4.5955 163.015C7.13352 163.015 9.19088 160.958 9.19088 158.42C9.19088 155.882 7.13352 153.824 4.5955 153.824C2.05749 153.824 0 155.882 0 158.42C0 160.958 2.05749 163.015 4.5955 163.015Z" fill="#6538B2"/>
<path d="M29.41 9.19095C31.948 9.19095 34.0053 7.13345 34.0053 4.59544C34.0053 2.05743 31.948 0 29.41 0C26.8719 0 24.8145 2.05743 24.8145 4.59544C24.8145 7.13345 26.8719 9.19095 29.41 9.19095Z" fill="#6538B2"/>
<path d="M29.41 39.9585C31.948 39.9585 34.0053 37.9011 34.0053 35.3631C34.0053 32.8251 31.948 30.7676 29.41 30.7676C26.8719 30.7676 24.8145 32.8251 24.8145 35.3631C24.8145 37.9011 26.8719 39.9585 29.41 39.9585Z" fill="#6538B2"/>
<path d="M34.0053 66.1111C34.0053 63.5627 31.9375 61.5156 29.41 61.5156C26.8824 61.5156 24.8145 63.5836 24.8145 66.1111C24.8145 68.6386 26.8824 70.7066 29.41 70.7066C31.9375 70.7066 34.0053 68.6386 34.0053 66.1111Z" fill="#6538B2"/>
<path d="M34.0053 96.8826C34.0053 94.3341 31.9375 92.2871 29.41 92.2871C26.8824 92.2871 24.8145 94.355 24.8145 96.8826C24.8145 99.4101 26.8824 101.478 29.41 101.478C31.9375 101.478 34.0053 99.4101 34.0053 96.8826Z" fill="#6538B2"/>
<path d="M29.41 132.246C31.948 132.246 34.0053 130.188 34.0053 127.65C34.0053 125.112 31.948 123.055 29.41 123.055C26.8719 123.055 24.8145 125.112 24.8145 127.65C24.8145 130.188 26.8719 132.246 29.41 132.246Z" fill="#6538B2"/>
<path d="M29.41 163.015C31.948 163.015 34.0053 160.958 34.0053 158.42C34.0053 155.882 31.948 153.824 29.41 153.824C26.8719 153.824 24.8145 155.882 24.8145 158.42C24.8145 160.958 26.8719 163.015 29.41 163.015Z" fill="#6538B2"/>
<path d="M58.8422 4.59544C58.8422 2.04704 56.7743 0 54.2467 0C51.7192 0 49.6514 2.06793 49.6514 4.59544C49.6514 7.12295 51.7192 9.19095 54.2467 9.19095C56.7743 9.19095 58.8422 7.12295 58.8422 4.59544Z" fill="#6538B2"/>
<path d="M58.8422 35.3631C58.8422 32.8147 56.7743 30.7676 54.2467 30.7676C51.7192 30.7676 49.6514 32.8356 49.6514 35.3631C49.6514 37.8906 51.7192 39.9585 54.2467 39.9585C56.7743 39.9585 58.8422 37.8906 58.8422 35.3631Z" fill="#6538B2"/>
<path d="M58.8422 66.1111C58.8422 63.5627 56.7743 61.5156 54.2467 61.5156C51.7192 61.5156 49.6514 63.5836 49.6514 66.1111C49.6514 68.6386 51.7192 70.7066 54.2467 70.7066C56.7743 70.7066 58.8422 68.6386 58.8422 66.1111Z" fill="#6538B2"/>
<path d="M58.8422 96.8826C58.8422 94.3341 56.7743 92.2871 54.2467 92.2871C51.7192 92.2871 49.6514 94.355 49.6514 96.8826C49.6514 99.4101 51.7192 101.478 54.2467 101.478C56.7743 101.478 58.8422 99.4101 58.8422 96.8826Z" fill="#6538B2"/>
<path d="M58.8422 127.65C58.8422 125.102 56.7743 123.055 54.2467 123.055C51.7192 123.055 49.6514 125.123 49.6514 127.65C49.6514 130.178 51.7192 132.246 54.2467 132.246C56.7743 132.246 58.8422 130.178 58.8422 127.65Z" fill="#6538B2"/>
<path d="M58.8422 158.42C58.8422 155.871 56.7743 153.824 54.2467 153.824C51.7192 153.824 49.6514 155.892 49.6514 158.42C49.6514 160.947 51.7192 163.015 54.2467 163.015C56.7743 163.015 58.8422 160.947 58.8422 158.42Z" fill="#6538B2"/>
<path d="M79.0643 9.19095C81.6023 9.19095 83.6598 7.13345 83.6598 4.59544C83.6598 2.05743 81.6023 0 79.0643 0C76.5262 0 74.4688 2.05743 74.4688 4.59544C74.4688 7.13345 76.5262 9.19095 79.0643 9.19095Z" fill="#6538B2"/>
<path d="M79.0643 39.9585C81.6023 39.9585 83.6598 37.9011 83.6598 35.3631C83.6598 32.8251 81.6023 30.7676 79.0643 30.7676C76.5262 30.7676 74.4688 32.8251 74.4688 35.3631C74.4688 37.9011 76.5262 39.9585 79.0643 39.9585Z" fill="#6538B2"/>
<path d="M83.6598 66.1111C83.6598 63.5627 81.5918 61.5156 79.0643 61.5156C76.5367 61.5156 74.4688 63.5836 74.4688 66.1111C74.4688 68.6386 76.5367 70.7066 79.0643 70.7066C81.5918 70.7066 83.6598 68.6386 83.6598 66.1111Z" fill="#6538B2"/>
<path d="M83.6598 96.8826C83.6598 94.3341 81.5918 92.2871 79.0643 92.2871C76.5367 92.2871 74.4688 94.355 74.4688 96.8826C74.4688 99.4101 76.5367 101.478 79.0643 101.478C81.5918 101.478 83.6598 99.4101 83.6598 96.8826Z" fill="#6538B2"/>
<path d="M79.0643 132.246C81.6023 132.246 83.6598 130.188 83.6598 127.65C83.6598 125.112 81.6023 123.055 79.0643 123.055C76.5262 123.055 74.4688 125.112 74.4688 127.65C74.4688 130.188 76.5262 132.246 79.0643 132.246Z" fill="#6538B2"/>
<path d="M79.0643 163.015C81.6023 163.015 83.6598 160.958 83.6598 158.42C83.6598 155.882 81.6023 153.824 79.0643 153.824C76.5262 153.824 74.4688 155.882 74.4688 158.42C74.4688 160.958 76.5262 163.015 79.0643 163.015Z" fill="#6538B2"/>
<path d="M103.878 9.19095C106.416 9.19095 108.473 7.13345 108.473 4.59544C108.473 2.05743 106.416 0 103.878 0C101.34 0 99.2822 2.05743 99.2822 4.59544C99.2822 7.13345 101.34 9.19095 103.878 9.19095Z" fill="#6538B2"/>
<path d="M103.878 39.9585C106.416 39.9585 108.473 37.9011 108.473 35.3631C108.473 32.8251 106.416 30.7676 103.878 30.7676C101.34 30.7676 99.2822 32.8251 99.2822 35.3631C99.2822 37.9011 101.34 39.9585 103.878 39.9585Z" fill="#6538B2"/>
<path d="M108.473 66.1111C108.473 63.5627 106.405 61.5156 103.878 61.5156C101.35 61.5156 99.2822 63.5836 99.2822 66.1111C99.2822 68.6386 101.35 70.7066 103.878 70.7066C106.405 70.7066 108.473 68.6386 108.473 66.1111Z" fill="#6538B2"/>
<path d="M108.473 96.8826C108.473 94.3341 106.405 92.2871 103.878 92.2871C101.35 92.2871 99.2822 94.355 99.2822 96.8826C99.2822 99.4101 101.35 101.478 103.878 101.478C106.405 101.478 108.473 99.4101 108.473 96.8826Z" fill="#6538B2"/>
<path d="M103.878 132.246C106.416 132.246 108.473 130.188 108.473 127.65C108.473 125.112 106.416 123.055 103.878 123.055C101.34 123.055 99.2822 125.112 99.2822 127.65C99.2822 130.188 101.34 132.246 103.878 132.246Z" fill="#6538B2"/>
<path d="M103.878 163.015C106.416 163.015 108.473 160.958 108.473 158.42C108.473 155.882 106.416 153.824 103.878 153.824C101.34 153.824 99.2822 155.882 99.2822 158.42C99.2822 160.958 101.34 163.015 103.878 163.015Z" fill="#6538B2"/>
<path d="M133.29 4.59544C133.29 2.04704 131.222 0 128.694 0C126.167 0 124.099 2.06793 124.099 4.59544C124.099 7.12295 126.167 9.19095 128.694 9.19095C131.222 9.19095 133.29 7.12295 133.29 4.59544Z" fill="#6538B2"/>
<path d="M133.29 35.3631C133.29 32.8147 131.222 30.7676 128.694 30.7676C126.167 30.7676 124.099 32.8356 124.099 35.3631C124.099 37.8906 126.167 39.9585 128.694 39.9585C131.222 39.9585 133.29 37.8906 133.29 35.3631Z" fill="#6538B2"/>
<path d="M133.29 66.1111C133.29 63.5627 131.222 61.5156 128.694 61.5156C126.167 61.5156 124.099 63.5836 124.099 66.1111C124.099 68.6386 126.167 70.7066 128.694 70.7066C131.222 70.7066 133.29 68.6386 133.29 66.1111Z" fill="#6538B2"/>
<path d="M133.29 96.8826C133.29 94.3341 131.222 92.2871 128.694 92.2871C126.167 92.2871 124.099 94.355 124.099 96.8826C124.099 99.4101 126.167 101.478 128.694 101.478C131.222 101.478 133.29 99.4101 133.29 96.8826Z" fill="#6538B2"/>
<path d="M133.29 127.65C133.29 125.102 131.222 123.055 128.694 123.055C126.167 123.055 124.099 125.123 124.099 127.65C124.099 130.178 126.167 132.246 128.694 132.246C131.222 132.246 133.29 130.178 133.29 127.65Z" fill="#6538B2"/>
<path d="M133.29 158.42C133.29 155.871 131.222 153.824 128.694 153.824C126.167 153.824 124.099 155.892 124.099 158.42C124.099 160.947 126.167 163.015 128.694 163.015C131.222 163.015 133.29 160.947 133.29 158.42Z" fill="#6538B2"/>
</svg>
