<svg width="23" height="20" viewBox="0 0 23 20" fill="none" xmlns="http://www.w3.org/2000/svg">
<path fill-rule="evenodd" clip-rule="evenodd" d="M1.57932 8.47292C7.74625 5.69535 11.8585 3.86421 13.9161 2.97949C19.7909 0.453445 21.0116 0.014644 21.8073 0.00015447C21.9823 -0.00303211 22.3736 0.0418016 22.627 0.254408C22.841 0.433929 22.8999 0.676435 22.9281 0.846641C22.9563 1.01685 22.9913 1.40458 22.9634 1.70754C22.6451 5.16551 21.2676 13.5571 20.5668 17.4301C20.2702 19.0689 19.6863 19.6184 19.1211 19.6721C18.1482 19.7647 17.3608 19.1844 16.4843 18.5384C16.254 18.3686 16.0175 18.1944 15.7699 18.0266C14.798 17.368 14.0468 16.8391 13.2937 16.3089C12.6041 15.8234 11.9128 15.3368 11.0489 14.7483C9.25134 13.5237 10.0038 12.7738 11.0073 11.7738C11.1697 11.6119 11.3387 11.4435 11.5046 11.2654C11.5786 11.1859 11.9407 10.8379 12.4512 10.3472L12.4513 10.3472L12.4513 10.3471C14.0891 8.77316 17.2537 5.7317 17.3335 5.37973C17.3466 5.32199 17.3588 5.10675 17.2351 4.99309C17.1114 4.87944 16.9289 4.9183 16.7971 4.94921C16.6104 4.99303 13.636 7.02535 7.87407 11.0462C7.02981 11.6455 6.26511 11.9375 5.57996 11.9222C4.82464 11.9053 3.3717 11.4807 2.2916 11.1177C2.133 11.0644 1.97831 11.0142 1.82901 10.9656L1.8289 10.9656C0.73106 10.6087 -0.075142 10.3467 0.00556561 9.68114C0.0533209 9.28734 0.577906 8.8846 1.57932 8.47292Z" fill="black"/>
</svg>
