<svg width="19" height="22" viewBox="0 0 19 22" fill="none" xmlns="http://www.w3.org/2000/svg">
<path d="M15.9045 4.29758C14.7496 3.54457 13.916 2.33976 13.656 0.93528C13.5998 0.631831 13.569 0.319532 13.569 0H9.88295L9.87704 14.7721C9.81507 16.4263 8.45357 17.754 6.78449 17.754C6.26573 17.754 5.77727 17.6243 5.34719 17.398C4.36095 16.879 3.68602 15.8452 3.68602 14.6556C3.68602 12.9471 5.07606 11.557 6.78449 11.557C7.10341 11.557 7.40934 11.6097 7.69873 11.7003V7.93734C7.39924 7.89656 7.09496 7.87107 6.78449 7.87107C3.04344 7.87107 0 10.9146 0 14.6556C0 16.9509 1.14679 18.9821 2.89634 20.2104C3.99835 20.984 5.33882 21.44 6.78449 21.44C10.5255 21.44 13.569 18.3966 13.569 14.6556V7.16489C15.0147 8.20252 16.7859 8.81398 18.6972 8.81398V5.12801C17.6676 5.12801 16.7087 4.82194 15.9045 4.29758" fill="black"/>
</svg>
