<svg width="958" height="167" viewBox="0 0 958 167" fill="none" xmlns="http://www.w3.org/2000/svg">
<rect x="587" y="100" width="370" height="46" rx="7" fill="#FFC001" stroke="#FFE38E" stroke-width="2"/>
<rect y="57" width="575" height="37" rx="6" fill="#FE015E"/>
<path d="M128.398 45.4205V43.6818L136.068 31.5455H137.33V34.2386H136.477L130.682 43.4091V43.5455H141.011V45.4205H128.398ZM136.614 49V44.892V44.0824V31.5455H138.625V49H136.614ZM151.262 31.5455H153.785L159.717 46.0341H159.921L165.853 31.5455H168.376V49H166.398V35.7386H166.228L160.773 49H158.864L153.41 35.7386H153.239V49H151.262V31.5455ZM177.83 49.2727C176.568 49.2727 175.48 48.9943 174.565 48.4375C173.656 47.875 172.955 47.0909 172.46 46.0852C171.972 45.0739 171.727 43.8977 171.727 42.5568C171.727 41.2159 171.972 40.0341 172.46 39.0114C172.955 37.983 173.642 37.1818 174.523 36.608C175.409 36.0284 176.443 35.7386 177.625 35.7386C178.307 35.7386 178.98 35.8523 179.645 36.0795C180.31 36.3068 180.915 36.6761 181.46 37.1875C182.006 37.6932 182.44 38.3636 182.764 39.1989C183.088 40.0341 183.25 41.0625 183.25 42.2841V43.1364H173.159V41.3977H181.205C181.205 40.6591 181.057 40 180.761 39.4205C180.472 38.8409 180.057 38.3835 179.517 38.0483C178.983 37.7131 178.352 37.5455 177.625 37.5455C176.824 37.5455 176.131 37.7443 175.545 38.142C174.966 38.5341 174.52 39.0455 174.207 39.6761C173.895 40.3068 173.739 40.983 173.739 41.7045V42.8636C173.739 43.8523 173.909 44.6903 174.25 45.3778C174.597 46.0597 175.077 46.5795 175.69 46.9375C176.304 47.2898 177.017 47.4659 177.83 47.4659C178.358 47.4659 178.835 47.392 179.261 47.2443C179.693 47.0909 180.065 46.8636 180.378 46.5625C180.69 46.2557 180.932 45.875 181.102 45.4205L183.045 45.9659C182.841 46.625 182.497 47.2045 182.014 47.7045C181.531 48.1989 180.935 48.5852 180.224 48.8636C179.514 49.1364 178.716 49.2727 177.83 49.2727ZM186.31 49V35.9091H188.321V49H186.31ZM187.332 33.7273C186.94 33.7273 186.602 33.5938 186.318 33.3267C186.04 33.0597 185.901 32.7386 185.901 32.3636C185.901 31.9886 186.04 31.6676 186.318 31.4006C186.602 31.1335 186.94 31 187.332 31C187.724 31 188.06 31.1335 188.338 31.4006C188.622 31.6676 188.764 31.9886 188.764 32.3636C188.764 32.7386 188.622 33.0597 188.338 33.3267C188.06 33.5938 187.724 33.7273 187.332 33.7273ZM206.255 39.3352V41.2102H198.619V39.3352H206.255ZM216.51 49V47.4659L222.271 41.1591C222.947 40.4205 223.504 39.7784 223.942 39.233C224.379 38.6818 224.703 38.1648 224.913 37.6818C225.129 37.1932 225.237 36.6818 225.237 36.1477C225.237 35.5341 225.089 35.0028 224.794 34.554C224.504 34.1051 224.107 33.7585 223.601 33.5142C223.095 33.2699 222.527 33.1477 221.896 33.1477C221.226 33.1477 220.641 33.2869 220.141 33.5653C219.646 33.8381 219.263 34.2216 218.99 34.7159C218.723 35.2102 218.589 35.7898 218.589 36.4545H216.578C216.578 35.4318 216.814 34.5341 217.286 33.7614C217.757 32.9886 218.399 32.3864 219.212 31.9545C220.03 31.5227 220.947 31.3068 221.964 31.3068C222.987 31.3068 223.893 31.5227 224.683 31.9545C225.473 32.3864 226.092 32.9687 226.541 33.7017C226.99 34.4347 227.214 35.25 227.214 36.1477C227.214 36.7898 227.098 37.4176 226.865 38.0312C226.638 38.6392 226.24 39.3182 225.672 40.0682C225.109 40.8125 224.328 41.7216 223.328 42.7955L219.408 46.9886V47.125H227.521V49H216.51ZM236.734 49.2386C235.45 49.2386 234.357 48.8892 233.453 48.1903C232.55 47.4858 231.859 46.4659 231.382 45.1307C230.905 43.7898 230.666 42.1705 230.666 40.2727C230.666 38.3864 230.905 36.7756 231.382 35.4403C231.865 34.0994 232.558 33.0767 233.462 32.3722C234.371 31.6619 235.462 31.3068 236.734 31.3068C238.007 31.3068 239.095 31.6619 239.999 32.3722C240.908 33.0767 241.601 34.0994 242.078 35.4403C242.561 36.7756 242.803 38.3864 242.803 40.2727C242.803 42.1705 242.564 43.7898 242.087 45.1307C241.609 46.4659 240.919 47.4858 240.016 48.1903C239.112 48.8892 238.018 49.2386 236.734 49.2386ZM236.734 47.3636C238.007 47.3636 238.996 46.75 239.7 45.5227C240.405 44.2955 240.757 42.5455 240.757 40.2727C240.757 38.7614 240.595 37.4744 240.271 36.4119C239.953 35.3494 239.493 34.5398 238.891 33.983C238.294 33.4261 237.575 33.1477 236.734 33.1477C235.473 33.1477 234.487 33.7699 233.777 35.0142C233.067 36.2528 232.712 38.0057 232.712 40.2727C232.712 41.7841 232.871 43.0682 233.189 44.125C233.507 45.1818 233.964 45.9858 234.561 46.5369C235.163 47.0881 235.888 47.3636 236.734 47.3636ZM253.098 31.5455H255.621L261.553 46.0341H261.757L267.689 31.5455H270.212V49H268.234V35.7386H268.064L262.609 49H260.7L255.246 35.7386H255.075V49H253.098V31.5455ZM279.665 49.2727C278.404 49.2727 277.316 48.9943 276.401 48.4375C275.492 47.875 274.79 47.0909 274.296 46.0852C273.808 45.0739 273.563 43.8977 273.563 42.5568C273.563 41.2159 273.808 40.0341 274.296 39.0114C274.79 37.983 275.478 37.1818 276.359 36.608C277.245 36.0284 278.279 35.7386 279.461 35.7386C280.143 35.7386 280.816 35.8523 281.481 36.0795C282.146 36.3068 282.751 36.6761 283.296 37.1875C283.842 37.6932 284.276 38.3636 284.6 39.1989C284.924 40.0341 285.086 41.0625 285.086 42.2841V43.1364H274.995V41.3977H283.04C283.04 40.6591 282.893 40 282.597 39.4205C282.308 38.8409 281.893 38.3835 281.353 38.0483C280.819 37.7131 280.188 37.5455 279.461 37.5455C278.66 37.5455 277.967 37.7443 277.381 38.142C276.802 38.5341 276.356 39.0455 276.043 39.6761C275.731 40.3068 275.575 40.983 275.575 41.7045V42.8636C275.575 43.8523 275.745 44.6903 276.086 45.3778C276.433 46.0597 276.913 46.5795 277.526 46.9375C278.14 47.2898 278.853 47.4659 279.665 47.4659C280.194 47.4659 280.671 47.392 281.097 47.2443C281.529 47.0909 281.901 46.8636 282.214 46.5625C282.526 46.2557 282.768 45.875 282.938 45.4205L284.881 45.9659C284.677 46.625 284.333 47.2045 283.85 47.7045C283.367 48.1989 282.771 48.5852 282.06 48.8636C281.35 49.1364 280.552 49.2727 279.665 49.2727ZM288.146 49V35.9091H290.157V49H288.146ZM289.168 33.7273C288.776 33.7273 288.438 33.5938 288.154 33.3267C287.876 33.0597 287.737 32.7386 287.737 32.3636C287.737 31.9886 287.876 31.6676 288.154 31.4006C288.438 31.1335 288.776 31 289.168 31C289.56 31 289.896 31.1335 290.174 31.4006C290.458 31.6676 290.6 31.9886 290.6 32.3636C290.6 32.7386 290.458 33.0597 290.174 33.3267C289.896 33.5938 289.56 33.7273 289.168 33.7273Z" fill="#1F2937"/>
<path d="M311.114 49V31.5455H317.011C318.381 31.5455 319.5 31.7926 320.369 32.2869C321.244 32.7756 321.892 33.4375 322.312 34.2727C322.733 35.108 322.943 36.0398 322.943 37.0682C322.943 38.0966 322.733 39.0312 322.312 39.8722C321.898 40.7131 321.256 41.3835 320.386 41.8835C319.517 42.3778 318.403 42.625 317.045 42.625H312.818V40.75H316.977C317.915 40.75 318.668 40.5881 319.236 40.2642C319.804 39.9403 320.216 39.5028 320.472 38.9517C320.733 38.3949 320.864 37.767 320.864 37.0682C320.864 36.3693 320.733 35.7443 320.472 35.1932C320.216 34.642 319.801 34.2102 319.227 33.8977C318.653 33.5795 317.892 33.4205 316.943 33.4205H313.227V49H311.114ZM331.423 49.2727C330.162 49.2727 329.074 48.9943 328.159 48.4375C327.25 47.875 326.548 47.0909 326.054 46.0852C325.565 45.0739 325.321 43.8977 325.321 42.5568C325.321 41.2159 325.565 40.0341 326.054 39.0114C326.548 37.983 327.236 37.1818 328.116 36.608C329.003 36.0284 330.037 35.7386 331.219 35.7386C331.901 35.7386 332.574 35.8523 333.239 36.0795C333.903 36.3068 334.509 36.6761 335.054 37.1875C335.599 37.6932 336.034 38.3636 336.358 39.1989C336.682 40.0341 336.844 41.0625 336.844 42.2841V43.1364H326.753V41.3977H334.798C334.798 40.6591 334.651 40 334.355 39.4205C334.065 38.8409 333.651 38.3835 333.111 38.0483C332.577 37.7131 331.946 37.5455 331.219 37.5455C330.418 37.5455 329.724 37.7443 329.139 38.142C328.56 38.5341 328.114 39.0455 327.801 39.6761C327.489 40.3068 327.332 40.983 327.332 41.7045V42.8636C327.332 43.8523 327.503 44.6903 327.844 45.3778C328.19 46.0597 328.67 46.5795 329.284 46.9375C329.898 47.2898 330.611 47.4659 331.423 47.4659C331.952 47.4659 332.429 47.392 332.855 47.2443C333.287 47.0909 333.659 46.8636 333.972 46.5625C334.284 46.2557 334.526 45.875 334.696 45.4205L336.639 45.9659C336.435 46.625 336.091 47.2045 335.608 47.7045C335.125 48.1989 334.528 48.5852 333.818 48.8636C333.108 49.1364 332.31 49.2727 331.423 49.2727ZM341.915 41.125V49H339.903V35.9091H341.847V37.9545H342.017C342.324 37.2898 342.79 36.7557 343.415 36.3523C344.04 35.9432 344.847 35.7386 345.835 35.7386C346.722 35.7386 347.497 35.9205 348.162 36.2841C348.827 36.642 349.344 37.1875 349.713 37.9205C350.082 38.6477 350.267 39.5682 350.267 40.6818V49H348.256V40.8182C348.256 39.7898 347.989 38.9886 347.455 38.4148C346.92 37.8352 346.188 37.5455 345.256 37.5455C344.614 37.5455 344.04 37.6847 343.534 37.9631C343.034 38.2415 342.639 38.6477 342.349 39.1818C342.06 39.7159 341.915 40.3636 341.915 41.125ZM358.886 49.2727C357.795 49.2727 356.832 48.9972 355.996 48.446C355.161 47.8892 354.508 47.1051 354.036 46.0938C353.565 45.0767 353.329 43.875 353.329 42.4886C353.329 41.1136 353.565 39.9205 354.036 38.9091C354.508 37.8977 355.164 37.1165 356.005 36.5653C356.846 36.0142 357.817 35.7386 358.92 35.7386C359.772 35.7386 360.445 35.8807 360.94 36.1648C361.44 36.4432 361.82 36.7614 362.082 37.1193C362.349 37.4716 362.556 37.7614 362.704 37.9886H362.874V31.5455H364.886V49H362.942V46.9886H362.704C362.556 47.2273 362.346 47.5284 362.073 47.892C361.8 48.25 361.411 48.571 360.906 48.8551C360.4 49.1335 359.727 49.2727 358.886 49.2727ZM359.158 47.4659C359.965 47.4659 360.647 47.2557 361.204 46.8352C361.761 46.4091 362.184 45.821 362.474 45.071C362.763 44.3153 362.908 43.4432 362.908 42.4545C362.908 41.4773 362.766 40.6222 362.482 39.8892C362.198 39.1506 361.778 38.5767 361.221 38.1676C360.664 37.7528 359.977 37.5455 359.158 37.5455C358.306 37.5455 357.596 37.7642 357.028 38.2017C356.465 38.6335 356.042 39.2216 355.758 39.9659C355.479 40.7045 355.34 41.5341 355.34 42.4545C355.34 43.3864 355.482 44.233 355.766 44.9943C356.056 45.75 356.482 46.3523 357.045 46.8011C357.613 47.2443 358.317 47.4659 359.158 47.4659ZM372.701 49.3068C371.871 49.3068 371.119 49.1506 370.442 48.8381C369.766 48.5199 369.229 48.0625 368.832 47.4659C368.434 46.8636 368.235 46.1364 368.235 45.2841C368.235 44.5341 368.383 43.9261 368.678 43.4602C368.974 42.9886 369.369 42.6193 369.863 42.3523C370.357 42.0852 370.903 41.8864 371.499 41.7557C372.102 41.6193 372.707 41.5114 373.315 41.4318C374.11 41.3295 374.755 41.2528 375.249 41.2017C375.749 41.1449 376.113 41.0511 376.34 40.9205C376.573 40.7898 376.69 40.5625 376.69 40.2386V40.1705C376.69 39.3295 376.46 38.6761 375.999 38.2102C375.545 37.7443 374.854 37.5114 373.928 37.5114C372.968 37.5114 372.215 37.7216 371.67 38.142C371.124 38.5625 370.741 39.0114 370.519 39.4886L368.61 38.8068C368.951 38.0114 369.406 37.392 369.974 36.9489C370.548 36.5 371.173 36.1875 371.849 36.0114C372.531 35.8295 373.201 35.7386 373.86 35.7386C374.281 35.7386 374.763 35.7898 375.309 35.892C375.86 35.9886 376.391 36.1903 376.903 36.4972C377.42 36.804 377.849 37.267 378.19 37.8864C378.531 38.5057 378.701 39.3352 378.701 40.375V49H376.69V47.2273H376.587C376.451 47.5114 376.224 47.8153 375.906 48.1392C375.587 48.4631 375.164 48.7386 374.636 48.9659C374.107 49.1932 373.462 49.3068 372.701 49.3068ZM373.008 47.5C373.803 47.5 374.474 47.3438 375.019 47.0312C375.57 46.7188 375.985 46.3153 376.263 45.821C376.548 45.3267 376.69 44.8068 376.69 44.2614V42.4205C376.604 42.5227 376.417 42.6165 376.127 42.7017C375.843 42.7812 375.513 42.8523 375.138 42.9148C374.769 42.9716 374.408 43.0227 374.056 43.0682C373.71 43.108 373.428 43.142 373.212 43.1705C372.69 43.2386 372.201 43.3494 371.746 43.5028C371.298 43.6506 370.934 43.875 370.656 44.1761C370.383 44.4716 370.246 44.875 370.246 45.3864C370.246 46.0852 370.505 46.6136 371.022 46.9716C371.545 47.3239 372.207 47.5 373.008 47.5ZM388.202 35.9091V37.6136H381.145V35.9091H388.202ZM383.259 49V34.1023C383.259 33.3523 383.435 32.7273 383.787 32.2273C384.139 31.7273 384.597 31.3523 385.159 31.1023C385.722 30.8523 386.315 30.7273 386.94 30.7273C387.435 30.7273 387.838 30.767 388.151 30.8466C388.463 30.9261 388.696 31 388.849 31.0682L388.27 32.8068C388.168 32.7727 388.026 32.7301 387.844 32.679C387.668 32.6278 387.435 32.6023 387.145 32.6023C386.48 32.6023 386 32.7699 385.705 33.1051C385.415 33.4403 385.27 33.9318 385.27 34.5795V49H383.259ZM396.714 35.9091V37.6136H389.93V35.9091H396.714ZM391.907 32.7727H393.918V45.25C393.918 45.8182 394.001 46.2443 394.165 46.5284C394.336 46.8068 394.552 46.9943 394.813 47.0909C395.08 47.1818 395.362 47.2273 395.657 47.2273C395.879 47.2273 396.06 47.2159 396.202 47.1932C396.344 47.1648 396.458 47.142 396.543 47.125L396.952 48.9318C396.816 48.983 396.626 49.0341 396.381 49.0852C396.137 49.142 395.827 49.1705 395.452 49.1705C394.884 49.1705 394.327 49.0483 393.782 48.804C393.242 48.5597 392.793 48.1875 392.435 47.6875C392.083 47.1875 391.907 46.5568 391.907 45.7955V32.7727ZM403.592 49.3068C402.762 49.3068 402.009 49.1506 401.333 48.8381C400.657 48.5199 400.12 48.0625 399.722 47.4659C399.325 46.8636 399.126 46.1364 399.126 45.2841C399.126 44.5341 399.273 43.9261 399.569 43.4602C399.864 42.9886 400.259 42.6193 400.754 42.3523C401.248 42.0852 401.793 41.8864 402.39 41.7557C402.992 41.6193 403.597 41.5114 404.205 41.4318C405.001 41.3295 405.646 41.2528 406.14 41.2017C406.64 41.1449 407.004 41.0511 407.231 40.9205C407.464 40.7898 407.58 40.5625 407.58 40.2386V40.1705C407.58 39.3295 407.35 38.6761 406.89 38.2102C406.435 37.7443 405.745 37.5114 404.819 37.5114C403.859 37.5114 403.106 37.7216 402.56 38.142C402.015 38.5625 401.631 39.0114 401.41 39.4886L399.501 38.8068C399.842 38.0114 400.296 37.392 400.864 36.9489C401.438 36.5 402.063 36.1875 402.739 36.0114C403.421 35.8295 404.092 35.7386 404.751 35.7386C405.171 35.7386 405.654 35.7898 406.2 35.892C406.751 35.9886 407.282 36.1903 407.793 36.4972C408.31 36.804 408.739 37.267 409.08 37.8864C409.421 38.5057 409.592 39.3352 409.592 40.375V49H407.58V47.2273H407.478C407.342 47.5114 407.114 47.8153 406.796 48.1392C406.478 48.4631 406.055 48.7386 405.526 48.9659C404.998 49.1932 404.353 49.3068 403.592 49.3068ZM403.898 47.5C404.694 47.5 405.364 47.3438 405.91 47.0312C406.461 46.7188 406.876 46.3153 407.154 45.821C407.438 45.3267 407.58 44.8068 407.58 44.2614V42.4205C407.495 42.5227 407.308 42.6165 407.018 42.7017C406.734 42.7812 406.404 42.8523 406.029 42.9148C405.66 42.9716 405.299 43.0227 404.947 43.0682C404.6 43.108 404.319 43.142 404.103 43.1705C403.58 43.2386 403.092 43.3494 402.637 43.5028C402.188 43.6506 401.825 43.875 401.546 44.1761C401.273 44.4716 401.137 44.875 401.137 45.3864C401.137 46.0852 401.396 46.6136 401.913 46.9716C402.435 47.3239 403.097 47.5 403.898 47.5ZM413.263 49V35.9091H415.206V37.8864H415.342C415.581 37.2386 416.013 36.7131 416.638 36.3097C417.263 35.9062 417.967 35.7045 418.751 35.7045C418.899 35.7045 419.084 35.7074 419.305 35.7131C419.527 35.7187 419.695 35.7273 419.808 35.7386V37.7841C419.74 37.767 419.584 37.7415 419.339 37.7074C419.101 37.6676 418.848 37.6477 418.581 37.6477C417.945 37.6477 417.376 37.7812 416.876 38.0483C416.382 38.3097 415.99 38.6733 415.7 39.1392C415.416 39.5994 415.274 40.125 415.274 40.7159V49H413.263ZM426.045 49.3068C425.215 49.3068 424.462 49.1506 423.786 48.8381C423.11 48.5199 422.573 48.0625 422.175 47.4659C421.778 46.8636 421.579 46.1364 421.579 45.2841C421.579 44.5341 421.727 43.9261 422.022 43.4602C422.317 42.9886 422.712 42.6193 423.207 42.3523C423.701 42.0852 424.246 41.8864 424.843 41.7557C425.445 41.6193 426.05 41.5114 426.658 41.4318C427.454 41.3295 428.099 41.2528 428.593 41.2017C429.093 41.1449 429.457 41.0511 429.684 40.9205C429.917 40.7898 430.033 40.5625 430.033 40.2386V40.1705C430.033 39.3295 429.803 38.6761 429.343 38.2102C428.888 37.7443 428.198 37.5114 427.272 37.5114C426.312 37.5114 425.559 37.7216 425.013 38.142C424.468 38.5625 424.085 39.0114 423.863 39.4886L421.954 38.8068C422.295 38.0114 422.749 37.392 423.317 36.9489C423.891 36.5 424.516 36.1875 425.192 36.0114C425.874 35.8295 426.545 35.7386 427.204 35.7386C427.624 35.7386 428.107 35.7898 428.653 35.892C429.204 35.9886 429.735 36.1903 430.246 36.4972C430.763 36.804 431.192 37.267 431.533 37.8864C431.874 38.5057 432.045 39.3352 432.045 40.375V49H430.033V47.2273H429.931C429.795 47.5114 429.567 47.8153 429.249 48.1392C428.931 48.4631 428.508 48.7386 427.979 48.9659C427.451 49.1932 426.806 49.3068 426.045 49.3068ZM426.352 47.5C427.147 47.5 427.817 47.3438 428.363 47.0312C428.914 46.7188 429.329 46.3153 429.607 45.821C429.891 45.3267 430.033 44.8068 430.033 44.2614V42.4205C429.948 42.5227 429.761 42.6165 429.471 42.7017C429.187 42.7812 428.857 42.8523 428.482 42.9148C428.113 42.9716 427.752 43.0227 427.4 43.0682C427.053 43.108 426.772 43.142 426.556 43.1705C426.033 43.2386 425.545 43.3494 425.09 43.5028C424.641 43.6506 424.278 43.875 423.999 44.1761C423.727 44.4716 423.59 44.875 423.59 45.3864C423.59 46.0852 423.849 46.6136 424.366 46.9716C424.888 47.3239 425.55 47.5 426.352 47.5ZM437.727 41.125V49H435.716V35.9091H437.659V37.9545H437.83C438.136 37.2898 438.602 36.7557 439.227 36.3523C439.852 35.9432 440.659 35.7386 441.648 35.7386C442.534 35.7386 443.31 35.9205 443.974 36.2841C444.639 36.642 445.156 37.1875 445.526 37.9205C445.895 38.6477 446.08 39.5682 446.08 40.6818V49H444.068V40.8182C444.068 39.7898 443.801 38.9886 443.267 38.4148C442.733 37.8352 442 37.5455 441.068 37.5455C440.426 37.5455 439.852 37.6847 439.347 37.9631C438.847 38.2415 438.452 38.6477 438.162 39.1818C437.872 39.7159 437.727 40.3636 437.727 41.125Z" fill="#1F2937"/>
<path d="M619.147 91V89.4659L624.908 83.1591C625.584 82.4205 626.141 81.7784 626.578 81.233C627.016 80.6818 627.34 80.1648 627.55 79.6818C627.766 79.1932 627.874 78.6818 627.874 78.1477C627.874 77.5341 627.726 77.0028 627.431 76.554C627.141 76.1051 626.743 75.7585 626.238 75.5142C625.732 75.2699 625.164 75.1477 624.533 75.1477C623.863 75.1477 623.277 75.2869 622.777 75.5653C622.283 75.8381 621.9 76.2216 621.627 76.7159C621.36 77.2102 621.226 77.7898 621.226 78.4545H619.215C619.215 77.4318 619.451 76.5341 619.922 75.7614C620.394 74.9886 621.036 74.3864 621.848 73.9545C622.667 73.5227 623.584 73.3068 624.601 73.3068C625.624 73.3068 626.53 73.5227 627.32 73.9545C628.11 74.3864 628.729 74.9687 629.178 75.7017C629.627 76.4347 629.851 77.25 629.851 78.1477C629.851 78.7898 629.735 79.4176 629.502 80.0312C629.275 80.6392 628.877 81.3182 628.309 82.0682C627.746 82.8125 626.965 83.7216 625.965 84.7955L622.044 88.9886V89.125H630.158V91H619.147ZM632.894 87.4205V85.6818L640.564 73.5455H641.826V76.2386H640.973L635.178 85.4091V85.5455H645.507V87.4205H632.894ZM641.11 91V86.892V86.0824V73.5455H643.121V91H641.11ZM655.758 73.5455H658.281L664.213 88.0341H664.417L670.349 73.5455H672.872V91H670.895V77.7386H670.724L665.27 91H663.36L657.906 77.7386H657.735V91H655.758V73.5455ZM682.326 91.2727C681.064 91.2727 679.976 90.9943 679.061 90.4375C678.152 89.875 677.451 89.0909 676.956 88.0852C676.468 87.0739 676.223 85.8977 676.223 84.5568C676.223 83.2159 676.468 82.0341 676.956 81.0114C677.451 79.983 678.138 79.1818 679.019 78.608C679.905 78.0284 680.939 77.7386 682.121 77.7386C682.803 77.7386 683.476 77.8523 684.141 78.0795C684.806 78.3068 685.411 78.6761 685.956 79.1875C686.502 79.6932 686.936 80.3636 687.26 81.1989C687.584 82.0341 687.746 83.0625 687.746 84.2841V85.1364H677.655V83.3977H685.701C685.701 82.6591 685.553 82 685.257 81.4205C684.968 80.8409 684.553 80.3835 684.013 80.0483C683.479 79.7131 682.848 79.5455 682.121 79.5455C681.32 79.5455 680.627 79.7443 680.042 80.142C679.462 80.5341 679.016 81.0455 678.703 81.6761C678.391 82.3068 678.235 82.983 678.235 83.7045V84.8636C678.235 85.8523 678.405 86.6903 678.746 87.3778C679.093 88.0597 679.573 88.5795 680.186 88.9375C680.8 89.2898 681.513 89.4659 682.326 89.4659C682.854 89.4659 683.331 89.392 683.757 89.2443C684.189 89.0909 684.561 88.8636 684.874 88.5625C685.186 88.2557 685.428 87.875 685.598 87.4205L687.542 87.9659C687.337 88.625 686.993 89.2045 686.51 89.7045C686.027 90.1989 685.431 90.5852 684.721 90.8636C684.01 91.1364 683.212 91.2727 682.326 91.2727ZM690.806 91V77.9091H692.817V91H690.806ZM691.828 75.7273C691.436 75.7273 691.098 75.5938 690.814 75.3267C690.536 75.0597 690.397 74.7386 690.397 74.3636C690.397 73.9886 690.536 73.6676 690.814 73.4006C691.098 73.1335 691.436 73 691.828 73C692.221 73 692.556 73.1335 692.834 73.4006C693.118 73.6676 693.26 73.9886 693.26 74.3636C693.26 74.7386 693.118 75.0597 692.834 75.3267C692.556 75.5938 692.221 75.7273 691.828 75.7273Z" fill="#1F2937"/>
<path d="M726.5 91H721.114V73.5455H726.739C728.432 73.5455 729.881 73.8949 731.085 74.5938C732.29 75.2869 733.213 76.2841 733.855 77.5852C734.497 78.8807 734.818 80.4318 734.818 82.2386C734.818 84.0568 734.494 85.6222 733.847 86.9347C733.199 88.2415 732.256 89.2472 731.017 89.9517C729.778 90.6506 728.273 91 726.5 91ZM723.227 89.125H726.364C727.807 89.125 729.003 88.8466 729.952 88.2898C730.901 87.733 731.608 86.9403 732.074 85.9119C732.54 84.8835 732.773 83.6591 732.773 82.2386C732.773 80.8295 732.543 79.6165 732.082 78.5994C731.622 77.5767 730.935 76.7926 730.02 76.2472C729.105 75.696 727.966 75.4205 726.602 75.4205H723.227V89.125ZM745.591 82.5795V84.4545H737.955V82.5795H745.591ZM754.073 91.2727C752.982 91.2727 752.019 90.9972 751.184 90.446C750.349 89.8892 749.695 89.1051 749.224 88.0938C748.752 87.0767 748.516 85.875 748.516 84.4886C748.516 83.1136 748.752 81.9205 749.224 80.9091C749.695 79.8977 750.352 79.1165 751.192 78.5653C752.033 78.0142 753.005 77.7386 754.107 77.7386C754.96 77.7386 755.633 77.8807 756.127 78.1648C756.627 78.4432 757.008 78.7614 757.269 79.1193C757.536 79.4716 757.744 79.7614 757.891 79.9886H758.062V73.5455H760.073V91H758.13V88.9886H757.891C757.744 89.2273 757.533 89.5284 757.261 89.892C756.988 90.25 756.599 90.571 756.093 90.8551C755.587 91.1335 754.914 91.2727 754.073 91.2727ZM754.346 89.4659C755.153 89.4659 755.835 89.2557 756.391 88.8352C756.948 88.4091 757.371 87.821 757.661 87.071C757.951 86.3153 758.096 85.4432 758.096 84.4545C758.096 83.4773 757.954 82.6222 757.67 81.8892C757.386 81.1506 756.965 80.5767 756.408 80.1676C755.852 79.7528 755.164 79.5455 754.346 79.5455C753.494 79.5455 752.783 79.7642 752.215 80.2017C751.653 80.6335 751.229 81.2216 750.945 81.9659C750.667 82.7045 750.528 83.5341 750.528 84.4545C750.528 85.3864 750.67 86.233 750.954 86.9943C751.244 87.75 751.67 88.3523 752.232 88.8011C752.8 89.2443 753.505 89.4659 754.346 89.4659ZM767.888 91.3068C767.059 91.3068 766.306 91.1506 765.63 90.8381C764.954 90.5199 764.417 90.0625 764.019 89.4659C763.621 88.8636 763.423 88.1364 763.423 87.2841C763.423 86.5341 763.57 85.9261 763.866 85.4602C764.161 84.9886 764.556 84.6193 765.05 84.3523C765.545 84.0852 766.09 83.8864 766.687 83.7557C767.289 83.6193 767.894 83.5114 768.502 83.4318C769.298 83.3295 769.942 83.2528 770.437 83.2017C770.937 83.1449 771.3 83.0511 771.528 82.9205C771.761 82.7898 771.877 82.5625 771.877 82.2386V82.1705C771.877 81.3295 771.647 80.6761 771.187 80.2102C770.732 79.7443 770.042 79.5114 769.116 79.5114C768.156 79.5114 767.403 79.7216 766.857 80.142C766.312 80.5625 765.928 81.0114 765.707 81.4886L763.798 80.8068C764.138 80.0114 764.593 79.392 765.161 78.9489C765.735 78.5 766.36 78.1875 767.036 78.0114C767.718 77.8295 768.388 77.7386 769.048 77.7386C769.468 77.7386 769.951 77.7898 770.496 77.892C771.048 77.9886 771.579 78.1903 772.09 78.4972C772.607 78.804 773.036 79.267 773.377 79.8864C773.718 80.5057 773.888 81.3352 773.888 82.375V91H771.877V89.2273H771.775C771.638 89.5114 771.411 89.8153 771.093 90.1392C770.775 90.4631 770.352 90.7386 769.823 90.9659C769.295 91.1932 768.65 91.3068 767.888 91.3068ZM768.195 89.5C768.991 89.5 769.661 89.3438 770.207 89.0312C770.758 88.7188 771.173 88.3153 771.451 87.821C771.735 87.3267 771.877 86.8068 771.877 86.2614V84.4205C771.792 84.5227 771.604 84.6165 771.315 84.7017C771.031 84.7812 770.701 84.8523 770.326 84.9148C769.957 84.9716 769.596 85.0227 769.244 85.0682C768.897 85.108 768.616 85.142 768.4 85.1705C767.877 85.2386 767.388 85.3494 766.934 85.5028C766.485 85.6506 766.121 85.875 765.843 86.1761C765.57 86.4716 765.434 86.875 765.434 87.3864C765.434 88.0852 765.692 88.6136 766.21 88.9716C766.732 89.3239 767.394 89.5 768.195 89.5ZM778.386 95.9091C778.045 95.9091 777.741 95.8807 777.474 95.8239C777.207 95.7727 777.023 95.7216 776.92 95.6705L777.432 93.8977C777.92 94.0227 778.352 94.0682 778.727 94.0341C779.102 94 779.435 93.8324 779.724 93.5312C780.02 93.2358 780.29 92.7557 780.534 92.0909L780.909 91.0682L776.068 77.9091H778.25L781.864 88.3409H782L785.614 77.9091H787.795L782.239 92.9091C781.989 93.5852 781.679 94.1449 781.31 94.5881C780.94 95.0369 780.511 95.3693 780.023 95.5852C779.54 95.8011 778.994 95.9091 778.386 95.9091ZM797.473 91V73.5455H803.371C804.734 73.5455 805.854 73.7784 806.729 74.2443C807.604 74.7045 808.251 75.3381 808.672 76.1449C809.092 76.9517 809.303 77.8693 809.303 78.8977C809.303 79.9261 809.092 80.8381 808.672 81.6335C808.251 82.429 807.607 83.054 806.737 83.5085C805.868 83.9574 804.757 84.1818 803.405 84.1818H798.632V82.2727H803.337C804.268 82.2727 805.018 82.1364 805.587 81.8636C806.161 81.5909 806.575 81.2045 806.831 80.7045C807.092 80.1989 807.223 79.5966 807.223 78.8977C807.223 78.1989 807.092 77.5881 806.831 77.0653C806.57 76.5426 806.152 76.1392 805.578 75.8551C805.004 75.5653 804.246 75.4205 803.303 75.4205H799.587V91H797.473ZM805.689 83.1591L809.984 91H807.53L803.303 83.1591H805.689ZM812.825 91V73.5455H818.722C820.092 73.5455 821.211 73.7926 822.08 74.2869C822.955 74.7756 823.603 75.4375 824.023 76.2727C824.444 77.108 824.654 78.0398 824.654 79.0682C824.654 80.0966 824.444 81.0312 824.023 81.8722C823.609 82.7131 822.967 83.3835 822.097 83.8835C821.228 84.3778 820.114 84.625 818.756 84.625H814.529V82.75H818.688C819.626 82.75 820.379 82.5881 820.947 82.2642C821.515 81.9403 821.927 81.5028 822.183 80.9517C822.444 80.3949 822.575 79.767 822.575 79.0682C822.575 78.3693 822.444 77.7443 822.183 77.1932C821.927 76.642 821.512 76.2102 820.938 75.8977C820.364 75.5795 819.603 75.4205 818.654 75.4205H814.938V91H812.825ZM842.104 79H839.991C839.866 78.392 839.647 77.858 839.335 77.3977C839.028 76.9375 838.653 76.5511 838.21 76.2386C837.772 75.9205 837.286 75.6818 836.752 75.5227C836.218 75.3636 835.661 75.2841 835.082 75.2841C834.025 75.2841 833.067 75.5511 832.21 76.0852C831.357 76.6193 830.678 77.4062 830.173 78.446C829.673 79.4858 829.423 80.7614 829.423 82.2727C829.423 83.7841 829.673 85.0597 830.173 86.0994C830.678 87.1392 831.357 87.9261 832.21 88.4602C833.067 88.9943 834.025 89.2614 835.082 89.2614C835.661 89.2614 836.218 89.1818 836.752 89.0227C837.286 88.8636 837.772 88.6278 838.21 88.3153C838.653 87.9972 839.028 87.608 839.335 87.1477C839.647 86.6818 839.866 86.1477 839.991 85.5455H842.104C841.945 86.4375 841.656 87.2358 841.235 87.9403C840.815 88.6449 840.292 89.2443 839.667 89.7386C839.042 90.2273 838.34 90.5994 837.562 90.8551C836.789 91.1108 835.962 91.2386 835.082 91.2386C833.593 91.2386 832.269 90.875 831.11 90.1477C829.951 89.4205 829.039 88.3864 828.374 87.0455C827.71 85.7045 827.377 84.1136 827.377 82.2727C827.377 80.4318 827.71 78.8409 828.374 77.5C829.039 76.1591 829.951 75.125 831.11 74.3977C832.269 73.6705 833.593 73.3068 835.082 73.3068C835.962 73.3068 836.789 73.4347 837.562 73.6903C838.34 73.946 839.042 74.321 839.667 74.8153C840.292 75.304 840.815 75.9006 841.235 76.6051C841.656 77.304 841.945 78.1023 842.104 79ZM859.565 79H857.452C857.327 78.392 857.108 77.858 856.795 77.3977C856.489 76.9375 856.114 76.5511 855.67 76.2386C855.233 75.9205 854.747 75.6818 854.213 75.5227C853.679 75.3636 853.122 75.2841 852.543 75.2841C851.486 75.2841 850.528 75.5511 849.67 76.0852C848.818 76.6193 848.139 77.4062 847.634 78.446C847.134 79.4858 846.884 80.7614 846.884 82.2727C846.884 83.7841 847.134 85.0597 847.634 86.0994C848.139 87.1392 848.818 87.9261 849.67 88.4602C850.528 88.9943 851.486 89.2614 852.543 89.2614C853.122 89.2614 853.679 89.1818 854.213 89.0227C854.747 88.8636 855.233 88.6278 855.67 88.3153C856.114 87.9972 856.489 87.608 856.795 87.1477C857.108 86.6818 857.327 86.1477 857.452 85.5455H859.565C859.406 86.4375 859.116 87.2358 858.696 87.9403C858.276 88.6449 857.753 89.2443 857.128 89.7386C856.503 90.2273 855.801 90.5994 855.023 90.8551C854.25 91.1108 853.423 91.2386 852.543 91.2386C851.054 91.2386 849.73 90.875 848.571 90.1477C847.412 89.4205 846.5 88.3864 845.835 87.0455C845.17 85.7045 844.838 84.1136 844.838 82.2727C844.838 80.4318 845.17 78.8409 845.835 77.5C846.5 76.1591 847.412 75.125 848.571 74.3977C849.73 73.6705 851.054 73.3068 852.543 73.3068C853.423 73.3068 854.25 73.4347 855.023 73.6903C855.801 73.946 856.503 74.321 857.128 74.8153C857.753 75.304 858.276 75.9006 858.696 76.6051C859.116 77.304 859.406 78.1023 859.565 79ZM869.424 91V89.4659L875.185 83.1591C875.862 82.4205 876.418 81.7784 876.856 81.233C877.293 80.6818 877.617 80.1648 877.827 79.6818C878.043 79.1932 878.151 78.6818 878.151 78.1477C878.151 77.5341 878.004 77.0028 877.708 76.554C877.418 76.1051 877.021 75.7585 876.515 75.5142C876.009 75.2699 875.441 75.1477 874.81 75.1477C874.14 75.1477 873.555 75.2869 873.055 75.5653C872.56 75.8381 872.177 76.2216 871.904 76.7159C871.637 77.2102 871.504 77.7898 871.504 78.4545H869.492C869.492 77.4318 869.728 76.5341 870.2 75.7614C870.671 74.9886 871.313 74.3864 872.126 73.9545C872.944 73.5227 873.862 73.3068 874.879 73.3068C875.901 73.3068 876.808 73.5227 877.597 73.9545C878.387 74.3864 879.006 74.9687 879.455 75.7017C879.904 76.4347 880.129 77.25 880.129 78.1477C880.129 78.7898 880.012 79.4176 879.779 80.0312C879.552 80.6392 879.154 81.3182 878.586 82.0682C878.023 82.8125 877.242 83.7216 876.242 84.7955L872.322 88.9886V89.125H880.435V91H869.424ZM889.648 91.2386C888.364 91.2386 887.271 90.8892 886.367 90.1903C885.464 89.4858 884.773 88.4659 884.296 87.1307C883.819 85.7898 883.58 84.1705 883.58 82.2727C883.58 80.3864 883.819 78.7756 884.296 77.4403C884.779 76.0994 885.472 75.0767 886.376 74.3722C887.285 73.6619 888.376 73.3068 889.648 73.3068C890.921 73.3068 892.009 73.6619 892.913 74.3722C893.822 75.0767 894.515 76.0994 894.992 77.4403C895.475 78.7756 895.717 80.3864 895.717 82.2727C895.717 84.1705 895.478 85.7898 895.001 87.1307C894.523 88.4659 893.833 89.4858 892.93 90.1903C892.026 90.8892 890.933 91.2386 889.648 91.2386ZM889.648 89.3636C890.921 89.3636 891.91 88.75 892.614 87.5227C893.319 86.2955 893.671 84.5455 893.671 82.2727C893.671 80.7614 893.509 79.4744 893.185 78.4119C892.867 77.3494 892.407 76.5398 891.805 75.983C891.208 75.4261 890.489 75.1477 889.648 75.1477C888.387 75.1477 887.401 75.7699 886.691 77.0142C885.981 78.2528 885.626 80.0057 885.626 82.2727C885.626 83.7841 885.785 85.0682 886.103 86.125C886.421 87.1818 886.879 87.9858 887.475 88.5369C888.077 89.0881 888.802 89.3636 889.648 89.3636ZM898.955 91V89.4659L904.717 83.1591C905.393 82.4205 905.95 81.7784 906.387 81.233C906.825 80.6818 907.148 80.1648 907.359 79.6818C907.575 79.1932 907.683 78.6818 907.683 78.1477C907.683 77.5341 907.535 77.0028 907.239 76.554C906.95 76.1051 906.552 75.7585 906.046 75.5142C905.54 75.2699 904.972 75.1477 904.342 75.1477C903.671 75.1477 903.086 75.2869 902.586 75.5653C902.092 75.8381 901.708 76.2216 901.435 76.7159C901.168 77.2102 901.035 77.7898 901.035 78.4545H899.023C899.023 77.4318 899.259 76.5341 899.731 75.7614C900.202 74.9886 900.844 74.3864 901.657 73.9545C902.475 73.5227 903.393 73.3068 904.41 73.3068C905.433 73.3068 906.339 73.5227 907.129 73.9545C907.918 74.3864 908.538 74.9687 908.987 75.7017C909.435 76.4347 909.66 77.25 909.66 78.1477C909.66 78.7898 909.543 79.4176 909.31 80.0312C909.083 80.6392 908.685 81.3182 908.117 82.0682C907.555 82.8125 906.773 83.7216 905.773 84.7955L901.853 88.9886V89.125H909.967V91H898.955ZM918.941 91.2386C917.941 91.2386 917.04 91.0398 916.239 90.642C915.438 90.2443 914.796 89.6989 914.313 89.0057C913.83 88.3125 913.566 87.5227 913.521 86.6364H915.566C915.646 87.4261 916.004 88.0795 916.64 88.5966C917.282 89.108 918.049 89.3636 918.941 89.3636C919.657 89.3636 920.293 89.196 920.85 88.8608C921.413 88.5256 921.853 88.0653 922.171 87.4801C922.495 86.8892 922.657 86.2216 922.657 85.4773C922.657 84.7159 922.489 84.0369 922.154 83.4403C921.825 82.8381 921.37 82.3636 920.79 82.017C920.211 81.6705 919.549 81.4943 918.805 81.4886C918.271 81.483 917.722 81.5653 917.16 81.7358C916.597 81.9006 916.134 82.1136 915.771 82.375L913.793 82.1364L914.85 73.5455H923.918V75.4205H916.623L916.009 80.5682H916.112C916.469 80.2841 916.918 80.0483 917.458 79.8608C917.998 79.6733 918.56 79.5795 919.146 79.5795C920.214 79.5795 921.165 79.8352 922.001 80.3466C922.842 80.8523 923.501 81.5455 923.978 82.4261C924.461 83.3068 924.702 84.3125 924.702 85.4432C924.702 86.5568 924.452 87.5511 923.952 88.4261C923.458 89.2955 922.776 89.983 921.907 90.4886C921.038 90.9886 920.049 91.2386 918.941 91.2386Z" fill="#1F2937"/>
<path d="M711 18L711 165" stroke="#683AB7" stroke-width="4" stroke-linecap="round"/>
<path d="M711.866 24.5C711.481 25.1667 710.519 25.1667 710.134 24.5L700.608 8C700.223 7.33333 700.704 6.5 701.474 6.5L720.526 6.5C721.296 6.5 721.777 7.33333 721.392 8L711.866 24.5Z" fill="#683AB7"/>
<path d="M6 65C6 62.7909 7.79086 61 10 61H12V90H10C7.79086 90 6 88.2091 6 86V65Z" fill="#683AB7"/>
<path d="M592 113C592 110.791 593.791 109 596 109H598V138H596C593.791 138 592 136.209 592 134V113Z" fill="#683AB7"/>
<path fill-rule="evenodd" clip-rule="evenodd" d="M846.131 141.688C845.532 140.091 847.091 138.532 848.688 139.131L865.711 145.514C867.604 146.224 867.35 148.979 865.359 149.33L857.684 150.684L856.33 158.359C855.979 160.35 853.224 160.604 852.514 158.711L846.131 141.688Z" fill="#683AB7"/>
</svg>
