<svg width="24" height="23" viewBox="0 0 24 23" fill="none" xmlns="http://www.w3.org/2000/svg">
<path d="M11.6263 0C5.27123 0 0.0993444 4.98135 0.0971036 11.1033C0.0956097 13.061 0.627438 14.9717 1.63582 16.6545L0 22.4082L6.1123 20.8643C7.81252 21.7537 9.70302 22.2176 11.6218 22.2163H11.6263C17.9813 22.2163 23.1532 17.2342 23.1555 11.1122C23.157 8.14689 21.9588 5.35557 19.7815 3.25741C17.6049 1.15851 14.7104 0.000746941 11.6263 0ZM11.6263 20.3407H11.6225C9.90307 20.3407 8.21646 19.8955 6.74496 19.0545L6.3939 18.8543L2.7682 19.77L3.73625 16.364L3.50843 16.0152C2.55151 14.5558 2.04211 12.8484 2.04291 11.1033C2.04515 6.01437 6.3446 1.87557 11.63 1.87557C14.1891 1.87632 16.595 2.83763 18.4049 4.58174C20.2147 6.32585 21.2104 8.6451 21.2089 11.1115C21.2067 16.2004 16.908 20.3407 11.6255 20.3407H11.6263ZM16.8826 13.4278C16.5943 13.2896 15.178 12.6181 14.9136 12.5247C14.6499 12.4328 14.458 12.385 14.266 12.6629C14.0748 12.9408 13.522 13.5659 13.3547 13.7504C13.1859 13.9357 13.0179 13.9581 12.7295 13.8199C12.4412 13.681 11.5127 13.3882 10.4132 12.4425C9.55648 11.7076 8.97834 10.7993 8.81028 10.5207C8.64222 10.2436 8.79235 10.0934 8.93652 9.95523C9.06574 9.83199 9.22484 9.63181 9.36825 9.46972C9.51167 9.30763 9.55947 9.19186 9.65658 9.00662C9.75219 8.82212 9.70438 8.65929 9.63193 8.52111C9.55947 8.38143 8.98432 7.01602 8.74306 6.46104C8.51001 5.92026 8.27248 5.99271 8.09545 5.98375C7.92739 5.97628 7.73617 5.97404 7.54271 5.97404C7.35223 5.97404 7.03926 6.0435 6.77484 6.32136C6.51117 6.59923 5.76646 7.26998 5.76646 8.63539C5.76646 10.0015 6.79874 11.3206 6.9429 11.5059C7.08707 11.6904 8.97461 14.4936 11.8646 15.6962C12.5518 15.9808 13.0881 16.1519 13.5071 16.2803C14.1973 16.4917 14.8255 16.4611 15.3214 16.3901C15.8742 16.3102 17.026 15.7194 17.265 15.0718C17.5055 14.4242 17.5055 13.8685 17.4338 13.7527C17.3636 13.6369 17.1709 13.5674 16.8826 13.4278V13.4278Z" fill="black"/>
</svg>
