<svg width="24" height="17" viewBox="0 0 24 17" fill="none" xmlns="http://www.w3.org/2000/svg">
<path fill-rule="evenodd" clip-rule="evenodd" d="M21.2258 0.505369C22.2519 0.781024 23.0636 1.59269 23.3392 2.61874C23.8446 4.48708 23.8599 8.36159 23.8599 8.36159C23.8599 8.36159 23.8599 12.2514 23.3546 14.1044C23.0789 15.1305 22.2672 15.9421 21.2412 16.2178C19.3881 16.7232 11.93 16.7232 11.93 16.7232C11.93 16.7232 4.47182 16.7232 2.61877 16.2178C1.5927 15.9421 0.781038 15.1305 0.505378 14.1044C0 12.2361 0 8.36159 0 8.36159C0 8.36159 0 4.48708 0.490062 2.63406C0.765723 1.608 1.57739 0.796344 2.60346 0.520689C4.45651 0.0153105 11.9147 0 11.9147 0C11.9147 0 19.3728 0 21.2258 0.505369ZM15.728 8.3616L9.54091 11.9451V4.77805L15.728 8.3616Z" fill="black"/>
</svg>
